<svg version="1.1" id="svg2" xmlns:x="ns_extend;" xmlns:i="ns_ai;" xmlns:graph="ns_graphs;" inkscape:version="1.2 (dc2aedaf03, 2022-05-15)" xmlns:inkscape="http://www.inkscape.org/namespaces/inkscape" xmlns:sodipodi="http://sodipodi.sourceforge.net/DTD/sodipodi-0.dtd" xmlns:svg="http://www.w3.org/2000/svg" xmlns="http://www.w3.org/2000/svg" xmlns:xlink="http://www.w3.org/1999/xlink" x="0px" y="0px" viewBox="0 0 187.8 60.5" style="enable-background:new 0 0 187.8 60.5;" xml:space="preserve">
 <style type="text/css">
  .st0{fill:#00C81E;}
 </style>
 <metadata>
  <sfw xmlns="ns_sfw;">
   <slices>
   </slices>
   <sliceSourceBounds bottomLeftOrigin="true" height="60.5" width="187.8" x="0" y="0">
   </sliceSourceBounds>
  </sfw>
 </metadata>
 <sodipodi:namedview bordercolor="#eeeeee" borderopacity="1" id="namedview4" inkscape:current-layer="g8" inkscape:cx="84.918826" inkscape:cy="35.861873" inkscape:deskcolor="#505050" inkscape:pagecheckerboard="0" inkscape:pageopacity="0" inkscape:showpageshadow="0" inkscape:window-height="1001" inkscape:window-maximized="1" inkscape:window-width="1920" inkscape:window-x="-9" inkscape:window-y="-9" inkscape:zoom="7.6543686" pagecolor="#505050" showgrid="false">
 </sodipodi:namedview>
 <g id="g14">
  <g id="g20" transform="translate(489.529,520.8572)">
   <path id="path22" class="st0" d="M-310-478.3c-5.1,0-8.9,3.8-8.9,8.9c0,5.1,3.8,8.9,8.9,8.9c2.7,0,5.3-1,6.9-2.8l-2.2-2.4
			c-0.8,0.8-2.3,1.9-4.7,1.9c-2.9,0-5-1.8-5.5-4.5l-0.1-0.4h13.7v-0.8C-302-474.9-305.1-478.3-310-478.3 M-315.4-471.1l0.1-0.4
			c0.7-2.3,2.7-3.9,5-3.9c2.6,0,4.3,1.4,4.8,3.9l0.1,0.4H-315.4z">
   </path>
  </g>
  <g id="g24" transform="translate(422.9852,520.8572)">
   <path id="path26" class="st0" d="M-332.1-478.3c-5.1,0-8.9,3.8-8.9,8.9c0,5.1,3.8,8.9,8.9,8.9c2.7,0,5.3-1,6.9-2.8l-2.2-2.4
			c-0.8,0.8-2.3,1.9-4.7,1.9c-2.9,0-5-1.8-5.5-4.5l-0.1-0.4h13.7v-0.8C-324.1-474.9-327.3-478.3-332.1-478.3 M-337.5-471.1l0.1-0.4
			c0.7-2.3,2.7-3.9,5-3.9c2.6,0,4.3,1.4,4.8,3.9l0.1,0.4H-337.5z">
   </path>
  </g>
  <g id="g28" transform="translate(467.3433,526.5544)">
   <path id="path30" class="st0" d="M-317.4-491.6c-1.3,0-2.4,1.1-2.4,2.4c0,1.3,1.1,2.4,2.4,2.4c1.3,0,2.4-1.1,2.4-2.4
			C-314.9-490.5-316-491.6-317.4-491.6">
   </path>
  </g>
  <path id="path32" class="st0" d="M102.1,60.1h3.3V35.3h-3.3V60.1z">
  </path>
  <path id="path34" class="st0" d="M148.3,60.1h3.3V42.8h-3.3V60.1z">
  </path>
  <g id="g36" transform="translate(471.1592,520.6425)">
   <path id="path38" class="st0" d="M-316.1-477.8v2.9h9.5l-9.5,13.2v1.2h14.3v-2.9h-9.5l9.5-13.3v-1.1H-316.1z">
   </path>
  </g>
  <g id="g40" transform="translate(450.4824,514.1573)">
   <path id="path42" class="st0" d="M-323-462.7c0,5.1,3.8,8.9,8.9,8.9c1.8,0,3.4-0.5,4.6-1.5l0.5-0.4v1.6h3.3v-17.3h-3.3v1.7
			l-0.5-0.4c-1.3-1-2.9-1.5-4.6-1.5C-319.2-471.6-323-467.8-323-462.7 M-309-465.9L-309-465.9l0.1,6.4l-0.1,0.1c-1,1.6-3,2.6-5,2.6
			c-3.2,0-5.5-2.4-5.5-5.8s2.3-5.8,5.5-5.8C-312-468.5-310.1-467.5-309-465.9">
   </path>
  </g>
  <g id="g44" transform="translate(443.1373,520.8572)">
   <path id="path46" class="st0" d="M-325.4-478.3c-1.9,0-3.7,0.7-4.8,1.9l-0.5,0.6v-9.7h-3.3v24.8h3.3v-11l0,0
			c0.7-2.2,2.4-3.4,4.6-3.4c2.9,0,4.4,2.2,4.4,4.3v10.1h3.3v-10.2C-318.5-475.4-321.2-478.3-325.4-478.3">
   </path>
  </g>
  <g id="g48" transform="translate(405.0779,526.2855)">
   <path id="path50" class="st0" d="M-338.1-491h-7.8v24.8h7.8c7.4,0,13-5.3,13-12.4C-325.1-485.7-330.7-491-338.1-491 M-338.1-469.4
			h-4.2v-18.3h4.2c5.5,0,9.4,3.9,9.4,9.2C-328.7-473.3-332.7-469.4-338.1-469.4">
   </path>
  </g>
  <path id="path52" class="st0" d="M123.7,29.5h3.3V4.7h-3.3V29.5z">
  </path>
  <g id="g54" transform="translate(406.2447,549.2065)">
   <path id="path56" class="st0" d="M-337.7-544.5l-10.2,24.8h3.8l2.3-5.7h11.1l2.3,5.7h3.8l-10.2-24.8H-337.7z M-340.7-528.5
			l4.4-10.9l4.3,10.9H-340.7z">
   </path>
  </g>
  <g id="g58" transform="translate(424.7385,543.7783)">
   <path id="path60" class="st0" d="M-331.6-531.8c-1.9,0-3.7,0.7-4.8,1.9l-0.5,0.6v-9.7h-3.3v24.8h3.3v-11l0,0
			c0.7-2.2,2.4-3.4,4.6-3.4c2.9,0,4.4,2.2,4.4,4.3v10.1h3.3v-10.2C-324.6-528.9-327.3-531.8-331.6-531.8">
   </path>
  </g>
  <g id="g62" transform="translate(438.8123,543.7783)">
   <path id="path64" class="st0" d="M-326.9-531.8c-5.1,0-9,3.8-9,8.9s3.9,8.9,9,8.9s9-3.8,9-8.9S-321.8-531.8-326.9-531.8
			 M-326.9-517.1c-3.2,0-5.5-2.4-5.5-5.8c0-3.4,2.3-5.8,5.5-5.8c3.2,0,5.5,2.5,5.5,5.8S-323.7-517.1-326.9-517.1">
   </path>
  </g>
  <g id="g66" transform="translate(458.9101,543.7783)">
   <path id="path68" class="st0" d="M-320.2-531.8c-5.1,0-8.9,3.8-8.9,8.9s3.8,8.9,8.9,8.9c1.8,0,3.4-0.5,4.6-1.5l0.5-0.4v1.6h3.3
			V-539h-3.3v9.2l-0.5-0.4C-316.8-531.3-318.4-531.8-320.2-531.8 M-315.1-526v6.3l-0.1,0.1c-1,1.6-3,2.6-5,2.6
			c-3.2,0-5.5-2.4-5.5-5.8c0-3.4,2.3-5.8,5.5-5.8C-318.1-528.7-316.2-527.7-315.1-526L-315.1-526z">
   </path>
  </g>
  <g id="g70" transform="translate(372.2601,550.3212)">
   <path id="path72" class="st0" d="M-349.1-547.1c0.9,0,1.6-0.7,1.6-1.6c0-0.9-0.7-1.6-1.6-1.6c-0.9,0-1.6,0.7-1.6,1.6
			C-350.7-547.8-350-547.1-349.1-547.1">
   </path>
  </g>
  <g id="g74" transform="translate(372.2601,550.3212)">
   <path id="path76" class="st0" d="M-349.1-547.1c0.9,0,1.6-0.7,1.6-1.6c0-0.9-0.7-1.6-1.6-1.6c-0.9,0-1.6,0.7-1.6,1.6
			C-350.7-547.8-350-547.1-349.1-547.1">
   </path>
  </g>
  <g id="g78" transform="translate(363.5104,544.003)">
   <path id="path80" class="st0" d="M-352-532.3l3.3,0c0,0-0.5-0.5-2.5-2.6c-1.2-1.2-1.3-2.2,0.2-2.2l0.3,0l1.6-2.5c0,0-1.4,0-2,0
			c-3.8,0-4.6,3.8-2.6,5.7C-352.3-532.6-352-532.3-352-532.3">
   </path>
  </g>
  <g id="g82" transform="translate(363.5104,544.003)">
   <path id="path84" class="st0" d="M-352-532.3l3.3,0c0,0-0.5-0.5-2.5-2.6c-1.2-1.2-1.3-2.2,0.2-2.2l0.3,0l1.6-2.5c0,0-1.4,0-2,0
			c-3.8,0-4.6,3.8-2.6,5.7C-352.3-532.6-352-532.3-352-532.3">
   </path>
  </g>
  <g id="g86" transform="translate(380.3482,547.699)">
   <path id="path88" class="st0" d="M-346.4-541c1.5,0,1.4,0.9,0.2,2.2c-2,2.1-2.5,2.7-2.5,2.7l3.3,0c0,0,0.3-0.3,1.7-1.7
			c1.9-1.9,1.2-5.7-2.6-5.6c-0.6,0-2,0.1-2,0.1l1.7,2.5L-346.4-541z">
   </path>
  </g>
  <g id="g90" transform="translate(380.3482,547.699)">
   <path id="path92" class="st0" d="M-346.4-541c1.5,0,1.4,0.9,0.2,2.2c-2,2.1-2.5,2.7-2.5,2.7l3.3,0c0,0,0.3-0.3,1.7-1.7
			c1.9-1.9,1.2-5.7-2.6-5.6c-0.6,0-2,0.1-2,0.1l1.7,2.5L-346.4-541z">
   </path>
  </g>
  <g id="g94" transform="translate(371.3396,544.9187)">
   <path id="path96" class="st0" d="M-349.4-534.5l1.3,1.1l1.3-1.1l0-6.2l-2.5,0L-349.4-534.5z">
   </path>
  </g>
  <g id="g98" transform="translate(371.3396,544.9187)">
   <path id="path100" class="st0" d="M-349.4-534.5l1.3,1.1l1.3-1.1l0-6.2l-2.5,0L-349.4-534.5z">
   </path>
  </g>
  <g id="g102" transform="translate(387.0071,524.9378)">
   <path id="path104" class="st0" d="M-344.1-487.9c0.6,3,0.4,5.9-0.6,8.8c-1.3,3.6-3.3,5.9-5.7,6.9c-0.6,0.2-1.6,0.5-2.9,0.6
			c-0.8,0-1.9-0.3-2.6-0.6c-0.4-0.2-1.2-0.6-1.2-0.6c-2.2-1.2-5.3-3.7-5.3-5.3c0-0.6,1.3-1.5,2.4-1.5c1.5,0,2.7-1.2,2.7-2.8v-0.1
			l-0.6-2.4l0-0.1c-0.4-1.3-1.4-5.8,2.1-7.8l3-1.4l-1.1-2.3l-3.1,1.5l-0.1,0c-3.5,2-4.7,6-3.3,10.7l0.5,2c0,0.1-0.1,0.1-0.2,0.1
			c-1,0-2.2,0.4-3.1,1c-0.2,0.1-0.4,0.3-0.5,0.4c-1-0.9-2.5-1.4-3.6-1.4c-0.1,0-0.2-0.1-0.2-0.1l0.5-2c1.4-4.7,0.1-8.7-3.4-10.7
			l-3.2-1.5l-1.1,2.3l3,1.4c3.5,2,2.5,6.5,2.1,7.8l-0.6,2.5v0.1c0,1.5,1.2,2.7,2.8,2.7c1.1,0,2.4,0.9,2.4,1.5c0,1.6-3.1,4.1-5.3,5.4
			c-0.2,0.1-0.4,0.2-0.6,0.3c-0.7,0.4-1.8,0.9-3.1,0.9c-0.3,0-1.5,0-3-0.5c-2.5-0.9-4.5-3.3-5.8-6.8c-1.2-3.4-1.3-6.8-0.3-10.3
			c0.3-1.1,1-2.6,1-2.6c1.6-3.5,4.2-6.7,7.7-9.4c0.1,0,5.1-4,9.4-6.8l-5.7-3.9l-3.5,0c0,0-0.3,0-0.5,0h0v0c-3.4,0.3-6.3,1.6-8.7,3.9
			c-2.4,2.2-3.8,6.3-3.5,10.2c0.1,1.7,0.5,3.2,1.2,4.7c0.4-0.8,0.9-1.8,1.6-3c-0.2-0.7-0.2-1.3-0.3-1.9c-0.2-3.2,0.9-6.5,2.7-8.2
			c2-1.9,4.4-2.9,7.2-3.2l7.1,0c-4,2.8-8.4,6.1-8.5,6.2c-2.8,2.2-5.1,4.8-6.9,7.5c-1.1,1.8-2.1,4.2-2.1,4.2
			c-1.7,4.5-1.8,9.1-0.2,13.5c2,5.4,5,7.5,7.3,8.3c1.1,0.4,2.3,0.6,3.4,0.6c1.8,0,3.4-0.6,3.4-0.6c0.5-0.2,1.5-0.6,2-0.8l0,0
			c0.5-0.3,3.5-2,5.3-4.4c1.7,2.3,4.7,4,5.3,4.3c0,0,1.4,0.8,2.4,1.1c1.2,0.3,2.5,0.3,2.9,0.3c1.2,0,2.3-0.2,3.4-0.6
			c2.2-0.9,5.3-3,7.2-8.4c1.4-3.9,1.4-7.9,0.2-11.9C-342.6-489.4-343.3-488.6-344.1-487.9">
   </path>
  </g>
  <g id="g106" transform="translate(387.0071,524.9378)">
   <path id="path108" class="st0" d="M-344.1-487.9c0.6,3,0.4,5.9-0.6,8.8c-1.3,3.6-3.3,5.9-5.7,6.9c-0.6,0.2-1.6,0.5-2.9,0.6
			c-0.8,0-1.9-0.3-2.6-0.6c-0.4-0.2-1.2-0.6-1.2-0.6c-2.2-1.2-5.3-3.7-5.3-5.3c0-0.6,1.3-1.5,2.4-1.5c1.5,0,2.7-1.2,2.7-2.8v-0.1
			l-0.6-2.4l0-0.1c-0.4-1.3-1.4-5.8,2.1-7.8l3-1.4l-1.1-2.3l-3.1,1.5l-0.1,0c-3.5,2-4.7,6-3.3,10.7l0.5,2c0,0.1-0.1,0.1-0.2,0.1
			c-1,0-2.2,0.4-3.1,1c-0.2,0.1-0.4,0.3-0.5,0.4c-1-0.9-2.5-1.4-3.6-1.4c-0.1,0-0.2-0.1-0.2-0.1l0.5-2c1.4-4.7,0.1-8.7-3.4-10.7
			l-3.2-1.5l-1.1,2.3l3,1.4c3.5,2,2.5,6.5,2.1,7.8l-0.6,2.5v0.1c0,1.5,1.2,2.7,2.8,2.7c1.1,0,2.4,0.9,2.4,1.5c0,1.6-3.1,4.1-5.3,5.4
			c-0.2,0.1-0.4,0.2-0.6,0.3c-0.7,0.4-1.8,0.9-3.1,0.9c-0.3,0-1.5,0-3-0.5c-2.5-0.9-4.5-3.3-5.8-6.8c-1.2-3.4-1.3-6.8-0.3-10.3
			c0.3-1.1,1-2.6,1-2.6c1.6-3.5,4.2-6.7,7.7-9.4c0.1,0,5.1-4,9.4-6.8l-5.7-3.9l-3.5,0c0,0-0.3,0-0.5,0h0v0c-3.4,0.3-6.3,1.6-8.7,3.9
			c-2.4,2.2-3.8,6.3-3.5,10.2c0.1,1.7,0.5,3.2,1.2,4.7c0.4-0.8,0.9-1.8,1.6-3c-0.2-0.7-0.2-1.3-0.3-1.9c-0.2-3.2,0.9-6.5,2.7-8.2
			c2-1.9,4.4-2.9,7.2-3.2l7.1,0c-4,2.8-8.4,6.1-8.5,6.2c-2.8,2.2-5.1,4.8-6.9,7.5c-1.1,1.8-2.1,4.2-2.1,4.2
			c-1.7,4.5-1.8,9.1-0.2,13.5c2,5.4,5,7.5,7.3,8.3c1.1,0.4,2.3,0.6,3.4,0.6c1.8,0,3.4-0.6,3.4-0.6c0.5-0.2,1.5-0.6,2-0.8l0,0
			c0.5-0.3,3.5-2,5.3-4.4c1.7,2.3,4.7,4,5.3,4.3c0,0,1.4,0.8,2.4,1.1c1.2,0.3,2.5,0.3,2.9,0.3c1.2,0,2.3-0.2,3.4-0.6
			c2.2-0.9,5.3-3,7.2-8.4c1.4-3.9,1.4-7.9,0.2-11.9C-342.6-489.4-343.3-488.6-344.1-487.9">
   </path>
  </g>
  <g id="g110" transform="translate(368.2314,543.5322)">
   <path id="path112" class="st0" d="M-350.4-531.2l8,5.7c0.1,0.1,0.6,0.4,0.6,0.4c3.6,2.5,7.2,5.2,7.2,5.2c3,2.3,5.4,5.1,7.1,8
			c0.7-1,1.1-2.1,1.3-2.7c-1.7-2.7-4.1-5.1-6.8-7.3c0,0-3.2-2.4-6.6-4.8c-1.5-0.9-5.7-3.8-5.7-3.8c-2-1.3-5-4-5-4
			c-1.1-1-1.2-2.2,0.1-2.2l2.6,0l0-2.5l-2.5,0c-4.1,0-4.8,3.4-2.5,5.8C-351.8-532.4-350.4-531.2-350.4-531.2">
   </path>
  </g>
  <g id="g114" transform="translate(368.2314,543.5322)">
   <path id="path116" class="st0" d="M-350.4-531.2l8,5.7c0.1,0.1,0.6,0.4,0.6,0.4c3.6,2.5,7.2,5.2,7.2,5.2c3,2.3,5.4,5.1,7.1,8
			c0.7-1,1.1-2.1,1.3-2.7c-1.7-2.7-4.1-5.1-6.8-7.3c0,0-3.2-2.4-6.6-4.8c-1.5-0.9-5.7-3.8-5.7-3.8c-2-1.3-5-4-5-4
			c-1.1-1-1.2-2.2,0.1-2.2l2.6,0l0-2.5l-2.5,0c-4.1,0-4.8,3.4-2.5,5.8C-351.8-532.4-350.4-531.2-350.4-531.2">
   </path>
  </g>
  <g id="g118" transform="translate(376.7776,510.6599)">
   <path id="path120" class="st0" d="M-347.5-454.5c-1.5,1.2-3.9,1.8-5.9,1.8c-2,0-4.3-0.5-5.8-1.7c-0.7,0.3-1.7,0.6-2.7,0.8
			c0.9,1.1,2.2,2,3.8,2.5c1.7,0.6,3.4,0.8,4.4,0.8v0c0.1,0,0.2,0,0.3,0c0.1,0,0.2,0,0.3,0v0c1.1,0,2.8-0.2,4.4-0.8
			c1.7-0.6,2.9-1.5,3.8-2.6C-345.9-453.9-346.9-454.3-347.5-454.5">
   </path>
  </g>
  <g id="g122" transform="translate(376.7776,510.6599)">
   <path id="path124" class="st0" d="M-347.5-454.5c-1.5,1.2-3.9,1.8-5.9,1.8c-2,0-4.3-0.5-5.8-1.7c-0.7,0.3-1.7,0.6-2.7,0.8
			c0.9,1.1,2.2,2,3.8,2.5c1.7,0.6,3.4,0.8,4.4,0.8v0c0.1,0,0.2,0,0.3,0c0.1,0,0.2,0,0.3,0v0c1.1,0,2.8-0.2,4.4-0.8
			c1.7-0.6,2.9-1.5,3.8-2.6C-345.9-453.9-346.9-454.3-347.5-454.5">
   </path>
  </g>
  <g id="g126" transform="translate(386.9035,540.1609)">
   <path id="path128" class="st0" d="M-344.2-523.4c-2.4-2.2-5.2-3.5-8.5-3.8l-0.3,0c-0.2,0-0.5,0-0.5,0l-5.8,0
			c0.6-0.5,1.2-0.9,1.8-1.4c0,0,0.1,0,0.4-0.3c0.3-0.2,0.7-0.8,0.7-0.8c0.1-0.1,0.3-0.3,0.4-0.5c2.2-2.4,1.6-5.8-2.6-5.8l-2.5,0
			l0,2.5l2.6,0c1.4,0,1,1.2,0,2.4c-1.3,1.1-2.7,2.2-4.1,3.2c1.7,1.2,3.5,2.4,4.8,3.2l4.7,0c2.8,0.3,5.2,1.3,7.2,3.2
			c1.8,1.7,3,5,2.8,8.2c-0.1,1-0.2,2.1-0.7,3.3c-0.4,1.2-1.3,2.8-2.7,4c0,0,0,0,0,0c-0.4,0.3-0.7,0.6-1.2,0.9
			c-6.6,4.6-7.1,10.6-7.4,13.7c0,0.3,0,0.5-0.1,0.8c0,0.1,0,0.3,0,0.4c0,0.4-0.1,0.9-0.2,1.4c0.6,0.3,1.5,0.6,2.5,0.5
			c0.1-0.6,0.2-1.2,0.2-1.7c0-0.1,0-0.3,0-0.4c0-0.3,0-0.5,0.1-0.8c0.3-3.1,0.7-7.9,6.3-11.8c0,0,0.1-0.1,0.1-0.1
			c3.1-2.2,4.2-4.9,4.2-4.9c0-0.1,0.1-0.1,0.1-0.1c0.8-1.5,1.2-3.2,1.3-5C-340.3-517.1-341.8-521.2-344.2-523.4">
   </path>
  </g>
  <g id="g130" transform="translate(386.9035,540.1609)">
   <path id="path132" class="st0" d="M-344.2-523.4c-2.4-2.2-5.2-3.5-8.5-3.8l-0.3,0c-0.2,0-0.5,0-0.5,0l-5.8,0
			c0.6-0.5,1.2-0.9,1.8-1.4c0,0,0.1,0,0.4-0.3c0.3-0.2,0.7-0.8,0.7-0.8c0.1-0.1,0.3-0.3,0.4-0.5c2.2-2.4,1.6-5.8-2.6-5.8l-2.5,0
			l0,2.5l2.6,0c1.4,0,1,1.2,0,2.4c-1.3,1.1-2.7,2.2-4.1,3.2c1.7,1.2,3.5,2.4,4.8,3.2l4.7,0c2.8,0.3,5.2,1.3,7.2,3.2
			c1.8,1.7,3,5,2.8,8.2c-0.1,1-0.2,2.1-0.7,3.3c-0.4,1.2-1.3,2.8-2.7,4c0,0,0,0,0,0c-0.4,0.3-0.7,0.6-1.2,0.9
			c-6.6,4.6-7.1,10.6-7.4,13.7c0,0.3,0,0.5-0.1,0.8c0,0.1,0,0.3,0,0.4c0,0.4-0.1,0.9-0.2,1.4c0.6,0.3,1.5,0.6,2.5,0.5
			c0.1-0.6,0.2-1.2,0.2-1.7c0-0.1,0-0.3,0-0.4c0-0.3,0-0.5,0.1-0.8c0.3-3.1,0.7-7.9,6.3-11.8c0,0,0.1-0.1,0.1-0.1
			c3.1-2.2,4.2-4.9,4.2-4.9c0-0.1,0.1-0.1,0.1-0.1c0.8-1.5,1.2-3.2,1.3-5C-340.3-517.1-341.8-521.2-344.2-523.4">
   </path>
  </g>
  <g id="g134" transform="translate(366.1638,514.08)">
   <path id="path136" class="st0" d="M-351.1-462.5c-0.1-0.5-0.1-1-0.2-1.5c0-0.2,0-0.3,0-0.4c0-0.2-0.1-0.5-0.1-0.8
			c-0.3-3.2-0.9-9.1-7.5-13.7c-0.4-0.3-0.8-0.6-1.2-1c-0.4,1-0.6,1.9-0.8,2.6c0.2,0.1,0.4,0.3,0.6,0.4c5.7,3.9,6.1,8.7,6.4,11.8
			c0,0.3,0.1,0.6,0.1,0.8c0,0.1,0,0.3,0,0.4c0,0.5,0.1,1,0.2,1.7C-352.6-461.9-351.7-462.2-351.1-462.5">
   </path>
  </g>
  <g id="g138" transform="translate(366.1638,514.08)">
   <path id="path140" class="st0" d="M-351.1-462.5c-0.1-0.5-0.1-1-0.2-1.5c0-0.2,0-0.3,0-0.4c0-0.2-0.1-0.5-0.1-0.8
			c-0.3-3.2-0.9-9.1-7.5-13.7c-0.4-0.3-0.8-0.6-1.2-1c-0.4,1-0.6,1.9-0.8,2.6c0.2,0.1,0.4,0.3,0.6,0.4c5.7,3.9,6.1,8.7,6.4,11.8
			c0,0.3,0.1,0.6,0.1,0.8c0,0.1,0,0.3,0,0.4c0,0.5,0.1,1,0.2,1.7C-352.6-461.9-351.7-462.2-351.1-462.5">
   </path>
  </g>
 </g>
</svg>