<svg version="1.1" id="Layer_1" xmlns="http://www.w3.org/2000/svg" xmlns:xlink="http://www.w3.org/1999/xlink" x="0px" y="0px" viewBox="0 0 171.7 82" style="enable-background:new 0 0 171.7 82;" xml:space="preserve">
 <style type="text/css">
  .st0{fill-rule:evenodd;clip-rule:evenodd;fill:#FFFFFF;}
	.st1{fill-rule:evenodd;clip-rule:evenodd;fill:#EE365D;}
	.st2{fill-rule:evenodd;clip-rule:evenodd;fill:#00A0DD;}
	.st3{fill-rule:evenodd;clip-rule:evenodd;fill:#30B14A;}
	.st4{fill-rule:evenodd;clip-rule:evenodd;fill:#FAA744;}
	.st5{fill-rule:evenodd;clip-rule:evenodd;fill:#FFD400;}
	.st6{fill-rule:evenodd;clip-rule:evenodd;fill:#0056A2;}
	.st7{fill-rule:evenodd;clip-rule:evenodd;fill:#ECB02E;}
	.st8{fill-rule:evenodd;clip-rule:evenodd;fill:#F4DDA1;}
 </style>
 <g>
  <path class="st0" d="M169.2,48.3h-34.3C134,22.1,114.1,0,86,0C57.6,0,38,22.1,37.1,48.3H2.5c-1.3,0-2.4,1-2.5,2.4v28.9
		C0,81,1.1,82,2.5,82h166.7c1.3,0,2.4-1,2.5-2.4v-29C171.7,49.3,170.5,48.3,169.2,48.3">
  </path>
  <path class="st1" d="M157.9,58.2c0.9-0.9,1.1-1,1.7-1.1h1.2c2.1-0.3,3,0.5,2.9,2v4.2c0,1-0.9,1.9-1.9,1.9c-0.3,0-0.6-0.1-0.9-0.2
		l-1.3,0.1c-0.8,0-1.8,0.1-1.6-0.5L157.9,58.2L157.9,58.2z M158.1,69.3c0.4,0.4,1.1,0.6,1.6,0.4l1.8,0.1c6.2-0.2,6.8-1.3,6.8-7.7
		l-0.2-2.6c0.2-2.7-1-7.5-5.9-6.5l-7.5-0.3c-1.8-0.2-3,0.6-2.9,1.6l-0.5,23c0.6,1.2,0.5,1.2,1.9,1.1l3.7-0.3c1-0.6,1-0.4,1-0.9
		L158.1,69.3L158.1,69.3z">
  </path>
  <path class="st2" d="M57.3,56.2c1.8,0.2,1.8,0.5,2.2,2.6l-0.1,2.5c-0.4,1.2-1.2,2.3-1.9,1.8l-1.4,0.1c-0.5,0.1-0.7-0.1-0.7-0.6
		l-0.2-4.8c0.8-1.2,0.2-1.5,0.8-1.4C56.1,56.4,57.3,56.2,57.3,56.2z M64.3,79.2c1.1-0.3,1.5-0.7,1.2-1.2c0-1.1-0.1-1.7-0.1-3.3v-4
		c-0.7-2.4-1.7-3.9-2.4-4.3c-1.1-0.8-1-1.1-0.7-1.1c2.9-0.3,3.1-3.3,2.8-6.2v-1c0.5-3.5-1.8-6.7-5.3-7.2c-0.5-0.1-0.9-0.1-1.4-0.1
		l-7,0.2c-0.7,0.4-1.1,1.1-1.2,1.9L49,78.5c1.4,0.6,1.4,1.3,1.8,1.4l3.9,0.1c0.4-0.5,0.7-1.1,0.8-1.8l-0.2-8.5
		c0-1.9,0.1-1.8,0.8-1.8l1.4,0.1c1.8-0.2,1.3,0.7,1.5,2l0.1,4.7c-0.3,1.2-0.1,2.5,0.5,3.5c0.2,0.5,0.7,0.8,1.2,0.7
		C60.9,78.9,64.3,79.2,64.3,79.2z">
  </path>
  <path class="st3" d="M38.9,72.4c-0.6,1.4-0.5,1.9-1.9,2l-1.1-0.1c-1.5,0-2.8-0.7-2.8-2.2l0.1-13.7c0.4-2,1.2-3.1,2.6-3.1H37
		c1.5,0,1.3,1.2,1.3,2.7C38.3,58,38.9,72.4,38.9,72.4z M28.4,58.3l0.2,13.2c-1.5,7.6,2,8.3,7.3,8.5h1.7c5-0.2,7.6-3.2,7.5-8.3
		l0.7-12.8c-1-8.3-3.9-7.5-7.9-7l-2.5-0.2c-4.9-0.2-7.7,1.9-7.2,5.6C28.2,57.2,28.4,58.3,28.4,58.3z">
  </path>
  <path class="st4" d="M6.6,79.2c0,0.2,0.2,0.3,0.4,0.3h5.6c0.2,0,0.4-0.1,0.4-0.3l1.5-10.8c0-0.2,0.1-0.2,0.1,0l2,8.4
		c0.1,0.2,0.2,0.3,0.4,0.4l4.1,0.6c0.2,0,0.3-0.1,0.4-0.3l5-26.1c0-0.1-0.1-0.3-0.2-0.3c0,0,0,0-0.1,0l-5-0.2
		c-0.2,0-0.3,0.1-0.4,0.3l-3,17.8c0,0.2-0.1,0.2-0.1,0l-0.9-15.3c0-0.2-0.2-0.3-0.3-0.3l-3.7-0.2c-0.2,0-0.3,0.1-0.4,0.3l-1.9,10.9
		c0,0.2-0.1,0.2-0.1,0L8.9,52.8c0-0.2-0.2-0.3-0.4-0.3l-4.9,0.6c-0.2,0-0.3,0.2-0.3,0.3L6.6,79.2z M142.7,58.1
		c0-1.5-1.9-2.1-3.1-2.1h-1.1c-1.2,0-1.9,0.6-1.9,2.1l-1.1,14.4c0,1.5,1.8,2.1,3,2.1h1.1c1.2,0,1.9-0.6,1.9-2.1
		C141.5,72.5,142.7,58.1,142.7,58.1z M138.1,51.6h2c4.4,0,7.9,2.2,7.9,6.8l-0.5,13.8c0,4.6-3,6.8-7.4,6.8h-2c-4.4,0-7.9-1.9-7.9-6.5
		l0.3-13.8C130.6,54.2,133.7,51.6,138.1,51.6C138.1,51.6,138.1,51.6,138.1,51.6z">
  </path>
  <path class="st1" d="M77.1,78.1c0.2,0,0.3-0.2,0.3-0.3l-0.5-10.8c0-0.2,0-0.2,0.1,0l5.1,10.7c0.1,0.2,0.3,0.3,0.5,0.3l5.1-0.2
		c0.1,0,0.2,0,0.3-0.1c0-0.1,0-0.2,0-0.2l-5-13c-0.1-0.2-0.1-0.4,0-0.6l3.5-12.5c0-0.1,0-0.2-0.1-0.3c0,0-0.1,0-0.1,0l-4.9,0.2
		c-0.2,0-0.4,0.1-0.4,0.3l-3.7,10.7c-0.1,0.2-0.1,0.2-0.1,0l-0.8-8.9c0-0.2-0.2-0.3-0.4-0.3l-5,0.2c-0.2,0-0.3,0.2-0.3,0.3L72,78
		c0,0.2,0.2,0.3,0.3,0.3c0,0,0,0,0,0h0C72.3,78.3,77.1,78.1,77.1,78.1z">
  </path>
  <path class="st5" d="M120.5,78.2c0,0.2,0.2,0.3,0.3,0.3l6.1,0.1c0.2,0,0.3-0.1,0.3-0.3v0l-0.6-25.6c0-0.2-0.2-0.3-0.3-0.4l-5.7-0.6
		c-0.2,0-0.3,0.1-0.3,0.2c0,0,0,0,0,0.1l0.1,11c0,0.2-0.1,0.3-0.3,0.3c0,0,0,0,0,0l-2.6-0.2c-0.2,0-0.3-0.2-0.3-0.4v-9.2
		c0-0.2-0.1-0.3-0.3-0.3l0,0H111c-0.2,0-0.3,0.1-0.3,0.3v0l0.7,25.7c0,0.2,0.2,0.3,0.3,0.3h5c0.2,0,0.3-0.1,0.3-0.3l0,0V67.8
		c0-0.2,0.1-0.3,0.3-0.3c0,0,0,0,0,0l2.6,0.2c0.2,0,0.3,0.2,0.3,0.4L120.5,78.2z">
  </path>
  <path class="st3" d="M100.2,58c0-1.3-0.6-2.1-1.8-2.1h-0.2c-1.2,0-1.8,0.8-1.8,2.1v0.7c0,1.6,0.4,2.5,3.7,4.3
		c4.7,2.6,5.6,4.7,5.6,7.8v1.4c0,4.6-2.1,6.8-6.9,6.8h-1c-4.5,0-6.6-2.2-6.6-6.8v-1.3c-0.1-0.3,0.1-0.7,0.5-0.8c0.1,0,0.3,0,0.4,0
		h3.6c0.3-0.1,0.7,0.1,0.8,0.5c0,0.1,0,0.2,0,0.3v1.8c0,1.3,0.6,2.1,1.8,2.1h0.4c1.2,0,1.8-0.8,1.8-2.1v-1.4c0-1.6-0.4-2.5-3.7-4.3
		c-4.7-2.6-5.6-4.7-5.6-7.8v-0.7c0-4.5,2.1-6.8,6.9-6.8h0.8c4.5,0,6.6,2.2,6.6,6.8v0.5c0.1,0.3-0.1,0.7-0.5,0.8c-0.1,0-0.2,0-0.3,0
		H101c-0.3,0.1-0.7-0.1-0.8-0.5c0-0.1,0-0.2,0-0.3L100.2,58C100.2,57.9,100.2,57.9,100.2,58z">
  </path>
  <path class="st6" d="M138.2,56.3c-1.1,0-1.5,0.5-1.5,1.7v14.5c0,1.2,0.4,1.7,1.5,1.7h1.1c1.1,0,1.5-0.5,1.5-1.7V58.1
		c0-1.2-0.4-1.7-1.5-1.7C139.3,56.4,138.2,56.4,138.2,56.3z M139.3,75h-1.1c-1,0-2.3-0.4-2.3-2.5V58.1c0-2,1.2-2.5,2.3-2.5h1.1
		c1,0,2.3,0.4,2.3,2.5v14.5C141.6,74.5,140.4,75,139.3,75z M138,54.2c-2.3,0-3.8,0.7-3.8,4.2v13.9c0,3.5,1.5,4.2,3.8,4.2h1.5
		c2.3,0,3.8-0.7,3.8-4.2V58.3c0-3.5-1.5-4.2-3.8-4.2L138,54.2L138,54.2z M139.6,77.2H138c-3.2,0-4.6-1.5-4.6-4.9V58.3
		c0-3.4,1.4-4.9,4.6-4.9h1.5c3.2,0,4.6,1.5,4.6,4.9v13.9C144.1,75.7,142.7,77.2,139.6,77.2L139.6,77.2L139.6,77.2z M137.8,52
		c-4.2,0-6.1,2-6.1,6.4v13.8c0,4.4,1.9,6.4,6.1,6.4h2c4.2,0,6.1-2,6.1-6.4V58.4c0-4.4-1.9-6.4-6.1-6.4L137.8,52
		C137.8,52,137.8,52,137.8,52z M139.8,79.4h-2c-4.6,0-6.9-2.3-6.9-7.2V58.4c0-4.8,2.2-7.2,6.9-7.2h2c4.6,0,6.9,2.3,6.9,7.2v13.8
		C146.7,77,144.4,79.4,139.8,79.4L139.8,79.4z M14.2,63.1c0.4,0,0.7,0.4,0.7,0.7c0,0.5,0.1,1.6,0.2,2.5l1.2,11.4
		c0,0.4,0.1,0.4,0.5,0.4h4.4c0.4,0,0.5-0.1,0.5-0.4l2.8-25.1c0-0.1,0-0.2,0-0.3c-0.1-0.1-0.2-0.1-0.3-0.1h-2.8c-0.4,0-0.4,0-0.5,0.4
		l-1.3,13.6c-0.1,0.7-0.1,1.5-0.1,2.1v0.5c0,0.4-0.2,0.7-0.6,0.8c-0.4,0-0.7-0.2-0.8-0.6c0-0.1,0-0.1,0-0.2c-0.1-1-0.1-1.9-0.2-2.6
		l-1.4-13.6c0-0.4-0.1-0.4-0.5-0.4h-3.2c-0.4,0-0.5,0.1-0.5,0.4l-1.4,13.6c-0.1,1-0.2,2.1-0.2,2.6c0,0.4-0.2,0.7-0.6,0.8
		c-0.4,0-0.7-0.2-0.8-0.6c0-0.1,0-0.1,0-0.2v-0.4c0-0.6-0.1-1.4-0.1-2.1L7.7,52.7c0-0.4-0.1-0.4-0.5-0.4H4c-0.1,0-0.2,0-0.3,0
		c0,0.1,0,0.2,0,0.3l2.8,25.2c0,0.4,0.1,0.4,0.5,0.4h4.5c0.4,0,0.5-0.1,0.5-0.4l1.2-11.4c0.1-0.6,0.1-1.5,0.2-2.5
		C13.5,63.5,13.8,63.2,14.2,63.1 M21.2,79h-4.4c-0.6,0.1-1.1-0.3-1.2-0.9c0-0.1,0-0.1,0-0.2l-1.2-11.4c-0.1-0.5-0.1-1.1-0.1-1.6
		c0,0.6-0.1,1.1-0.1,1.6l-1.2,11.4c0,0.6-0.5,1.1-1.1,1.1c-0.1,0-0.1,0-0.2,0H7.1c-0.6,0.1-1.1-0.3-1.2-0.9c0-0.1,0-0.1,0-0.2
		L3,52.7c-0.1-0.3,0-0.6,0.2-0.9c0.2-0.2,0.5-0.3,0.8-0.3h3.2c0.6-0.1,1.1,0.3,1.2,0.9c0,0,0,0,0,0c0,0.1,0,0.1,0,0.2l1.3,13.6
		c0.1,0.6,0.1,1.2,0.1,1.7c0-0.5,0.1-1.1,0.2-1.7l1.4-13.6c0-0.6,0.5-1.1,1.1-1.1c0.1,0,0.1,0,0.2,0h3.2c0.6-0.1,1.1,0.3,1.2,0.9
		c0,0.1,0,0.1,0,0.2l1.4,13.6c0.1,0.5,0.1,1.1,0.2,1.8c0-0.5,0.1-1.2,0.1-1.8l1.3-13.6c0-0.6,0.4-1.1,1-1.1c0.1,0,0.1,0,0.2,0h2.8
		c0.3,0,0.6,0.1,0.9,0.3c0.2,0.3,0.3,0.6,0.2,0.9l-2.8,25.1c0,0.6-0.5,1.1-1.1,1.1C21.3,79,21.3,79,21.2,79 M35.4,52
		c-0.2,0-0.4-0.2-0.4-0.4c0-0.2,0.2-0.4,0.4-0.4h1.8c0.2,0,0.4,0.2,0.4,0.4c0,0.2-0.2,0.4-0.4,0.4H35.4z M40,52.2L40,52.2
		c-0.5-0.1-0.9-0.2-1.4-0.2c-0.2,0-0.4-0.2-0.3-0.4s0.2-0.4,0.4-0.3l0,0c0.5,0,1,0.1,1.4,0.2c0.2,0,0.3,0.3,0.3,0.5
		C40.4,52.1,40.3,52.2,40,52.2L40,52.2z M32.6,52.5c-0.2,0-0.4-0.1-0.4-0.4c0-0.2,0.1-0.3,0.3-0.4c0.5-0.2,0.9-0.3,1.4-0.4
		c0.2,0,0.4,0.1,0.4,0.3c0,0.2-0.1,0.4-0.3,0.4c-0.4,0.1-0.9,0.2-1.3,0.4C32.7,52.5,32.7,52.5,32.6,52.5
		C32.6,52.5,32.6,52.5,32.6,52.5z M42.6,53.5c-0.1,0-0.2,0-0.3-0.1c-0.3-0.3-0.7-0.5-1-0.7c-0.2-0.1-0.2-0.4,0-0.5
		c0.1-0.1,0.2-0.1,0.4-0.1c0.5,0.2,0.9,0.5,1.2,0.9c0.2,0.1,0.2,0.4,0,0.5C42.8,53.5,42.7,53.5,42.6,53.5
		C42.6,53.5,42.6,53.5,42.6,53.5z M30.4,54.3c-0.1,0-0.1,0-0.2-0.1c-0.2-0.1-0.2-0.4-0.1-0.5c0,0,0,0,0,0l0,0c0.3-0.4,0.6-0.8,1-1.1
		c0.2-0.1,0.4-0.1,0.5,0.1c0.1,0.2,0.1,0.4-0.1,0.5c-0.3,0.3-0.6,0.6-0.9,0.9C30.7,54.2,30.6,54.3,30.4,54.3
		C30.4,54.3,30.4,54.3,30.4,54.3z M44,56c-0.2,0-0.3-0.1-0.4-0.3c-0.1-0.4-0.3-0.8-0.5-1.2c-0.1-0.2,0-0.4,0.2-0.5
		c0.2-0.1,0.4,0,0.5,0.1c0.2,0.4,0.4,0.9,0.5,1.4C44.4,55.7,44.3,55.9,44,56L44,56L44,56z M29.5,56.9L29.5,56.9
		c-0.3,0-0.4-0.2-0.4-0.4c0.1-0.5,0.2-1,0.3-1.4c0.1-0.2,0.3-0.3,0.5-0.2c0.2,0.1,0.3,0.3,0.2,0.5l0,0c-0.1,0.4-0.2,0.9-0.3,1.3
		C29.8,56.8,29.6,56.9,29.5,56.9C29.5,56.9,29.5,56.9,29.5,56.9z M44.4,58.8c-0.2,0-0.4-0.2-0.4-0.4c0,0,0,0,0,0v0
		c0-0.4,0-0.9-0.1-1.3c0-0.2,0.2-0.3,0.4-0.3c0.1,0,0.2,0.1,0.3,0.2c0,0.5,0.1,0.9,0.1,1.4C44.7,58.6,44.6,58.8,44.4,58.8
		C44.3,58.8,44.4,58.8,44.4,58.8z M29.4,59.8c-0.2,0-0.4-0.2-0.4-0.4l0,0V58c0-0.2,0.2-0.4,0.4-0.4c0.2,0,0.4,0.2,0.4,0.4v1.4
		C29.8,59.6,29.6,59.8,29.4,59.8z M44.4,61.7c-0.2,0-0.4-0.2-0.4-0.4c0,0,0,0,0,0v-1.4c0-0.2,0.2-0.4,0.4-0.4c0.2,0,0.4,0.2,0.4,0.4
		v1.4C44.8,61.5,44.6,61.7,44.4,61.7C44.4,61.7,44.4,61.7,44.4,61.7z M29.4,62.7c-0.2,0-0.4-0.2-0.4-0.4v-1.4c0-0.2,0.2-0.4,0.4-0.4
		c0.2,0,0.4,0.2,0.4,0.4v1.4C29.8,62.5,29.6,62.7,29.4,62.7C29.4,62.7,29.4,62.7,29.4,62.7z M44.4,64.5c-0.2,0-0.4-0.2-0.4-0.4v-1.4
		c0-0.2,0.2-0.4,0.4-0.4c0.2,0,0.4,0.2,0.4,0.4v1.4C44.8,64.3,44.6,64.5,44.4,64.5C44.4,64.5,44.4,64.5,44.4,64.5z M29.4,65.5
		c-0.2,0-0.4-0.2-0.4-0.4v-1.4c0-0.2,0.2-0.4,0.4-0.4c0.2,0,0.4,0.2,0.4,0.4v1.4C29.8,65.4,29.6,65.5,29.4,65.5
		C29.4,65.5,29.4,65.5,29.4,65.5z M44.4,67.4c-0.2,0-0.4-0.2-0.4-0.4v-1.4c0-0.2,0.2-0.4,0.4-0.4c0.2,0,0.4,0.2,0.4,0.4V67
		C44.8,67.2,44.6,67.4,44.4,67.4z M29.4,68.4c-0.2,0-0.4-0.2-0.4-0.4v-1.4c0-0.2,0.2-0.4,0.4-0.4c0.2,0,0.4,0.2,0.4,0.4V68
		C29.8,68.2,29.6,68.4,29.4,68.4C29.4,68.4,29.4,68.4,29.4,68.4z M44.4,70.3c-0.2,0-0.4-0.2-0.4-0.4v-1.4c0-0.2,0.2-0.4,0.4-0.4
		c0.2,0,0.4,0.2,0.4,0.4v1.4C44.8,70.1,44.6,70.2,44.4,70.3C44.4,70.2,44.4,70.3,44.4,70.3z M29.4,71.3c-0.2,0-0.4-0.2-0.4-0.4
		c0,0,0,0,0,0v-1.4c0-0.2,0.2-0.4,0.4-0.4c0.2,0,0.4,0.2,0.4,0.4v1.4C29.8,71.1,29.6,71.3,29.4,71.3C29.4,71.3,29.4,71.3,29.4,71.3z
		 M44.4,73.2c-0.2,0-0.4-0.2-0.4-0.4c0,0,0,0,0,0v-1.4c0-0.2,0.2-0.4,0.4-0.4c0.2,0,0.4,0.2,0.4,0.4v1.4
		C44.8,73,44.6,73.1,44.4,73.2C44.4,73.1,44.4,73.2,44.4,73.2z M29.5,74.2c-0.2,0-0.4-0.1-0.4-0.3c-0.1-0.5-0.1-1-0.1-1.4
		c0-0.2,0.2-0.4,0.4-0.4c0.2,0,0.4,0.2,0.4,0.4c0,0.4,0,0.9,0.1,1.3C29.8,73.9,29.7,74.1,29.5,74.2L29.5,74.2L29.5,74.2L29.5,74.2z
		 M43.9,75.9h-0.1c-0.2-0.1-0.3-0.3-0.2-0.5c0.2-0.4,0.3-0.8,0.3-1.3c0-0.2,0.2-0.3,0.4-0.3c0.2,0,0.3,0.2,0.3,0.4l0,0
		c-0.1,0.5-0.2,1-0.4,1.4C44.2,75.9,44,76,43.9,75.9C43.8,75.9,43.8,75.9,43.9,75.9z M30.3,76.8c-0.1,0-0.2-0.1-0.3-0.2
		c-0.3-0.4-0.5-0.9-0.6-1.4c-0.1-0.2,0-0.4,0.2-0.5s0.4,0,0.5,0.2c0.1,0.4,0.3,0.8,0.5,1.2c0.1,0.2,0.1,0.4-0.1,0.5
		C30.5,76.8,30.4,76.8,30.3,76.8L30.3,76.8z M42.2,78.2c-0.2,0-0.4-0.2-0.4-0.4c0-0.1,0.1-0.2,0.2-0.3c0.3-0.3,0.6-0.6,0.9-0.9
		c0.1-0.2,0.4-0.2,0.5-0.1c0.2,0.1,0.2,0.4,0.1,0.5c-0.3,0.4-0.7,0.8-1.1,1.1C42.3,78.2,42.2,78.2,42.2,78.2
		C42.2,78.2,42.2,78.2,42.2,78.2z M32.4,78.7c-0.1,0-0.1,0-0.2,0c-0.5-0.2-0.9-0.5-1.2-0.9c-0.2-0.1-0.2-0.4,0-0.5
		c0.1-0.2,0.4-0.2,0.5,0c0.3,0.3,0.7,0.5,1.1,0.7c0.2,0.1,0.3,0.3,0.2,0.5C32.7,78.6,32.6,78.7,32.4,78.7L32.4,78.7z M39.5,79.2
		c-0.2,0-0.4-0.1-0.4-0.3c0-0.2,0.1-0.4,0.4-0.4c0.4-0.1,0.9-0.2,1.3-0.3c0.2-0.1,0.4,0,0.5,0.2c0.1,0.2,0,0.4-0.2,0.5
		C40.5,79.1,40,79.2,39.5,79.2C39.5,79.2,39.5,79.2,39.5,79.2z M35.1,79.3c-0.5,0-1-0.1-1.5-0.2c-0.2-0.1-0.3-0.3-0.3-0.5
		c0.1-0.2,0.2-0.3,0.4-0.3c0.4,0.1,0.9,0.1,1.3,0.2c0.2,0,0.4,0.2,0.4,0.4C35.6,79.2,35.4,79.3,35.1,79.3L35.1,79.3z M37.9,79.3
		h-1.2c-0.2,0-0.4-0.2-0.4-0.4c0-0.2,0.2-0.4,0.4-0.4H38c0.2,0,0.4,0.2,0.4,0.4c0,0.2-0.2,0.4-0.4,0.4H37.9
		C37.8,79.3,37.8,79.3,37.9,79.3z M37.7,56.4h-1.4c-0.2,0-0.4-0.2-0.4-0.4c0-0.2,0.2-0.4,0.4-0.4h1.4c0.2,0,0.4,0.2,0.4,0.4
		C38.1,56.2,37.9,56.4,37.7,56.4 M34.4,58.1c-0.2,0-0.4-0.2-0.4-0.4c0,0,0,0,0,0c0-0.6,0.2-1.1,0.6-1.5c0.1-0.2,0.4-0.2,0.5,0
		s0.2,0.4,0,0.5l0,0c-0.2,0.3-0.4,0.7-0.4,1C34.7,58,34.6,58.1,34.4,58.1 M39.3,58.4c-0.2,0-0.4-0.2-0.4-0.4c0,0,0,0,0,0
		c0-0.4-0.1-0.8-0.2-1.2c-0.1-0.2,0-0.4,0.1-0.5c0.2-0.1,0.4,0,0.5,0.1c0.3,0.5,0.4,1,0.3,1.5C39.6,58.3,39.5,58.4,39.3,58.4
		 M34.4,61.1c-0.2,0-0.4-0.2-0.4-0.4c0,0,0,0,0,0v-1.4c0-0.2,0.2-0.4,0.4-0.4c0.2,0,0.4,0.2,0.4,0.4v1.4
		C34.8,60.9,34.6,61.1,34.4,61.1 M39.3,61.3c-0.2,0-0.4-0.2-0.4-0.4c0,0,0,0,0,0v-1.4c0-0.2,0.2-0.4,0.4-0.4c0.2,0,0.4,0.2,0.4,0.4
		v1.4C39.6,61.1,39.5,61.3,39.3,61.3 M34.4,64c-0.2,0-0.4-0.1-0.4-0.4c0,0,0,0,0,0v-1.4c0-0.2,0.2-0.4,0.4-0.4
		c0.2,0,0.4,0.2,0.4,0.4v1.4C34.8,63.8,34.6,64,34.4,64 M39.3,64.3c-0.2,0-0.4-0.2-0.4-0.4c0,0,0,0,0,0v-1.4c0-0.2,0.2-0.4,0.4-0.4
		c0.2,0,0.4,0.2,0.4,0.4v1.4C39.6,64.1,39.5,64.3,39.3,64.3 M34.4,67c-0.2,0-0.4-0.1-0.4-0.4c0,0,0,0,0-0.1v-1.4
		c0-0.2,0.2-0.4,0.4-0.4c0.2,0,0.4,0.2,0.4,0.4l0,0v1.4C34.8,66.8,34.6,67,34.4,67 M39.3,67.2c-0.2,0-0.4-0.2-0.4-0.4v-1.4
		c0-0.2,0.2-0.4,0.4-0.4c0.2,0,0.4,0.2,0.4,0.4v1.4C39.6,67,39.5,67.2,39.3,67.2 M34.4,69.9c-0.2,0-0.4-0.2-0.4-0.4v-1.4
		c0-0.2,0.2-0.4,0.4-0.4c0.2,0,0.4,0.2,0.4,0.4v1.4C34.8,69.7,34.6,69.9,34.4,69.9 M39.3,70.1c-0.2,0-0.4-0.2-0.4-0.4v-1.4
		c0-0.2,0.2-0.4,0.4-0.4c0.2,0,0.4,0.2,0.4,0.4v1.4C39.6,70,39.5,70.1,39.3,70.1 M34.5,72.9c-0.2,0.1-0.4-0.1-0.5-0.3
		c0-0.1,0-0.1,0-0.2v-1.4c0-0.2,0.2-0.4,0.4-0.4c0.2,0,0.4,0.2,0.4,0.4v1.4C34.8,72.7,34.6,72.8,34.5,72.9 M39.3,73.1
		c-0.2,0-0.4-0.2-0.4-0.4c0,0,0,0,0,0v-1.4c0-0.2,0.2-0.4,0.4-0.4c0.2,0,0.4,0.2,0.4,0.4v1.4C39.7,73,39.6,73.1,39.3,73.1 M36,75
		c-0.6,0-1.1-0.3-1.5-0.8c-0.1-0.2-0.1-0.4,0.1-0.5c0.2-0.1,0.4-0.1,0.5,0.1c0.2,0.3,0.6,0.5,0.9,0.5c0.2,0,0.4,0.2,0.3,0.4
		C36.4,74.9,36.2,75,36,75 M37.5,75c-0.2,0-0.4-0.2-0.4-0.4c0-0.2,0.2-0.4,0.4-0.4c0.4,0,0.7-0.1,1-0.4c0.2-0.1,0.4-0.1,0.5,0
		c0.1,0.1,0.1,0.4,0,0.5C38.6,74.8,38.1,75,37.5,75 M116.1,67h3.3c0.5-0.1,1,0.3,1.1,0.8c0,0.1,0,0.1,0,0.2v9.9
		c0,0.4,0.1,0.4,0.4,0.4h3.8c0.3,0,0.4,0,0.4-0.4V52.7c0-0.4-0.1-0.4-0.4-0.4h-3.8c-0.3,0-0.4,0-0.4,0.4v9.4c0,0.5-0.3,1-0.8,1
		c-0.1,0-0.1,0-0.2,0h-3.3c-0.5,0.1-1-0.3-1.1-0.8c0-0.1,0-0.1,0-0.2v-9.4c0-0.4-0.1-0.4-0.4-0.4h-3.8c-0.3,0-0.4,0-0.4,0.4v25.2
		c0,0.4,0.1,0.4,0.4,0.4h3.8c0.3,0,0.4,0,0.4-0.4V68c0-0.5,0.3-1,0.8-1C116,67,116.1,67,116.1,67 M124.6,79h-3.8
		c-0.5,0.1-1.1-0.2-1.2-0.8c0-0.1,0-0.2,0-0.4V68c0-0.1,0-0.2,0-0.2c-0.1,0-0.1,0-0.2,0h-3.3c-0.1,0-0.1,0-0.2,0c0,0.1,0,0.2,0,0.2
		v9.9c0.1,0.5-0.3,1.1-0.8,1.2c-0.1,0-0.3,0-0.4,0h-3.8c-0.5,0.1-1.1-0.2-1.2-0.8c0-0.1,0-0.2,0-0.4V52.7c-0.1-0.5,0.3-1.1,0.8-1.2
		c0.1,0,0.2,0,0.4,0h3.8c0.5-0.1,1.1,0.2,1.2,0.8c0,0.1,0,0.2,0,0.4v9.4c-0.1,0.1,0,0.2,0.1,0.3c0.1,0,0.1,0,0.2,0h3.3
		c0.1,0,0.1,0,0.2,0c0-0.1,0-0.2,0-0.2v-9.5c-0.1-0.5,0.3-1.1,0.8-1.2c0.1,0,0.2,0,0.4,0h3.8c0.5-0.1,1.1,0.2,1.2,0.8
		c0,0.1,0,0.2,0,0.4v25.2c0.1,0.5-0.3,1.1-0.8,1.1C124.8,79,124.7,79,124.6,79 M158.3,63.9c-0.1,0.3,0.1,0.6,0.4,0.7
		c0.1,0,0.2,0,0.2,0h1.1c1,0.1,1.9-0.6,2-1.6c0-0.2,0-0.4,0-0.5v-4c0.2-1-0.5-1.9-1.5-2.1c-0.2,0-0.4,0-0.5,0H159
		c-0.3-0.1-0.6,0.1-0.7,0.4c0,0.1,0,0.2,0,0.2L158.3,63.9C158.3,63.9,158.3,63.9,158.3,63.9z M158.3,77.9c0.1,0.4-0.1,0.7-0.5,0.8
		c-0.1,0-0.2,0-0.3,0h-3.8c-0.4,0.1-0.7-0.1-0.8-0.5c0-0.1,0-0.2,0-0.3V53.8c0-1.4,0.5-1.9,1.9-1.9h5.7c4.7,0,6.9,2.2,6.9,6.8v3.3
		c0,4.5-2.2,6.8-6.9,6.8H159c-0.3-0.1-0.6,0.1-0.7,0.4c0,0.1,0,0.2,0,0.2L158.3,77.9L158.3,77.9z M96.1,52.3c0,0.4-0.3,0.6-0.6,0.7
		c-0.4,0-0.6-0.3-0.7-0.6c0-0.4,0.3-0.6,0.6-0.7h0C95.8,51.7,96.1,51.9,96.1,52.3C96.1,52.3,96.1,52.3,96.1,52.3 M98,52.3
		c0,0.4-0.3,0.6-0.6,0.7c-0.4,0-0.6-0.3-0.7-0.6c0-0.4,0.3-0.6,0.6-0.7h0C97.7,51.7,98,51.9,98,52.3C98,52.3,98,52.3,98,52.3
		 M100,52.3c0,0.4-0.3,0.7-0.6,0.7c-0.4,0-0.7-0.3-0.7-0.6c0-0.4,0.3-0.7,0.6-0.7c0,0,0,0,0,0h0C99.7,51.7,100,51.9,100,52.3
		C100,52.3,100,52.3,100,52.3 M101.9,52.3c0,0.4-0.3,0.7-0.6,0.7c-0.4,0-0.7-0.3-0.7-0.6c0-0.4,0.3-0.7,0.6-0.7c0,0,0,0,0,0h0
		C101.6,51.7,101.9,51.9,101.9,52.3C101.9,52.3,101.9,52.3,101.9,52.3 M96.1,54.1c0,0.4-0.3,0.6-0.6,0.7c-0.4,0-0.6-0.3-0.7-0.6
		c0-0.4,0.3-0.6,0.6-0.7h0C95.8,53.5,96.1,53.8,96.1,54.1C96.1,54.1,96.1,54.1,96.1,54.1 M98,54.1c0,0.4-0.3,0.6-0.6,0.7
		c-0.4,0-0.6-0.3-0.7-0.6c0-0.4,0.3-0.6,0.6-0.7h0C97.7,53.5,98,53.8,98,54.1C98,54.1,98,54.1,98,54.1 M100,54.1
		c0,0.4-0.3,0.7-0.6,0.7c-0.4,0-0.7-0.3-0.7-0.6c0-0.4,0.3-0.7,0.6-0.7c0,0,0,0,0,0l0,0C99.7,53.5,100,53.8,100,54.1
		C100,54.1,100,54.1,100,54.1 M101.9,54.1c0,0.4-0.3,0.7-0.6,0.7c-0.4,0-0.7-0.3-0.7-0.6c0-0.4,0.3-0.7,0.6-0.7c0,0,0,0,0,0l0,0
		C101.6,53.5,101.9,53.8,101.9,54.1C101.9,54.1,101.9,54.1,101.9,54.1 M103.8,54.1c0,0.4-0.3,0.6-0.6,0.7c-0.4,0-0.6-0.3-0.7-0.6
		c0-0.4,0.3-0.6,0.6-0.7h0C103.5,53.5,103.8,53.8,103.8,54.1C103.8,54.1,103.8,54.1,103.8,54.1 M92.2,56c0,0.4-0.3,0.6-0.6,0.7
		c-0.4,0-0.6-0.3-0.7-0.6c0-0.4,0.3-0.6,0.6-0.7h0C91.9,55.4,92.2,55.7,92.2,56C92.2,56,92.2,56,92.2,56 M94.2,56
		c0,0.4-0.3,0.6-0.6,0.7c-0.4,0-0.6-0.3-0.7-0.6c0-0.4,0.3-0.6,0.6-0.7h0C93.9,55.4,94.1,55.7,94.2,56C94.1,56,94.1,56,94.2,56
		 M96.1,56c0,0.4-0.3,0.6-0.6,0.7c-0.4,0-0.6-0.3-0.7-0.6c0-0.4,0.3-0.6,0.6-0.7h0C95.8,55.4,96.1,55.7,96.1,56
		C96.1,56,96.1,56,96.1,56 M101.9,56c0,0.4-0.3,0.7-0.6,0.7c-0.4,0-0.7-0.3-0.7-0.6c0-0.4,0.3-0.7,0.6-0.7c0,0,0,0,0,0h0
		C101.6,55.4,101.9,55.7,101.9,56C101.9,56,101.9,56,101.9,56 M103.8,56c0,0.4-0.3,0.6-0.6,0.7c-0.4,0-0.6-0.3-0.7-0.6
		c0-0.4,0.3-0.6,0.6-0.7h0C103.5,55.4,103.8,55.7,103.8,56C103.8,56,103.8,56,103.8,56 M105.8,56c0,0.4-0.3,0.6-0.6,0.7
		c-0.4,0-0.6-0.3-0.7-0.6c0-0.4,0.3-0.6,0.6-0.7h0C105.5,55.4,105.7,55.7,105.8,56C105.7,56,105.7,56,105.8,56 M92.2,57.8
		c0,0.4-0.3,0.6-0.6,0.7c-0.4,0-0.6-0.3-0.7-0.6c0-0.4,0.3-0.6,0.6-0.7h0C91.9,57.2,92.2,57.5,92.2,57.8
		C92.2,57.8,92.2,57.8,92.2,57.8 M94.2,57.8c0,0.4-0.3,0.6-0.6,0.7c-0.4,0-0.6-0.3-0.7-0.6c0-0.4,0.3-0.6,0.6-0.7h0
		C93.9,57.2,94.1,57.5,94.2,57.8C94.1,57.8,94.1,57.8,94.2,57.8 M96.1,57.8c0,0.4-0.3,0.6-0.6,0.7c-0.4,0-0.6-0.3-0.7-0.6
		c0-0.4,0.3-0.6,0.6-0.7h0C95.8,57.2,96.1,57.5,96.1,57.8C96.1,57.8,96.1,57.8,96.1,57.8 M101.9,57.8c0,0.4-0.3,0.7-0.6,0.7
		c-0.4,0-0.7-0.3-0.7-0.6l0,0c0-0.4,0.3-0.7,0.6-0.7c0,0,0,0,0,0l0,0C101.6,57.2,101.9,57.5,101.9,57.8
		C101.9,57.8,101.9,57.8,101.9,57.8 M103.8,57.8c0,0.4-0.3,0.6-0.6,0.7c-0.4,0-0.6-0.3-0.7-0.6c0-0.4,0.3-0.6,0.6-0.7h0
		C103.5,57.2,103.8,57.5,103.8,57.8C103.8,57.8,103.8,57.8,103.8,57.8 M105.8,57.8c0,0.4-0.3,0.6-0.6,0.7c-0.4,0-0.6-0.3-0.7-0.6
		c0-0.4,0.3-0.6,0.6-0.7h0C105.5,57.2,105.7,57.5,105.8,57.8C105.7,57.8,105.7,57.8,105.8,57.8 M92.2,59.7c0,0.4-0.3,0.6-0.6,0.7
		c-0.4,0-0.6-0.3-0.7-0.6c0-0.4,0.3-0.6,0.6-0.7h0C91.9,59,92.2,59.3,92.2,59.7C92.2,59.7,92.2,59.7,92.2,59.7 M94.2,59.7
		c0,0.4-0.3,0.6-0.6,0.7c-0.4,0-0.6-0.3-0.7-0.6c0-0.4,0.3-0.6,0.6-0.7h0C93.9,59,94.1,59.3,94.2,59.7
		C94.1,59.7,94.1,59.7,94.2,59.7 M96.1,59.7c0,0.4-0.3,0.6-0.6,0.7c-0.4,0-0.6-0.3-0.7-0.6c0-0.4,0.3-0.6,0.6-0.7h0
		C95.8,59,96.1,59.3,96.1,59.7C96.1,59.7,96.1,59.7,96.1,59.7 M92.2,61.5c0,0.4-0.3,0.6-0.6,0.7c-0.4,0-0.6-0.3-0.7-0.6
		c0-0.4,0.3-0.6,0.6-0.7h0C91.9,60.9,92.2,61.2,92.2,61.5C92.2,61.5,92.2,61.5,92.2,61.5 M94.2,61.5c0,0.4-0.3,0.6-0.6,0.7
		c-0.4,0-0.6-0.3-0.7-0.6c0-0.4,0.3-0.6,0.6-0.7h0C93.9,60.9,94.1,61.2,94.2,61.5C94.1,61.5,94.1,61.5,94.2,61.5 M96.1,61.5
		c0,0.4-0.3,0.6-0.6,0.7c-0.4,0-0.6-0.3-0.7-0.6c0-0.4,0.3-0.6,0.6-0.7h0C95.8,60.9,96.1,61.2,96.1,61.5
		C96.1,61.5,96.1,61.5,96.1,61.5 M98,61.5c0,0.4-0.3,0.6-0.6,0.7c-0.4,0-0.6-0.3-0.7-0.6c0-0.4,0.3-0.6,0.6-0.7h0
		C97.7,60.9,98,61.2,98,61.5C98,61.5,98,61.5,98,61.5 M94.2,63.4c0,0.4-0.3,0.6-0.6,0.7c-0.4,0-0.6-0.3-0.7-0.6
		c0-0.4,0.3-0.6,0.6-0.7h0C93.9,62.7,94.1,63,94.2,63.4C94.1,63.4,94.1,63.4,94.2,63.4 M96.1,63.4c0,0.4-0.3,0.6-0.6,0.7
		c-0.4,0-0.6-0.3-0.7-0.6c0-0.4,0.3-0.6,0.6-0.7h0C95.8,62.7,96.1,63,96.1,63.4C96.1,63.4,96.1,63.4,96.1,63.4 M98,63.4
		c0,0.4-0.3,0.6-0.6,0.7c-0.4,0-0.6-0.3-0.7-0.6c0-0.4,0.3-0.6,0.6-0.7h0C97.7,62.7,98,63,98,63.4C98,63.4,98,63.4,98,63.4
		 M100,63.4c0,0.4-0.3,0.7-0.6,0.7c-0.4,0-0.7-0.3-0.7-0.6c0-0.4,0.3-0.7,0.6-0.7c0,0,0,0,0,0l0,0C99.7,62.7,100,63,100,63.4
		C100,63.4,100,63.4,100,63.4 M96.1,65.2c0,0.4-0.3,0.6-0.6,0.7c-0.4,0-0.6-0.3-0.7-0.6c0-0.4,0.3-0.6,0.6-0.7h0
		C95.8,64.6,96.1,64.9,96.1,65.2C96.1,65.2,96.1,65.2,96.1,65.2 M98,65.2c0,0.4-0.3,0.6-0.6,0.7c-0.4,0-0.6-0.3-0.7-0.6
		c0-0.4,0.3-0.6,0.6-0.7h0C97.7,64.6,98,64.9,98,65.2C98,65.2,98,65.2,98,65.2 M100,65.2c0,0.4-0.3,0.7-0.6,0.7
		c-0.4,0-0.7-0.3-0.7-0.6l0,0c0-0.4,0.3-0.7,0.6-0.7c0,0,0,0,0,0l0,0C99.7,64.6,100,64.9,100,65.2C100,65.2,100,65.2,100,65.2
		 M101.9,65.2c0,0.4-0.3,0.7-0.6,0.7c-0.4,0-0.7-0.3-0.7-0.6l0,0c0-0.4,0.3-0.7,0.6-0.7c0,0,0,0,0,0l0,0
		C101.6,64.6,101.9,64.9,101.9,65.2C101.9,65.2,101.9,65.2,101.9,65.2 M98,67.1c0,0.4-0.3,0.6-0.6,0.7c-0.4,0-0.6-0.3-0.7-0.6
		c0-0.4,0.3-0.6,0.6-0.7h0C97.7,66.4,98,66.7,98,67.1C98,67.1,98,67.1,98,67.1 M100,67.1c0,0.4-0.3,0.7-0.6,0.7
		c-0.4,0-0.7-0.3-0.7-0.6l0,0c0-0.4,0.3-0.7,0.6-0.7c0,0,0,0,0,0l0,0C99.7,66.4,100,66.7,100,67.1C100,67.1,100,67.1,100,67.1
		 M101.9,67.1c0,0.4-0.3,0.7-0.6,0.7c-0.4,0-0.7-0.3-0.7-0.6l0,0c0-0.4,0.3-0.7,0.6-0.7c0,0,0,0,0,0l0,0
		C101.6,66.4,101.9,66.7,101.9,67.1C101.9,67.1,101.9,67.1,101.9,67.1 M103.8,67.1c0,0.4-0.3,0.6-0.6,0.7c-0.4,0-0.6-0.3-0.7-0.6
		c0-0.4,0.3-0.6,0.6-0.7h0C103.5,66.4,103.8,66.7,103.8,67.1C103.8,67.1,103.8,67.1,103.8,67.1 M100,68.9c0,0.4-0.3,0.7-0.6,0.7
		c-0.4,0-0.7-0.3-0.7-0.6l0,0c0-0.4,0.3-0.7,0.6-0.7c0,0,0,0,0,0h0C99.7,68.3,100,68.6,100,68.9C100,68.9,100,68.9,100,68.9
		 M101.9,68.9c0,0.4-0.3,0.7-0.6,0.7c-0.4,0-0.7-0.3-0.7-0.6l0,0c0-0.4,0.3-0.7,0.6-0.7c0,0,0,0,0,0h0
		C101.6,68.3,101.9,68.6,101.9,68.9C101.9,68.9,101.9,68.9,101.9,68.9 M103.8,68.9c0,0.4-0.3,0.6-0.6,0.7c-0.4,0-0.6-0.3-0.7-0.6
		c0-0.4,0.3-0.6,0.6-0.7h0C103.5,68.3,103.8,68.6,103.8,68.9C103.8,68.9,103.8,68.9,103.8,68.9 M105.8,68.9c0,0.4-0.3,0.6-0.6,0.7
		c-0.4,0-0.6-0.3-0.7-0.6c0-0.4,0.3-0.6,0.6-0.7h0C105.5,68.3,105.7,68.6,105.8,68.9C105.7,68.9,105.7,68.9,105.8,68.9 M92.2,70.8
		c0,0.4-0.3,0.6-0.6,0.7c-0.4,0-0.6-0.3-0.7-0.6c0-0.4,0.3-0.6,0.6-0.7h0C91.9,70.1,92.2,70.4,92.2,70.8
		C92.2,70.8,92.2,70.8,92.2,70.8 M94.2,70.8c0,0.4-0.3,0.6-0.6,0.7c-0.4,0-0.6-0.3-0.7-0.6c0-0.4,0.3-0.6,0.6-0.7h0
		C93.9,70.1,94.1,70.4,94.2,70.8C94.1,70.8,94.1,70.8,94.2,70.8 M96.1,70.8c0,0.4-0.3,0.6-0.6,0.7c-0.4,0-0.6-0.3-0.7-0.6
		c0-0.4,0.3-0.6,0.6-0.7h0C95.8,70.1,96.1,70.4,96.1,70.8C96.1,70.8,96.1,70.8,96.1,70.8 M101.9,70.8c0,0.4-0.3,0.7-0.6,0.7
		c-0.4,0-0.7-0.3-0.7-0.6l0,0c0-0.4,0.3-0.7,0.6-0.7c0,0,0,0,0,0l0,0C101.6,70.1,101.9,70.4,101.9,70.8
		C101.9,70.8,101.9,70.8,101.9,70.8 M103.8,70.8c0,0.4-0.3,0.6-0.6,0.7c-0.4,0-0.6-0.3-0.7-0.6c0-0.4,0.3-0.6,0.6-0.7h0
		C103.5,70.1,103.8,70.4,103.8,70.8C103.8,70.8,103.8,70.8,103.8,70.8 M105.8,70.8c0,0.4-0.3,0.6-0.6,0.7c-0.4,0-0.6-0.3-0.7-0.6
		c0-0.4,0.3-0.6,0.6-0.7h0C105.5,70.1,105.7,70.4,105.8,70.8C105.7,70.8,105.7,70.8,105.8,70.8 M92.2,72.6c0,0.4-0.3,0.6-0.6,0.7
		c-0.4,0-0.6-0.3-0.7-0.6c0-0.4,0.3-0.6,0.6-0.7h0C91.9,72,92.2,72.3,92.2,72.6C92.2,72.6,92.2,72.6,92.2,72.6 M94.2,72.6
		c0,0.4-0.3,0.6-0.6,0.7c-0.4,0-0.6-0.3-0.7-0.6c0-0.4,0.3-0.6,0.6-0.7h0C93.9,72,94.1,72.3,94.2,72.6
		C94.1,72.6,94.1,72.6,94.2,72.6 M96.1,72.6c0,0.4-0.3,0.6-0.6,0.7c-0.4,0-0.6-0.3-0.7-0.6c0-0.4,0.3-0.6,0.6-0.7h0
		C95.8,72,96.1,72.3,96.1,72.6C96.1,72.6,96.1,72.6,96.1,72.6 M101.9,72.6c0,0.4-0.3,0.7-0.6,0.7c-0.4,0-0.7-0.3-0.7-0.6l0,0
		c0-0.4,0.3-0.7,0.6-0.7c0,0,0,0,0,0l0,0C101.6,72,101.9,72.3,101.9,72.6C101.9,72.6,101.9,72.6,101.9,72.6 M103.8,72.6
		c0,0.4-0.3,0.6-0.6,0.7c-0.4,0-0.6-0.3-0.7-0.6c0-0.4,0.3-0.6,0.6-0.7h0C103.5,72,103.8,72.3,103.8,72.6
		C103.8,72.6,103.8,72.6,103.8,72.6 M105.8,72.6c0,0.4-0.3,0.6-0.6,0.7c-0.4,0-0.6-0.3-0.7-0.6c0-0.4,0.3-0.6,0.6-0.7h0
		C105.4,72,105.7,72.3,105.8,72.6C105.7,72.6,105.7,72.6,105.8,72.6 M92.2,74.5c0,0.4-0.3,0.6-0.6,0.7c-0.4,0-0.6-0.3-0.7-0.6
		c0-0.4,0.3-0.6,0.6-0.7h0C91.9,73.8,92.2,74.1,92.2,74.5C92.2,74.5,92.2,74.5,92.2,74.5 M94.2,74.5c0,0.4-0.3,0.6-0.6,0.7
		c-0.4,0-0.6-0.3-0.7-0.6c0-0.4,0.3-0.6,0.6-0.7h0C93.9,73.8,94.1,74.1,94.2,74.5C94.1,74.5,94.1,74.5,94.2,74.5 M96.1,74.5
		c0,0.4-0.3,0.6-0.6,0.7c-0.4,0-0.6-0.3-0.7-0.6c0-0.4,0.3-0.6,0.6-0.7h0C95.8,73.8,96.1,74.1,96.1,74.5
		C96.1,74.5,96.1,74.5,96.1,74.5 M101.9,74.5c0,0.4-0.3,0.7-0.6,0.7c-0.4,0-0.7-0.3-0.7-0.6c0-0.4,0.3-0.7,0.6-0.7c0,0,0,0,0,0l0,0
		C101.6,73.8,101.9,74.1,101.9,74.5C101.9,74.5,101.9,74.5,101.9,74.5 M103.8,74.5c0,0.4-0.3,0.6-0.6,0.7c-0.4,0-0.6-0.3-0.7-0.6
		c0-0.4,0.3-0.6,0.6-0.7h0C103.5,73.8,103.8,74.1,103.8,74.5C103.8,74.5,103.8,74.5,103.8,74.5 M105.8,74.5c0,0.4-0.3,0.6-0.6,0.7
		c-0.4,0-0.6-0.3-0.7-0.6c0-0.4,0.3-0.6,0.6-0.7h0C105.5,73.8,105.7,74.1,105.8,74.5C105.7,74.5,105.7,74.5,105.8,74.5 M94.2,76.3
		c0,0.4-0.3,0.6-0.6,0.7c-0.4,0-0.6-0.3-0.7-0.6c0-0.4,0.3-0.6,0.6-0.7h0C93.9,75.7,94.1,76,94.2,76.3
		C94.1,76.3,94.1,76.3,94.2,76.3 M96.1,76.3c0,0.4-0.3,0.6-0.6,0.7c-0.4,0-0.6-0.3-0.7-0.6c0-0.4,0.3-0.6,0.6-0.7h0
		C95.8,75.7,96.1,76,96.1,76.3C96.1,76.3,96.1,76.3,96.1,76.3 M98,76.3c0,0.4-0.3,0.6-0.6,0.7c-0.4,0-0.6-0.3-0.7-0.6
		c0-0.4,0.3-0.6,0.6-0.7h0C97.7,75.7,98,76,98,76.3C98,76.3,98,76.3,98,76.3 M100,76.3c0,0.4-0.3,0.7-0.6,0.7
		c-0.4,0-0.7-0.3-0.7-0.6c0-0.4,0.3-0.7,0.6-0.7c0,0,0,0,0,0l0,0C99.7,75.7,100,76,100,76.3C100,76.3,100,76.3,100,76.3 M101.9,76.3
		c0,0.4-0.3,0.7-0.6,0.7c-0.4,0-0.7-0.3-0.7-0.6c0-0.4,0.3-0.7,0.6-0.7c0,0,0,0,0,0l0,0C101.6,75.7,101.9,76,101.9,76.3
		C101.9,76.3,101.9,76.3,101.9,76.3 M103.8,76.3c0,0.4-0.3,0.6-0.6,0.7c-0.4,0-0.6-0.3-0.7-0.6c0-0.4,0.3-0.6,0.6-0.7h0
		C103.5,75.7,103.8,76,103.8,76.3C103.8,76.3,103.8,76.3,103.8,76.3 M96.1,78.2c0,0.4-0.3,0.6-0.6,0.7c-0.4,0-0.6-0.3-0.7-0.6
		c0-0.4,0.3-0.6,0.6-0.7h0C95.8,77.5,96.1,77.8,96.1,78.2C96.1,78.2,96.1,78.2,96.1,78.2 M98,78.2c0,0.4-0.3,0.6-0.6,0.7
		c-0.4,0-0.6-0.3-0.7-0.6c0-0.4,0.3-0.6,0.6-0.7h0C97.7,77.5,98,77.8,98,78.2C98,78.2,98,78.2,98,78.2 M100,78.2
		c0,0.4-0.3,0.7-0.6,0.7c-0.4,0-0.7-0.3-0.7-0.6l0,0c0-0.4,0.3-0.7,0.6-0.7c0,0,0,0,0,0h0C99.7,77.5,100,77.8,100,78.2
		C100,78.2,100,78.2,100,78.2 M101.9,78.2c0,0.4-0.3,0.7-0.6,0.7c-0.4,0-0.7-0.3-0.7-0.6l0,0c0-0.4,0.3-0.7,0.6-0.7c0,0,0,0,0,0h0
		C101.6,77.5,101.9,77.8,101.9,78.2C101.9,78.2,101.9,78.2,101.9,78.2 M71.5,52.3c-0.3,0-0.4,0-0.4,0.4v25.2c0,0.4,0.1,0.4,0.4,0.4
		h3.7c0.3,0,0.4,0,0.4-0.4V52.7c0-0.4-0.1-0.4-0.4-0.4H71.5z M75.3,79h-3.7c-0.5,0.1-1.1-0.3-1.2-0.8c0-0.1,0-0.2,0-0.3V52.7
		c-0.1-0.5,0.3-1.1,0.8-1.2c0.1,0,0.2,0,0.3,0h3.7c0.5-0.1,1.1,0.3,1.2,0.8c0,0.1,0,0.2,0,0.3v25.2c0.1,0.5-0.3,1.1-0.8,1.1
		C75.5,79,75.4,79,75.3,79z M77.6,65.1c0.1-0.7,0.2-1.5,0.4-2.2l3-10.2c0.1-0.5,0.6-0.8,1.1-0.8h3.6c0.7,0,0.8,0.3,0.7,0.8
		l-3.5,10.9c-0.3,0.8-0.3,1.6,0,2.4l3.8,11.7c0.2,0.6,0,0.8-0.7,0.8h-3.8c-0.5,0.1-1-0.3-1.1-0.8L78,67.2
		C77.8,66.5,77.7,65.8,77.6,65.1 M60.1,77.7c-0.2-0.9-0.4-1.8-0.3-2.7v-0.6l1.1,3.9h-0.2C60.5,78.3,60.3,78.3,60.1,77.7
		C60.1,77.6,60.1,77.7,60.1,77.7z M58.6,67.9l-1.1-3.7c0.3,0,0.5-0.1,0.8-0.2l4.2,14.2h-0.8l-1.9-6.6v-1.2
		C59.9,69.4,59.5,68.5,58.6,67.9C58.7,67.9,58.6,67.9,58.6,67.9z M57,67.6l-1-3.4h0.8l1,3.4L57,67.6C57,67.6,57,67.6,57,67.6z
		 M55.5,67.8l-4.4-15.1c0.2-0.2,0.4-0.3,0.7-0.3l4.5,15.3h-0.1C55.9,67.6,55.7,67.7,55.5,67.8z M50.8,77.8v-2.2l0.8,2.7h-0.4
		C50.9,78.2,50.8,78.2,50.8,77.8C50.8,77.9,50.8,77.8,50.8,77.8z M50.8,56.9v-2.5l4.3,14.7v2.6C55.1,71.7,50.8,57,50.8,56.9z
		 M50.8,62.2v-2.5l4.3,14.7V77C55.1,77,50.8,62.2,50.8,62.2z M53.2,78.2h-0.8l-1.6-5.4v-2.6L53.2,78.2z M50.8,67.6V65l3.9,13.2H54
		L50.8,67.6z M58,52.3l3.7,12.7c-0.3,0.1-0.5,0.4-0.5,0.7c0,0.3,0.2,0.5,0.5,0.6l0.4,0.2l1.9,6.6v1.6c0,0.4,0,0.8,0.1,1.2l-4.6-15.5
		v-2c0.1-1-0.4-1.9-1.2-2.3l-1.1-3.9L58,52.3C58,52.3,58,52.3,58,52.3z M63.9,58.6v0.5l-1.6-5.4C63.4,54.7,63.9,56.4,63.9,58.6z
		 M60.5,52.6c0.3,0.1,0.6,0.2,0.9,0.4l2.5,8.6c-0.1,0.5-0.2,1-0.3,1.4L60.5,52.6z M62.4,64.6l-3.6-12.3c0.3,0,0.5,0.1,0.8,0.1L63,64
		C62.8,64.2,62.6,64.4,62.4,64.6C62.4,64.6,62.4,64.6,62.4,64.6z M64.1,70.4l-0.9-3C63.9,68.3,64.2,69.4,64.1,70.4z M59.5,62.7
		L64,78.2h-0.7L59,63.6C59.2,63.3,59.4,63,59.5,62.7L59.5,62.7L59.5,62.7z M55.2,58.5v2.6l-2.6-8.8h0.8
		C53.4,52.3,55.2,58.5,55.2,58.5z M56,56c-0.3,0-0.5,0.1-0.7,0.3l-1.2-4h0.8L56,56z M56.8,56l-1.1-3.7h0.8l1.1,3.7H56.8z M57.2,63.5
		h-1.1c-0.1,0-0.2,0-0.3-0.1c0-0.1,0-0.1,0-0.2V57c0-0.1,0-0.2,0-0.2c0.1,0,0.1,0,0.2,0h1.2c1.1,0,1.5,0.5,1.5,1.7v3.2
		c0.2,0.8-0.3,1.6-1.1,1.7C57.5,63.5,57.3,63.5,57.2,63.5C57.2,63.4,57.2,63.5,57.2,63.5z M65.2,77.6c-0.2-0.9-0.3-1.9-0.3-2.9v-4.1
		c0-2.6-0.8-4-2.7-4.9c1.7-0.8,2.5-2.7,2.5-5.5v-1.5c0-4.8-2.2-7.2-6.9-7.2h-5.5c-1.5,0-2.2,0.7-2.2,2.2v24.1
		c-0.1,0.5,0.3,1.1,0.8,1.1c0.1,0,0.2,0,0.3,0h3.6c0.5,0.1,1.1-0.3,1.1-0.9c0-0.1,0-0.2,0-0.3v-9.2c0-0.1,0-0.2,0-0.2
		c0.1,0,0.1,0,0.2,0h1.3c0.8,0,1.6,0.2,1.6,2v4.5c0,1,0.1,2,0.4,2.9c0.1,0.7,0.7,1.2,1.4,1.1h3.3c0.3,0,0.7-0.1,0.9-0.3
		C65.2,78.4,65.2,78,65.2,77.6C65.1,77.7,65.2,77.6,65.2,77.6z M85.9,25.6c-12.1,0-22,9.6-22.5,21.7c0.2,0.5-0.1,1.1-0.6,1.3
		c-0.5,0.2-1.1-0.1-1.3-0.6c-0.1-0.2-0.1-0.5,0-0.7c0.4-13.4,11.6-24,25-23.6c12.9,0.4,23.3,10.7,23.6,23.6c0.2,0.5-0.1,1.1-0.6,1.3
		c-0.5,0.2-1.1-0.1-1.3-0.6c-0.1-0.2-0.1-0.5,0-0.7C107.9,35.2,98,25.6,85.9,25.6">
  </path>
  <path class="st6" d="M86,4.7c-23.7,0-43,19-43.4,42.7c0.2,0.5-0.1,1.1-0.6,1.3c-0.5,0.2-1.1-0.1-1.3-0.6c-0.1-0.2-0.1-0.5,0-0.7
		C41.2,22.3,61.9,2.4,87,3c24.3,0.5,43.8,20.1,44.3,44.3c0.2,0.5-0.1,1.1-0.6,1.3s-1.1-0.1-1.3-0.6c-0.1-0.2-0.1-0.5,0-0.7
		C129,23.6,109.7,4.7,86,4.7">
  </path>
  <path class="st6" d="M52.2,43.7l0.2-1.1c0.2-1,0.5-1.3,1.2-1.2c0.3,0,0.5,0.2,0.6,0.5c0.1,0.3,0.1,0.6,0,0.9L54,44L52.2,43.7z
		 M48.8,42.3c0-0.6,0.4-1,0.9-1.1h0.1c0.2,0,0.5,0.2,0.6,0.3c0.2,0.3,0.2,0.7,0.1,1l-0.1,0.8L48.7,43C48.7,43,48.8,42.3,48.8,42.3z
		 M54,39.4c-0.1,0-0.3,0-0.4,0c-0.8,0-1.5,0.4-1.9,1.1c-0.2-0.7-0.8-1.2-1.6-1.3c-1.6-0.2-2.5,0.7-2.9,2.9l-0.5,2.8l8.7,1.4l0.6-3.6
		c0.2-0.8,0-1.7-0.4-2.4C55.2,39.8,54.6,39.5,54,39.4C54,39.4,54,39.4,54,39.4z M56.6,31.3l-4.7-2.2L51,31l4.6,2.2
		c1.2,0.6,1.5,1.2,1.1,2.2c-0.2,0.6-0.7,1-1.2,1c-0.4,0-0.8-0.1-1.1-0.3l-4.5-2.2l-0.9,1.8l4.7,2.2c0.5,0.3,1.1,0.4,1.8,0.4
		c1.4,0,2.5-0.9,3-2.2c0.5-0.9,0.6-2,0.2-2.9C58.1,32.4,57.5,31.8,56.6,31.3 M53.7,26.5l1.2-1.6l7,5.3l-1.2,1.6L53.7,26.5z M63.5,26
		l-4.9-5.1l-1.5,1.4l6.1,6.3l0,0l3.7-3.6l-1.2-1.3L63.5,26z M69.2,21.6l-0.5,0.3l-2.8-4.6l0.3-0.2c0.5-0.4,1.1-0.6,1.7-0.6
		c0.9,0,1.7,0.6,2.2,1.4c0.8,1.1,0.5,2.7-0.6,3.4C69.4,21.4,69.3,21.5,69.2,21.6 M72,17c-0.7-1.4-2-2.3-3.5-2.4
		c-1.1,0.1-2.2,0.4-3.1,1l-2.1,1.2l4.6,7.6l2.6-1.5c2-1,2.8-3.5,1.8-5.5C72.2,17.3,72.1,17.1,72,17 M75.4,14.7l3.1-0.8l0.4,1.6
		l-3.1,0.8L75.4,14.7z M86.7,15.2h-1.4l0.7-1.4L86.7,15.2z M86.1,9.4l-4.5,9.2h2.2l0.9-2h2.6l0.9,2h2.2l-4.2-9.1L86.1,9.4z
		 M93.1,15.6l0.4-1.6l3.1,0.8l-0.4,1.6L93.1,15.6z M103,17.7l0.9-1.6l0.7,0.4c0.3,0.2,0.6,0.4,0.7,0.7c0.1,0.2,0.1,0.4,0,0.6
		c-0.1,0.3-0.4,0.5-0.7,0.5c-0.3,0-0.6-0.1-0.8-0.3C103.8,18.1,103,17.7,103,17.7z M103.7,21.2c-0.3,0.5-0.8,0.5-1.5,0.1l-1-0.6
		l0.9-1.6l0.9,0.5C103.9,20.2,104.1,20.7,103.7,21.2L103.7,21.2z M105.3,19.8c0.7,0,1.4-0.4,1.8-1c0.8-1.4,0.2-2.6-1.7-3.7l-2.5-1.4
		l-4.4,7.6l3.1,1.8c0.5,0.3,1.1,0.5,1.8,0.5c0.8,0,1.6-0.5,2-1.2C105.9,21.6,105.8,20.5,105.3,19.8
		C105.2,19.8,105.3,19.8,105.3,19.8z M107.8,25.5l1.3-1.4l2,1.9l1.1-1.2l-2-1.9l1.2-1.3l2.3,2.1l1.2-1.2l-3.8-3.5l-6,6.5l4,3.7
		l1.2-1.3L107.8,25.5z M116.2,30.8l-0.9,1.3l-0.7-1.2C114.6,30.9,116.2,30.7,116.2,30.8z M109.8,29.5L109.8,29.5l1,1.9l2.2-0.2
		l1.3,2.2l-1.2,1.8l1.1,1.9l5.8-8.5L109.8,29.5z M121.9,41.3c-0.1,0-0.3,0-0.4,0c-0.5-0.1-0.9-0.5-1-1l-0.2-0.8l2-0.5l0.2,0.8
		c0.3,0.5,0.1,1.1-0.3,1.4C122.1,41.2,122,41.2,121.9,41.3 M124.1,39.4l-0.8-2.9l-8.5,2.3l0.5,2l3.8-1l-3.1,3.5l0.7,2.5l2.9-3.7
		c0.4,0.7,1.1,1.2,1.9,1.2c0.3,0,0.6,0,0.9-0.1C124.1,42.8,124.7,41.4,124.1,39.4 M124.6,44.8l-0.1-0.4l-1.2,0.3l-0.1-0.3l1.2-0.3
		l-0.1-0.5l0.3-0.1l0.3,1.5l-0.9,0.7l1.1,0.2l0.1,0.3l-1.4,0.5l-0.1-0.3l0.9-0.3l-0.9-0.2l-0.1-0.2l0.7-0.5l-1,0.1l-0.1-0.3
		L124.6,44.8z">
  </path>
  <path class="st7" d="M102.5,47.9c1-2.1,1.6-4.4,1.6-6.7c3.9-1.4,6-5.7,4.6-9.7c-1.4-3.9-5.7-6-9.7-4.6c-1.2,0.4-2.3,1.2-3.1,2.1
		c-1.6-0.3-3.3-0.5-4.9-0.6c-0.9-0.8-2.9-2.2-4.6-1.8c0,0-0.3,0.1,0,0.3c0.2,0.1,0.4,0.3,0.5,0.4c0.2,0.2,0.5,0.3,0.7,0.5l0.2,0.1
		c0,0.1,0,0.1,0,0.2c0,0.1-0.1,0.1-0.2,0.1c0,0-0.1,0-0.1,0c-2-0.9-4.2-1.2-6.3-0.9c-0.4,0.1-0.8,0.2-1.2,0.3
		c-0.3,0.1-0.4,0.3-0.3,0.5s1.7,0.5,2.4,0.9c-3.4,0.8-6.6,2.2-9.5,4.1c-3.8-1.8-8.3-0.3-10.1,3.5c-1.8,3.8-0.3,8.3,3.5,10.1
		c1.1,0.5,2.3,0.8,3.5,0.8c1.2,3,3.4,5.6,6.1,7.2c3.5,2.3,7.6,3.3,11.8,2.9C93.8,57.3,99.5,53.5,102.5,47.9">
  </path>
  <path class="st8" d="M93.4,44.5c-1.8-1.9-4.6-4.3-7.4-3.8s-4.6,3.7-5.6,6.2s-1.9,6.1,0.3,8s5.4,1.7,8.1,1.3s5.8-1.7,7.2-4.1
		S95.2,46.3,93.4,44.5">
  </path>
  <path class="st6" d="M86.3,42.1c-2.6,0.5-3.6,1.2-2.2,2.7c0.9,1.3,2.7,1.6,4,0.7c0.5-0.4,0.9-0.9,1.1-1.6
		C90.1,42,88.9,41.7,86.3,42.1 M91.7,50.2c0,0-0.1,0-0.2,0c-0.5,0.4-1.2,0.8-1.8,1c-0.7,0.3-1.6,0-1.9-0.7c0-0.1-0.1-0.1-0.2-0.1
		c0,0-0.1,0-0.1,0.1c-0.2,0.5-0.7,0.9-1.2,1.1c-0.3,0.1-0.7,0.1-1.1,0c-0.9-0.2-1.6-0.8-2-1.6c0-0.1-0.1-0.1-0.2-0.1
		c-0.1,0-0.1,0-0.2,0.1c0.2,1.3,1.6,2.2,2.9,2.5c0.3,0.1,0.6,0.1,0.8,0.1c0.3,0,0.6,0,0.9,0c0.4,0,0.8-0.1,1.1-0.2
		c1.2-0.3,2.3-1,3-2C91.7,50.3,91.7,50.3,91.7,50.2C91.7,50.3,91.7,50.2,91.7,50.2 M79.5,34.9c-0.1,0-0.1,0-0.2,0.1
		c-1.1,0.5-1.7,1.7-1.4,2.9c0,0,0.1,0,0.1,0c0,0,0.1,0,0.1-0.1c0.4-0.8,1-1.5,1.8-2c0.2-0.2,0.3-0.5,0.2-0.7
		C79.9,34.9,79.6,34.8,79.5,34.9 M90.2,33c0.1,0,0.1,0,0.2,0c1.2,0.1,2.2,1,2.3,2.2c0,0,0,0,0,0c0,0-0.1,0-0.1,0c0,0-0.1,0-0.1,0
		c-0.7-0.6-1.5-1.1-2.4-1.3c-0.3-0.1-0.5-0.3-0.4-0.6C89.8,33.2,90,33,90.2,33 M67.8,36.7c-0.1-0.3-0.4-0.4-0.7-0.3c0,0-0.1,0-0.1,0
		c-1,0.6-1.7,1.8-1.7,3c0,0.6,0.1,1.2,0.2,1.8c0,0.1,0.1,0.1,0.2,0.1c0.1,0,0.1-0.1,0.2-0.2c0-1.5,0.7-3,1.8-4
		C67.9,37.1,67.9,36.9,67.8,36.7 M101.7,30.6c0-0.3,0.3-0.5,0.6-0.5c0,0,0.1,0,0.1,0c1.2,0.2,2.2,1.1,2.6,2.2
		c0.2,0.6,0.4,1.2,0.4,1.8c0,0.1-0.1,0.1-0.1,0.2c-0.1,0-0.2,0-0.2-0.1c-0.5-1.4-1.7-2.6-3.1-3.1C101.8,30.9,101.7,30.7,101.7,30.6">
  </path>
  <path class="st8" d="M90,36.7c0.8,0.1,1.4,0.7,1.5,1.5c0.3,0.8-0.1,1.7-0.9,2c0,0-0.1,0-0.1,0c-0.8-0.1-1.4-0.7-1.5-1.5
		c-0.3-0.8,0.1-1.7,0.9-2C89.9,36.8,90,36.7,90,36.7 M81.1,38.3c0.8,0.1,1.4,0.7,1.5,1.5c0.3,0.8-0.1,1.7-0.9,2c0,0-0.1,0-0.1,0
		c-0.8,0-1.5-0.7-1.5-1.5c-0.3-0.8,0.1-1.7,0.9-2C80.9,38.3,81,38.3,81.1,38.3">
  </path>
  <path class="st6" d="M81.5,41.4c-0.6-0.1-1-0.6-1.1-1.2c0.1,0.1,0.2,0.1,0.3,0.2c0.4-0.1,0.6-0.4,0.6-0.8c0-0.3-0.1-0.6-0.3-0.8
		c0.6,0.1,1.1,0.6,1.1,1.2C82.3,40.5,82,41.2,81.5,41.4L81.5,41.4 M90.4,39.8c-0.6-0.1-1-0.6-1.1-1.2c0.1,0.1,0.2,0.2,0.3,0.2
		c0.4-0.1,0.6-0.4,0.6-0.8c0-0.3-0.1-0.6-0.3-0.8c0.6,0.1,1.1,0.5,1.1,1.1C91.2,38.9,90.9,39.6,90.4,39.8L90.4,39.8">
  </path>
 </g>
</svg>