<svg version="1.1" id="Layer_1" xmlns="http://www.w3.org/2000/svg" xmlns:xlink="http://www.w3.org/1999/xlink" x="0px" y="0px" viewBox="0 0 264.7 47.6" style="enable-background:new 0 0 264.7 47.6;" xml:space="preserve">
 <style type="text/css">
  .st0{clip-path:url(#SVGID_2_);fill:#037AB8;}
 </style>
 <g>
  <g>
   <defs>
    <rect id="SVGID_1_" width="264.7" height="47.6">
    </rect>
   </defs>
   <clipPath id="SVGID_2_">
    <use href="#SVGID_1_" style="overflow:visible;">
    </use>
   </clipPath>
   <path class="st0" d="M254.8,29.7v9c-2,1.4-4,1.5-5.4,0.4c-1.5-1.3-1.9-3.7-0.8-5.9L254.8,29.7z M262.6,39.3l-0.5-0.1
			c-0.4-0.1-1.1-1-1.1-2.5l0-11.7c0-3.4-1.1-6-3-7.5c-1.8-1.3-4.3-1.5-7.2-0.6c-3.4,1.1-8.6,5.6-9.4,6.6l-0.2,0.2l0.1,0.3
			c0.1,0.3,0.5,0.9,0.7,1.1l0.2,0.1h5.7c0,0,0-1.4,0-1.6c0-2.3,1.5-3.4,2.8-3.7c1.3-0.2,2.2-0.1,2.8,0.4c0.9,0.7,1.3,2.4,1.3,4.8
			l0,1.5l-12,5.3l-0.2,0.1l-0.1,0.2c-1.1,3.4-0.9,5.9,0.7,7.7c2.5,2.7,8.5,3.1,17.3,1.1c0.7-0.2,2.1-0.3,2.1-0.3
			C262.6,41,262.6,39.3,262.6,39.3L262.6,39.3z M219.1,36.3c-1.4,2.5-4.4,3.9-6.7,3.2c-2.3-0.7-3.6-3.1-3.6-7V21.9l0.3-0.1
			c1.4-0.7,4-2.1,7.5-0.3c1.9,1,3.3,2.8,4,5C221.5,29.6,220.9,33.2,219.1,36.3L219.1,36.3z M226.1,22.5c-1.8-3.2-4.1-5.1-6.9-5.8
			c-3.9-1-7.9,0.8-10.3,2.2l0-15.3l-0.8-0.5l-8.4,1.7v1.4c0,0,1.4,1.1,1.6,1.3c1,1.1,1,2.7,1,3.7l0,28.7v0.4l0.3,0.2
			c4.8,2.5,11.1,2.8,15.7,0.9c5.1-2.2,7.3-5.8,8.3-8.4C228,28.9,227.3,24.8,226.1,22.5L226.1,22.5z M230.8,42.1V24.3
			c0-1,0-2.6-1-3.7c-0.2-0.2-1.6-1.3-1.6-1.3V18l8.4-1.7l0.7,0.5l0,19.8c0.1,2.2,0.8,3.4,2.2,3.7l0.4,0.1v1.7H230.8z M230.4,8.4
			c0-4.5,6.8-4.5,6.8,0C237.2,12.9,230.4,12.9,230.4,8.4L230.4,8.4z M104.2,39.8c-5.1,0-6.5-4-6.5-10.5c0-4.8,1.4-10.5,6.5-10.5
			c5.1,0,6.5,5.7,6.5,10.5C110.7,35.8,109.3,39.8,104.2,39.8L104.2,39.8z M118,29.4c0-3.9-1.2-7.2-3.6-9.5c-2.5-2.5-6-3.8-10.2-3.8
			c-7.9,0-13.8,5.7-13.8,13.3c0,8.1,5.4,13.3,13.8,13.3c4,0,7.5-1.3,10-3.9C116.6,36.4,118,33,118,29.4L118,29.4z M199.5,40.2
			c-1.4-0.3-2.2-1.6-2.2-3.7l0-12c0-2.8-1.4-8-6.9-8c-4.1,0-6.8,2.4-8.1,3.7c-0.9-1.9-2.6-3.7-5.9-3.7c-2.6,0-5,1-7.2,2.9v-2.5
			l-0.7-0.5l-8.4,1.7v1.4c0,0,1.4,1.1,1.6,1.3c1.1,1.1,1.1,2.8,1.1,3.8v17.6h9.1v-1.7l-0.5-0.1c-1.4-0.3-2.2-1.6-2.2-3.7V22.5
			c1.6-1.4,3.2-1.6,4.9-1.5c1.4,0.1,2.8,1.1,2.8,6.1l0,15h9.1v-1.7l-0.4-0.1c-1.5-0.3-2.2-1.6-2.2-3.7v-12c0-0.3-0.1-1.3-0.2-2
			c1.6-1.4,3.2-1.7,5-1.5c1.4,0.1,2.8,1.1,2.8,6.1v15l9.1,0v-1.7L199.5,40.2z M158,40.2c-1.5-0.4-2.3-1.6-2.3-3.7l0-19.7l-0.7-0.5
			l-8.4,1.7v1.4c0,0,1.4,1.1,1.6,1.3c1.1,1.1,1.1,2.8,1.1,3.8v11.7c-2.7,2.1-5.3,2.8-7,2c-1.4-0.7-2.2-2.3-2.2-4.6V16.9l-0.8-0.5
			l-8.4,1.7v1.4c0,0,1.4,1.1,1.6,1.3c1.1,1.1,1.1,2.8,1.1,3.8v10c0.1,1.9,0.2,2.6,0.4,3.4c0.5,2.1,1.8,3.7,3.6,4.3
			c3,1.1,7.2,0,11.7-2.9v2.7h9.2v-1.7L158,40.2z M121,42.3v-31c0-1,0-2.7-1.1-3.8c-0.5-0.4-1-0.9-1.6-1.3V4.9l8.4-1.7l0.8,0.5
			c0,0,0,32.8,0,33.3c0.1,3.2,2.3,3.4,2.3,3.4v2L121,42.3L121,42.3z M87.8,32.8c0.2,0.3,1.2,1.8,1.2,1.8c-0.6,2.3-2,5.4-2,5.4
			L86.8,40c-5.5,2.2-13.9,4-23,0.3c-5.4-2.2-9.3-6.5-10.9-12c-1.6-5.8-0.5-12,3-16.8c3.9-5.3,10.2-8.2,18.8-8.7
			c3.2-0.2,9.9,0.7,13.5,2.8l0.3,0.2c0,0,0.1,9,0,9.4l-0.1,0.4l-2.7,0.1l-0.1-0.8c-0.5-2.6-1.6-9.6-11.4-9.1
			c-4.2,0.2-7.5,2.3-10.1,5.6c-3,4-4,9.6-2.6,15.7c1.3,5.9,5.8,9.7,9.3,11.1c1.5,0.6,6.1,1.6,9.6,0C83.5,36.8,86.4,34.5,87.8,32.8
			L87.8,32.8z M34,39.3c1.3-1.3,1.3-3.4,0-4.6L33,33.6c-1.3-1.3-3.4-1.3-4.6,0L21,41c-1.3,1.3-1.3,3.4,0,4.6l1.1,1.1
			c1.3,1.3,3.4,1.3,4.6,0L34,39.3z M27.4,32.6c1.3-1.3,1.3-3.4,0-4.6l-1.1-1.1c-1.3-1.3-3.3-1.3-4.6,0l-7.4,7.4
			c-1.3,1.3-1.3,3.3,0,4.6l1.1,1.1c1.3,1.3,3.3,1.3,4.6,0L27.4,32.6z M34,13.3c1.3-1.3,1.3-3.3,0-4.6L33,7.6c-1.3-1.3-3.3-1.3-4.6,0
			L20.9,15c-1.3,1.3-1.3,3.4,0,4.6l1.1,1.1c1.3,1.3,3.4,1.3,4.6,0L34,13.3z M27.4,6.7c1.3-1.3,1.3-3.4,0-4.6L26.3,1
			C25-0.3,23-0.3,21.7,1l-7.4,7.4c-1.3,1.3-1.3,3.4,0,4.6l1.1,1.1c1.3,1.3,3.3,1.3,4.6,0L27.4,6.7z M39.7,14c-1.3-1.3-3.3-1.3-4.6,0
			L34,15.1c-1.3,1.3-1.3,3.3,0,4.6l7.4,7.4c1.3,1.3,3.4,1.3,4.6,0l1.1-1.1c1.3-1.3,1.3-3.3,0-4.6L39.7,14z M33,20.6
			c-1.3-1.3-3.3-1.3-4.6,0l-1.1,1.1c-1.3,1.3-1.3,3.4,0,4.6l7.4,7.4c1.3,1.3,3.4,1.3,4.6,0l1.1-1.1c1.3-1.3,1.3-3.4,0-4.6L33,20.6z
			 M13.3,14.1c-1.3-1.3-3.3-1.3-4.6,0l-1.1,1.1c-1.3,1.3-1.3,3.4,0,4.6l7.4,7.4c1.3,1.3,3.4,1.3,4.6,0l1.1-1.1
			c1.3-1.3,1.3-3.4,0-4.6L13.3,14.1z M14,28.2c1.3,1.3,1.3,3.3,0,4.6L13,33.9c-1.3,1.3-3.3,1.3-4.6,0L1,26.5c-1.3-1.3-1.3-3.4,0-4.6
			L2,20.8c1.3-1.3,3.3-1.3,4.6,0L14,28.2L14,28.2z M14,28.2">
   </path>
  </g>
 </g>
</svg>