<svg width="337px" height="57px" viewBox="0 0 337 57" version="1.1" xmlns="http://www.w3.org/2000/svg" xmlns:xlink="http://www.w3.org/1999/xlink">
 <title>
  CFC1AFEC-C0CE-4E45-AE4C-96481A098B89
 </title>
 <g id="Styleguide" stroke="none" stroke-width="1" fill="none" fill-rule="evenodd">
  <g id="6_Icons" transform="translate(-291.000000, -4276.000000)" fill="#000000">
   <g id="Icons-/-Logos-/-Saks-Horizontal" transform="translate(291.000000, 4276.000000)">
    <g id="d45a1073">
     <path d="M45.4786408,29.3769231 C36.5355987,47.025 26.9381877,54.4788462 17.5588997,54.4788462 C7.08899676,54.4788462 1.30873786,47.6826923 1.30873786,38.5846154 C1.30873786,26.9653846 12.2148867,15.8942308 23.666343,14.5788462 C25.3022654,18.6346154 30.2100324,22.2519231 37.0809061,23.1288462 C37.1899676,23.8961538 37.2990291,24.5538462 37.2990291,25.4307692 C37.2990291,34.9673077 27.5925566,42.3115385 22.3576052,44.6134615 L22.9029126,45.7096154 C27.8106796,43.8461538 38.7168285,36.1730769 38.7168285,25.5403846 C38.7168285,24.7730769 38.607767,24.1153846 38.607767,23.3480769 C39.2621359,23.3480769 39.9165049,23.4576923 40.5708738,23.4576923 C43.4064725,23.4576923 46.3511327,23.1288462 49.2957929,22.4711538 C48.0961165,24.5538462 46.7873786,26.8557692 45.4786408,29.3769231 M25.8475728,14.4692308 C31.8459547,14.4692308 35.5540453,17.3192308 36.8627832,21.7038462 C30.9734628,20.8269231 26.8291262,17.9769231 25.1932039,14.5788462 C25.4113269,14.4692308 25.6294498,14.4692308 25.8475728,14.4692308 M72.7440129,1.31538462 C74.2708738,1.31538462 75.1433657,2.30192308 75.1433657,3.28846154 C75.1433657,8.33076923 66.3093851,15.1269231 55.9485437,18.9634615 C63.5828479,6.13846154 69.0359223,1.31538462 72.7440129,1.31538462 M76.4521036,3.28846154 C76.4521036,1.75384615 75.1433657,0 72.4168285,0 C66.8546926,0 59.1113269,5.80961538 50.1682848,20.8269231 C47.0055016,21.5942308 43.9517799,22.0326923 41.0071197,22.0326923 C40.0255663,22.0326923 39.1530744,22.0326923 38.2805825,21.9230769 C37.0809061,16.7711538 32.9365696,13.1538462 25.7385113,13.1538462 C25.4113269,13.1538462 25.0841424,13.1538462 24.7569579,13.1538462 C24.6478964,12.6057692 24.538835,12.0576923 24.538835,11.5096154 C24.538835,6.13846154 29.5556634,2.30192308 37.4080906,2.30192308 C44.0608414,2.30192308 48.5323625,5.7 49.8411003,6.57692308 L50.4954693,5.59038462 C49.0776699,4.49423077 44.3880259,0.876923077 37.4080906,0.876923077 C28.4650485,0.876923077 23.1210356,5.37115385 23.1210356,11.7288462 C23.1210356,12.2769231 23.2300971,12.7153846 23.2300971,13.2634615 C11.4514563,14.6884615 0,26.1980769 0,38.8038462 C0,49.5461538 7.19805825,56.1230769 18.3223301,56.1230769 C28.1378641,56.1230769 40.3527508,48.9980769 49.8411003,30.1442308 C51.5860841,26.6365385 53.2220065,23.5673077 54.8579288,20.8269231 C66.5275081,16.8807692 76.4521036,9.09807692 76.4521036,3.28846154" id="Shape">
     </path>
     <path d="M82.123301,34.6384615 C83.8682848,31.1307692 86.812945,27.7326923 89.6485437,27.7326923 C90.8482201,27.7326923 91.502589,28.5 91.502589,29.3769231 C91.502589,32.2269231 87.7944984,34.3096154 82.123301,34.6384615 M57.6935275,44.9423077 C56.3847896,44.9423077 55.5122977,44.175 55.5122977,42.2019231 C55.5122977,37.2692308 61.9469256,26.7461538 66.5275081,26.7461538 C68.1634304,26.7461538 68.9268608,27.7326923 68.9268608,29.0480769 C69.0359223,34.2 62.1650485,44.9423077 57.6935275,44.9423077 M106.98932,25.8692308 C106.98932,25.2115385 106.553074,24.6634615 105.680583,24.6634615 C104.480906,24.6634615 103.063107,25.9788462 102.954045,27.8423077 C101.1,29.925 98.3734628,33.1038462 96.0831715,36.1730769 C92.1569579,41.325 90.4119741,44.5038462 88.1216828,44.5038462 C87.5763754,44.5038462 87.1401294,44.2846154 87.1401294,43.4076923 C87.1401294,42.3115385 87.9035599,41.2153846 87.9035599,39.2423077 C87.9035599,36.5019231 85.8313916,35.8442308 83.9773463,35.7346154 L84.0864078,35.5153846 C89.1032362,34.9673077 94.7744337,33.1038462 94.7744337,28.5 C94.7744337,27.075 94.0110032,25.2115385 91.1754045,25.2115385 C88.5579288,25.2115385 86.376699,27.7326923 85.2860841,28.8288462 L85.1770227,28.7192308 C86.7038835,25.65 93.7928803,11.7288462 93.7928803,11.7288462 L89.5394822,11.7288462 C89.5394822,11.7288462 79.5058252,31.35 77.1064725,36.1730769 C75.0343042,40.2288462 71.3262136,44.7230769 68.8177994,44.7230769 C67.9453074,44.7230769 67.5090615,44.2846154 67.5090615,43.4076923 C67.5090615,41.9826923 68.7087379,39.9 69.1449838,39.0230769 C70.1265372,37.1596154 75.7977346,25.8692308 75.7977346,25.8692308 L71.6533981,25.8692308 C71.6533981,25.8692308 70.3446602,28.3903846 70.2355987,28.6096154 L70.0174757,28.5 C70.0174757,27.6230769 70.0174757,25.1019231 65.7640777,25.1019231 C59.4385113,25.1019231 51.6951456,33.7615385 51.6951456,41.325 C51.6951456,44.6134615 53.7673139,46.4769231 56.7119741,46.4769231 C60.9653722,46.4769231 63.0375405,43.0788462 64.0190939,41.7634615 L64.2372168,41.8730769 C64.1281553,42.0923077 63.9100324,42.9692308 63.9100324,43.6269231 C63.9100324,45.1615385 64.8915858,46.3673077 67.2909385,46.3673077 C71.1080906,46.3673077 73.9436893,42.6403846 74.8161812,41.5442308 L74.9252427,41.6538462 L72.9621359,45.6 L76.561165,45.6 C76.561165,45.6 80.7055016,37.3788462 81.5779935,35.8442308 C83.3229773,35.8442308 84.5226537,36.7211538 84.5226537,38.3653846 C84.5226537,39.7903846 83.6501618,40.9961538 83.6501618,43.2980769 C83.6501618,45.3807692 84.9588997,46.3673077 87.1401294,46.3673077 C90.3029126,46.3673077 91.8297735,43.8461538 96.8466019,37.1596154 C99.4640777,33.7615385 101.536246,31.0211538 103.28123,29.0480769 C103.390291,30.2538462 103.608414,31.7884615 103.608414,34.0903846 C103.608414,36.5019231 103.063107,39.2423077 102.081553,41.6538462 C101.209061,43.7365385 99.9003236,45.0519231 98.2644013,45.0519231 C97.3919094,45.0519231 96.8466019,44.6134615 96.8466019,43.9557692 C96.8466019,43.1884615 97.6100324,43.0788462 97.6100324,42.0923077 C97.6100324,41.5442308 97.2828479,40.8865385 96.192233,40.8865385 C94.9925566,40.8865385 94.2291262,41.9826923 94.2291262,43.2980769 C94.2291262,45.0519231 95.7559871,46.3673077 98.9187702,46.3673077 C103.935599,46.3673077 106.553074,43.0788462 106.553074,39.1326923 C106.553074,34.6384615 104.808091,32.3365385 104.480906,28.3903846 C105.898706,28.0615385 106.98932,27.1846154 106.98932,25.8692308" id="Shape">
     </path>
     <path d="M150.722977,21.0461538 C150.722977,22.0326923 151.486408,22.9096154 152.904207,22.9096154 C154.867314,22.9096154 156.285113,21.375 156.285113,19.8403846 C156.285113,18.9634615 155.630744,17.9769231 153.994822,17.9769231 C152.031715,17.9769231 150.722977,19.5115385 150.722977,21.0461538" id="Path">
     </path>
     <path d="M161.411003,5.7 C164.028479,5.7 165.55534,6.79615385 165.55534,8.00192308 C165.55534,9.53653846 163.810356,11.0711538 160.102265,11.0711538 C156.939482,11.0711538 154.431068,10.1942308 152.3589,9.31730769 C155.412621,6.90576923 158.466343,5.7 161.411003,5.7 M95.2106796,50.8615385 C96.628479,51.9576923 100.772816,56.0134615 109.497735,56.0134615 C123.566667,56.0134615 130.982848,46.1480769 137.526537,33.3230769 C138.508091,31.35 139.598706,29.2673077 140.68932,27.1846154 L148.432686,27.1846154 C147.123948,29.7057692 144.179288,35.625 142.761489,38.3653846 C141.561812,40.7769231 141.016505,42.2019231 141.016505,43.5173077 C141.016505,45.1615385 141.998058,46.5865385 144.397411,46.5865385 C148.323625,46.5865385 151.268285,42.75 152.031715,41.8730769 L152.140777,41.9826923 C148.977994,47.4634615 146.033333,54.5884615 139.380583,54.5884615 C138.071845,54.5884615 137.090291,54.2596154 136.872168,54.15 L136.217799,55.3557692 C136.435922,55.4653846 137.635599,56.0134615 139.707767,56.0134615 C146.033333,56.0134615 151.486408,51.0807692 156.939482,40.3384615 C159.666019,34.9673077 163.592233,27.1846154 163.592233,27.1846154 L169.917799,27.1846154 C169.917799,27.1846154 166.100647,34.6384615 164.246602,38.2557692 C163.046926,40.6673077 162.61068,42.2019231 162.61068,43.2980769 C162.61068,44.9423077 163.483172,46.4769231 166.209709,46.4769231 C169.808738,46.4769231 172.86246,42.9692308 173.953074,41.6538462 L174.062136,41.7634615 C173.62589,42.6403846 172.099029,45.7096154 172.099029,45.7096154 L175.80712,45.7096154 C175.80712,45.7096154 180.714887,36.0634615 182.132686,33.3230769 C184.313916,29.1576923 186.82233,26.5269231 189.221683,26.5269231 C190.530421,26.5269231 191.18479,27.4038462 191.18479,28.3903846 C191.18479,29.8153846 190.312298,31.35 188.458252,34.9673077 C187.040453,37.7076923 185.404531,40.4480769 185.404531,42.8596154 C185.404531,45.3807692 187.149515,46.4769231 189.221683,46.4769231 C193.802265,46.4769231 196.637864,41.6538462 197.619417,39.7903846 L196.528803,39.3519231 C195.547249,41.2153846 193.147896,44.6134615 190.639482,44.6134615 C189.657929,44.6134615 189.221683,44.0653846 189.221683,43.1884615 C189.221683,41.8730769 190.312298,39.7903846 191.839159,36.8307692 C193.802265,32.9942308 195.111003,30.9115385 195.111003,28.8288462 C195.111003,26.7461538 193.584142,24.8826923 190.530421,24.8826923 C187.912945,24.8826923 186.386084,26.1980769 185.731715,26.7461538 L185.622654,26.6365385 C186.604207,24.6634615 193.256958,11.6192308 193.256958,11.6192308 L189.00356,11.6192308 C189.00356,11.6192308 179.951456,29.3769231 176.352427,36.5019231 C174.38932,40.4480769 170.463107,44.6134615 167.954693,44.6134615 C166.973139,44.6134615 166.536893,43.9557692 166.536893,43.2980769 C166.536893,42.6403846 166.864078,41.7634615 167.409385,40.6673077 C168.827184,37.9269231 174.280259,27.1846154 174.280259,27.1846154 L177.661165,27.1846154 L178.315534,25.9788462 L174.934628,25.9788462 L177.552104,20.8269231 L173.189644,20.8269231 L170.572168,25.9788462 L164.246602,25.9788462 C164.246602,25.9788462 165.664401,23.2384615 167.082201,20.3884615 C169.917799,14.9076923 172.971521,12.3865385 175.043689,12.3865385 C175.916181,12.3865385 176.57055,12.7153846 176.57055,13.3730769 C176.57055,14.0307692 176.134304,14.25 176.134304,15.1269231 C176.134304,16.2230769 176.897735,16.7711538 178.097411,16.7711538 C179.51521,16.7711538 180.387702,15.5653846 180.387702,14.3596154 C180.387702,12.7153846 178.642718,11.0711538 175.152751,11.0711538 C168.390939,11.0711538 163.919417,18.1961538 161.520065,22.6903846 C160.538511,24.6634615 159.775081,25.9788462 159.775081,25.9788462 L156.394175,25.9788462 L155.739806,27.1846154 L159.120712,27.1846154 C159.120712,27.1846154 156.830421,31.6788462 155.412621,34.5288462 C153.013269,39.2423077 148.759871,44.7230769 146.142395,44.7230769 C145.269903,44.7230769 144.833657,44.175 144.833657,43.4076923 C144.833657,42.75 145.160841,41.7634615 145.706149,40.6673077 C147.123948,37.8173077 147.123948,37.8173077 153.231392,25.8692308 L141.234628,25.8692308 C145.488026,17.6480769 148.650809,12.4961538 151.159223,10.1942308 C152.031715,10.5230769 156.06699,12.2769231 159.993204,12.2769231 C164.791909,12.2769231 167.082201,10.4134615 167.082201,7.89230769 C167.082201,6.02884615 165.664401,4.16538462 161.411003,4.16538462 C156.06699,4.16538462 151.268285,7.01538462 149.850485,7.89230769 C143.197735,4.38461538 137.635599,0.657692308 128.692557,0.657692308 C115.059871,0.657692308 108.843366,8.65961538 108.843366,16.1134615 C108.843366,23.1288462 113.969256,26.4173077 119.42233,26.4173077 C129.346926,26.4173077 132.400647,17.7576923 133.055016,16.4423077 C132.945955,16.3326923 131.964401,15.8942308 131.85534,15.8942308 C131.091909,17.4288462 128.038188,25.1019231 119.42233,25.1019231 C113.423948,25.1019231 110.261165,21.2653846 110.261165,16.1134615 C110.261165,8.65961538 116.913916,1.97307692 128.583495,1.97307692 C137.962783,1.97307692 144.179288,6.68653846 148.432686,8.76923077 C144.397411,11.7288462 140.907443,17.3192308 136.544984,25.7596154 L130.219417,25.7596154 L129.455987,26.9653846 L135.890615,26.9653846 C134.909061,28.9384615 133.818447,30.9115385 132.945955,32.775 C125.966019,46.4769231 119.531392,54.15 108.298058,54.15 C101.645307,54.15 97.8281553,50.7519231 96.0831715,49.4365385 L95.2106796,50.8615385 Z" id="Shape">
     </path>
     <path d="M215.505502,31.7884615 C215.832686,31.35 216.268932,30.8019231 216.596117,30.3634615 C224.666667,18.6346154 233.609709,11.9480769 247.460518,7.89230769 C247.460518,8.00192308 247.569579,8.22115385 247.678641,8.33076923 C239.935275,12.4961538 230.992233,20.7173077 227.284142,31.6788462 L215.505502,31.6788462 L215.505502,31.7884615 Z M271.017799,26.6365385 C272.217476,26.6365385 272.871845,27.1846154 272.871845,28.0615385 C272.871845,30.9115385 268.182201,34.5288462 261.965696,34.5288462 C264.910356,29.7057692 268.400324,26.6365385 271.017799,26.6365385 M331.546926,26.6365385 C332.855663,26.6365385 333.400971,27.4038462 333.400971,28.0615385 C333.400971,31.0211538 328.493204,34.5288462 322.494822,34.5288462 C325.003236,30.3634615 328.602265,26.6365385 331.546926,26.6365385 M175.370874,51.4096154 C175.916181,52.0673077 179.188026,56.0134615 186.386084,56.0134615 C198.710032,56.0134615 206.344337,44.175 214.523948,32.9942308 L226.847896,32.9942308 C225.975405,35.8442308 225.430097,39.3519231 225.430097,42.5307692 C225.430097,50.8615385 230.228803,56.0134615 237.972168,56.0134615 C244.406796,56.0134615 248.005825,52.725 248.551133,52.1769231 C248.442071,52.0673077 247.678641,51.3 247.678641,51.1903846 C247.242395,51.5192308 244.079612,54.2596154 240.371521,54.2596154 C233.500647,54.2596154 230.119741,49.7653846 230.119741,42.9692308 C230.119741,39.9 230.77411,35.8442308 231.53754,32.8846154 L240.698706,32.8846154 C239.608091,34.9673077 238.626537,36.9403846 237.754045,38.5846154 C237.099676,39.7903846 236.445307,41.2153846 236.445307,42.9692308 C236.445307,45.1615385 237.863107,46.5865385 241.02589,46.5865385 C249.09644,46.5865385 253.349838,37.2692308 254.658576,34.2 C254.985761,34.4192308 256.40356,34.8576923 257.385113,35.1865385 C256.948867,36.0634615 256.185437,38.0365385 256.185437,40.1192308 C256.185437,43.7365385 258.58479,46.5865385 263.056311,46.5865385 C268.618447,46.5865385 271.78123,42.9692308 272.871845,41.7634615 L272.980906,41.8730769 L271.235922,45.8192308 L274.834951,45.8192308 C274.834951,45.8192308 279.742718,36.1730769 280.397087,34.9673077 C282.687379,30.3634615 286.395469,26.8557692 288.903883,26.8557692 C290.10356,26.8557692 290.648867,27.6230769 290.648867,28.3903846 C290.648867,29.8153846 289.558252,31.7884615 287.595146,35.625 C285.850162,39.0230769 284.650485,41.6538462 284.650485,43.4076923 C284.650485,45.3807692 285.959223,46.5865385 288.140453,46.5865385 C291.412298,46.5865385 293.484466,43.7365385 294.466019,42.6403846 L294.466019,42.75 C294.356958,44.0653846 294.793204,46.6961538 298.610356,46.6961538 C302.318447,46.6961538 304.608738,43.7365385 305.590291,42.5307692 L305.808414,42.6403846 C305.590291,44.6134615 306.789968,46.5865385 310.061812,46.5865385 C313.333657,46.5865385 315.951133,43.9557692 317.150809,42.8596154 C317.587055,43.7365385 318.895793,46.5865385 323.476375,46.5865385 C330.238188,46.5865385 334.05534,40.2288462 335.255016,37.7076923 L334.164401,37.2692308 C332.419417,40.4480769 328.711327,44.9423077 324.676052,44.9423077 C321.62233,44.9423077 320.204531,43.1884615 320.204531,40.5576923 C320.204531,38.5846154 321.186084,36.7211538 321.840453,35.7346154 C329.911003,35.8442308 336.018447,31.35 336.018447,27.8423077 C336.018447,26.1980769 334.600647,25.2115385 332.419417,25.2115385 C324.785113,25.2115385 316.823625,33.4326923 316.823625,40.1192308 C316.823625,40.8865385 316.932686,41.4346154 316.932686,41.6538462 C316.060194,42.6403846 313.333657,44.9423077 311.152427,44.9423077 C310.061812,44.9423077 309.407443,44.2846154 309.407443,43.2980769 C309.407443,42.0923077 310.170874,40.5576923 311.152427,38.8038462 C313.006472,35.0769231 317.696117,25.8692308 317.696117,25.8692308 L313.333657,25.8692308 C313.333657,25.8692308 308.971197,34.4192308 307.008091,38.2557692 C305.044984,42.0923077 301.991262,44.9423077 299.810032,44.9423077 C298.610356,44.9423077 298.065049,44.2846154 298.065049,43.4076923 C298.065049,41.9826923 298.93754,40.5576923 299.919094,38.5846154 C301.664078,35.0769231 306.353722,25.8692308 306.353722,25.8692308 L301.991262,25.8692308 C301.991262,25.8692308 297.846926,34.0903846 295.99288,37.5980769 C293.81165,41.7634615 290.976052,44.8326923 289.122006,44.8326923 C288.358576,44.8326923 287.92233,44.3942308 287.92233,43.6269231 C287.92233,42.3115385 288.794822,40.8865385 290.430744,37.5980769 C292.830097,32.9942308 294.029773,30.5826923 294.029773,28.5 C294.029773,26.4173077 292.393851,25.1019231 289.885437,25.1019231 C286.613592,25.1019231 284.105178,27.7326923 283.123625,28.8288462 L282.905502,28.8288462 L284.214239,25.8692308 L280.61521,25.8692308 C280.61521,25.8692308 277.343366,32.3365385 275.271197,36.2826923 C272.762783,41.325 268.291262,44.8326923 264.255987,44.8326923 C261.093204,44.8326923 259.784466,42.8596154 259.784466,40.4480769 C259.784466,38.6942308 260.766019,36.6115385 261.311327,35.625 C270.145307,35.625 275.48932,30.9115385 275.48932,27.7326923 C275.48932,26.0884615 274.180583,25.1019231 271.672168,25.1019231 C266.65534,25.1019231 260.984142,28.9384615 258.039482,33.9807692 C257.16699,33.6519231 255.422006,32.9942308 255.094822,32.775 C255.422006,31.8980769 255.640129,30.9115385 255.640129,28.9384615 C255.640129,27.4038462 255.094822,24.9923077 253.567961,24.9923077 C252.259223,24.9923077 251.604854,26.5269231 251.604854,28.1711538 C251.604854,30.8019231 252.586408,32.2269231 253.4589,33.1038462 C252.0411,37.1596154 246.91521,44.6134615 242.661812,44.6134615 C241.353074,44.6134615 240.371521,44.0653846 240.371521,42.75 C240.371521,41.8730769 240.807767,40.7769231 241.462136,39.3519231 C242.770874,36.8307692 248.442071,25.65 248.442071,25.65 L244.188673,25.65 C244.188673,25.65 242.879935,28.2807692 241.244013,31.35 L231.864725,31.35 C235.354693,20.6076923 243.861489,11.9480769 253.786084,6.90576923 C253.677023,6.68653846 253.4589,5.80961538 253.4589,5.59038462 C252.804531,5.7 248.769256,6.68653846 246.369903,6.68653846 C234.918447,6.68653846 228.265696,0.438461538 220.413269,0.438461538 C211.143042,0.438461538 206.235275,6.35769231 206.235275,12.3865385 C206.235275,20.0596154 212.778964,22.4711538 214.087702,22.9096154 C214.196764,22.8 214.523948,21.9230769 214.63301,21.8134615 C213.21521,21.1557692 207.653074,19.2923077 207.653074,12.2769231 C207.653074,5.80961538 213.542395,1.86346154 220.413269,1.86346154 C226.847896,1.86346154 232.410032,6.46730769 242.443689,7.67307692 L242.552751,8.00192308 C230.01068,11.8384615 221.394822,20.4980769 215.178317,29.1576923 C214.63301,29.925 214.196764,30.5826923 213.651456,31.35 L207.980259,31.35 L207.32589,32.5557692 L212.888026,32.5557692 C205.253722,43.2980769 197.83754,54.15 186.604207,54.15 C180.714887,54.15 177.443042,50.4230769 176.897735,49.875 L175.370874,51.4096154 Z" id="Shape">
     </path>
    </g>
   </g>
  </g>
 </g>
</svg>