<svg version="1.1" id="Layer_1" xmlns="http://www.w3.org/2000/svg" xmlns:xlink="http://www.w3.org/1999/xlink" x="0px" y="0px" viewBox="0 0 322.6 39.5" style="enable-background:new 0 0 322.6 39.5;" xml:space="preserve">
 <style type="text/css">
  .st0{fill:#005DAB;}
	.st1{fill:#FFFFFF;}
 </style>
 <g>
  <path id="tcs-logo-0__pill" class="st0" d="M18.2,39.5C8.2,39.5,0,29.8,0,19.7S8.2,0,18.2,0h286.1c10.1,0,18.2,9.7,18.2,19.7
		s-8.2,19.7-18.2,19.7H18.2">
  </path>
  <path id="tcs-logo-0__logotype" class="st1" d="M37.3,12.7h-4.8v17h-5.7v-17h-6.5V7.8h22.6v7.1H43c0.8-1.6,2.9-2.5,4.8-2.5
		c5.3,0,5.7,4.7,5.7,7v10.2H48V22c0-2.2,0.2-5.2-2.6-5.2c-2,0-2.5,2.4-2.5,4.2v8.7h-5.6V12.7z M91.9,14.9c-0.3-2.2-1.3-3-3.7-3
		c-3.7,0-5.1,3.6-5.1,6.9c0,3.2,2.1,6.5,4.8,6.5c2.7,0,3.7-1.5,3.9-4h5.7c0,4.4-3.7,8.9-9.2,8.9c-6.6,0-10.9-5.4-10.9-11.7
		S81.7,6.7,88.3,6.7c4.7,0,8.7,2.9,8.9,8.2H91.9z M107.3,12.7c4.9,0,8.4,3.9,8.4,8.6s-3.5,8.9-8.4,8.9S99,25.9,99,21.1
		S102.4,12.7,107.3,12.7z M107.3,25.6c2.4,0,3.2-2.2,3.2-4.2c0-2-0.8-4.2-3.2-4.2c-2.4,0-3.2,2.1-3.2,4.2
		C104.2,23.4,104.9,25.6,107.3,25.6z M117.5,13.5h5.1v1.7h0.1c0.9-1.6,3.1-2.2,5-2.2c5.3,0,5.7,4.1,5.7,6.4v10.2h-5.2V22
		c0-2.2,0.2-4.4-2.6-4.4c-2,0-2.8,1.7-2.8,3.4v8.7h-5.2V13.5z M145,17.1h-3.2v7.5c0,1.3,0.7,1.5,1.9,1.5c0.4,0,0.9-0.1,1.3-0.1V30
		c-0.9,0-1.9,0.2-2.8,0.2c-4.4,0-5.6-1.3-5.6-5.6v-7.4h-2.6v-3.4h2.6V9.6h5.2v4.2h3.2V17.1z M146.5,18.7c0.1-2.1,1.1-3.4,2.5-4.3
		c1.4-0.8,3.2-1.4,5.1-1.4c3.8,0,7.4,1.2,7.4,5.7v7c0,1.3,0,2.8,0.6,4.1h-5.2c-0.2-0.5-0.2-1-0.3-1.5c-1.3,1.4-3.3,2-5.2,2
		c-3,0-5.4-1.5-5.4-4.8c0-5.2,5.6-5.2,9.3-5.9c0.9-0.2,1.4-0.1,1.4-1.1c0-1.2-1.4-1.7-2.5-1.7c-1.4,0-2.4,0.6-2.6,2H146.5z
		 M153.2,26.4c2.5,0,3-1.1,2.9-4.4c-0.7,0.5-1.7,0.7-2.9,1c-1.2,0.3-2.1,0.6-2.1,1.9C151.1,26.2,152.1,26.4,153.2,26.4z M163.7,29.7
		V13.4h5.2v16.3H163.7z M163.7,11.8v-4h5.2v4H163.7z M171.1,13.5h5.1v1.7h0.1c0.9-1.6,3.1-2.2,5-2.2c5.3,0,5.7,4.1,5.7,6.4v10.2
		h-5.2V22c0-2.2,0.2-4.4-2.6-4.4c-2,0-2.8,1.7-2.8,3.4v8.7h-5.2V13.5z M215.7,18.2c-1.8,1.1-2.7,1.7-2.7,3.5v8h-5.2V13.5h5.1v2.3
		h0.1c0.9-1.6,3.1-2.7,5-2.7v5C217.8,18,217.8,17.9,215.7,18.2z M241.2,13.8h2.3V9.6h5.2v4.2h3.2v3.4h-3.2v7.5
		c0,1.3,0.7,1.5,1.9,1.5c0.4,0,0.9-0.1,1.3-0.1V30c-0.9,0-1.9,0.2-2.8,0.2c-4.4,0-5.6-1.3-5.6-5.6v-7.4h-2.6v-2.8H236
		c0.1-2-1.8-3-3.5-3c-1.2,0-3.3,0.8-3.3,2.2c0,1.7,3.7,2,6.9,2.9c3.2,0.9,6.1,2.4,6.1,6.3c0,5.5-4.5,7.3-9.3,7.3
		c-5,0-9.5-2.2-9.5-7.8h5.7c0.1,2.6,1.7,3.4,4.1,3.4c1.7,0,3.2-0.6,3.2-2.2c0-1.9-2.8-1.9-6-2.8c-3.1-0.9-6.6-2.7-6.6-6.7
		c0-4.8,4.7-7.1,8.8-7.1C236.8,6.8,240.9,9.2,241.2,13.8z M260.8,12.7c4.9,0,8.4,3.9,8.4,8.6s-3.5,8.9-8.4,8.9
		c-4.9,0-8.4-4.3-8.4-9.1S255.8,12.7,260.8,12.7z M260.8,25.6c2.4,0,3.2-2.2,3.2-4.2c0-2-0.8-4.2-3.2-4.2c-2.4,0-3.2,2.1-3.2,4.2
		C257.6,23.4,258.3,25.6,260.8,25.6z M278.9,18.2c-1.8,1.1-2.7,1.7-2.7,3.5v8H271V13.5h5.1v2.3h0.1c0.9-1.6,3.1-2.7,5-2.7v5
		C281.1,18,281,17.9,278.9,18.2z M301.7,8.7c2,0,3.8,1.5,3.8,3.8c0,2.3-1.8,3.8-3.8,3.8s-3.8-1.5-3.8-3.8
		C297.9,10.2,299.7,8.7,301.7,8.7z M301.7,9.4c-1.6,0-3.1,1.2-3.1,3.1c0,1.9,1.4,3.1,3.1,3.1c1.6,0,3.1-1.2,3.1-3.1
		C304.8,10.6,303.4,9.4,301.7,9.4z M300.3,10.6h1.4c1,0,1.5,0.3,1.5,1.1c0,0.7-0.4,1-1,1l1,1.7h-0.8l-0.9-1.6h-0.5v1.6h-0.8V10.6z
		 M301.1,12.1h0.7c0.4,0,0.7-0.1,0.7-0.5c0-0.4-0.4-0.5-0.8-0.5h-0.6V12.1z M194.4,23c0.3,1.9,1.3,3,3,3c1.3,0,2.3-0.8,2.8-1.9
		l5.3,0c-0.9,3.7-4.6,6-8.1,6c-5.2,0-8.6-3.8-8.6-9.2c0-4.9,3.9-8.3,8.6-8.3c5.7-0.1,9.5,4.3,8.4,10.3H194.4z M200.5,19.6
		c-0.2-1.7-1.3-3.2-3.1-3.2c-1.8,0-2.8,1.3-3.1,3.2H200.5z M286.9,23c0.3,1.9,1.3,3,3,3c1.3,0,2.3-0.8,2.8-1.9l5.3,0
		c-0.9,3.7-4.6,6-8.1,6c-5.2,0-8.6-3.8-8.6-9.2c0-4.9,3.9-8.3,8.6-8.3c5.7-0.1,9.5,4.3,8.4,10.3H286.9z M293,19.6
		c-0.2-1.7-1.3-3.2-3.1-3.2c-1.8,0-2.8,1.3-3.1,3.2H293z M60.9,23c0.3,1.9,1.3,3,3,3c1.3,0,2.3-0.8,2.8-1.9l5.3,0
		c-0.9,3.7-4.6,6-8.1,6c-5.2,0-8.6-3.8-8.6-9.2c0-4.9,3.9-8.3,8.6-8.3c5.7-0.1,9.5,4.3,8.4,10.3H60.9z M67,19.6
		c-0.2-1.7-1.3-3.2-3.1-3.2c-1.8,0-2.8,1.3-3.1,3.2H67z">
  </path>
 </g>
</svg>