<svg width="311" height="232" viewBox="0 0 311 232" fill="none" xmlns="http://www.w3.org/2000/svg">
<path d="M165.885 185.918C165.851 184.193 165.818 182.467 165.852 180.744C166.012 171.413 167.087 162.027 169.121 152.701C169.959 148.848 170.971 145.004 172.147 141.193L170.114 140.568C168.924 144.442 167.903 148.336 167.039 152.246C164.972 161.708 163.886 171.24 163.725 180.693C163.693 182.444 163.727 184.198 163.762 185.952L165.885 185.918Z" fill="url(#paint0_linear_2464_204)"/>
<path d="M259.213 142.162C258.952 139.143 258.023 135.935 256.473 132.584C255.014 129.398 252.997 126.084 250.483 122.685C247.781 119.037 244.504 115.295 240.706 111.525C236.699 107.552 232.097 103.531 226.994 99.5587C222.185 95.8146 216.953 92.0995 211.311 88.4743C206.117 85.1321 200.602 81.8649 194.774 78.7172C193.418 77.986 192.046 77.2612 190.663 76.5312C190.228 76.3091 189.806 76.0921 189.371 75.8701C188.371 75.3531 187.355 74.8425 186.333 74.3433C185.876 74.111 185.419 73.8787 184.957 73.6578C183.679 73.0296 182.384 72.4077 181.077 71.7807L180.621 71.5763C179.035 70.8102 177.411 70.068 175.781 69.3372C174.061 68.5656 172.33 67.8167 170.617 67.0894L170.195 66.9004C168.773 66.3174 167.351 65.7344 165.929 65.1514C165.429 64.9544 164.928 64.7575 164.422 64.544C163.308 64.099 162.2 63.6705 161.092 63.242C160.614 63.0553 160.132 62.8799 159.654 62.6932C158.121 62.1149 156.582 61.548 155.061 61.0027C148.415 58.6384 141.896 56.6041 135.575 54.9192C129.565 53.3052 123.742 52.0074 118.156 51.0351C112.158 49.9739 106.438 49.27 101.097 48.9414C95.4639 48.5915 90.2521 48.6767 85.5424 49.1377C81.1117 49.5869 77.1159 50.4091 73.6719 51.5882C70.4868 52.6781 67.7507 54.0789 65.5373 55.8099C63.2425 57.6003 61.4766 59.7373 60.3626 62.2214C59.1872 64.8422 58.778 67.7383 59.0479 70.8293C59.3091 73.8481 60.2379 77.0568 61.7825 80.4184C63.2414 83.6047 65.2591 86.9185 67.7609 90.3125C70.4635 93.9608 73.7401 97.7023 77.5378 101.472C81.5402 105.457 86.1474 109.467 91.2454 113.45C96.0424 117.189 101.286 120.909 106.928 124.535C112.122 127.877 117.637 131.144 123.46 134.303C124.816 135.034 126.188 135.759 127.577 136.478C127.994 136.706 128.434 136.917 128.868 137.139C129.868 137.656 130.884 138.166 131.901 138.677C132.363 138.898 132.82 139.13 133.277 139.363C134.555 139.991 135.85 140.613 137.157 141.24C138.896 142.061 140.664 142.881 142.453 143.683C149.427 146.811 156.357 149.577 163.162 152.013C169.807 154.377 176.327 156.411 182.647 158.096C188.657 159.71 194.481 161.008 200.062 161.991C206.076 163.046 211.785 163.745 217.138 164.079C222.77 164.429 227.977 164.355 232.697 163.871C237.139 163.427 241.118 162.611 244.567 161.421C247.752 160.331 250.488 158.93 252.702 157.199C254.997 155.409 256.751 153.267 257.865 150.782C259.046 148.15 259.45 145.266 259.185 142.163L259.213 142.162ZM191.908 77.172C191.622 77.0163 191.336 76.8606 191.045 76.7164C191.336 76.8606 191.622 77.0163 191.908 77.172ZM188.822 75.569C188.097 75.2026 187.371 74.8362 186.646 74.4699C187.371 74.8362 188.097 75.2026 188.822 75.569ZM184.847 73.5674C183.626 72.9648 182.399 72.3735 181.156 71.7886C182.399 72.3735 183.626 72.9648 184.847 73.5674ZM170.194 66.8725C168.839 66.2922 167.485 65.7399 166.127 65.199C167.48 65.7513 168.834 66.3036 170.194 66.8725ZM164.17 64.4037C163.369 64.0853 162.562 63.7782 161.772 63.4649C162.567 63.7668 163.369 64.0853 164.17 64.4037ZM159.306 62.5234C158.993 62.3968 158.682 62.2981 158.369 62.1715C158.675 62.2816 158.993 62.3968 159.306 62.5234ZM126.374 135.802C126.66 135.957 126.958 136.118 127.249 136.262C126.963 136.107 126.665 135.946 126.374 135.802ZM129.46 137.405C130.186 137.771 130.911 138.137 131.648 138.509C130.911 138.137 130.186 137.771 129.46 137.405ZM133.452 139.4C134.673 140.003 135.911 140.599 137.155 141.184C135.911 140.599 134.673 140.003 133.452 139.4Z" fill="#E01E43"/>
<path d="M214.291 87.4434C218.721 90.2923 222.924 93.1899 226.876 96.1259L242.983 93.6592C238.107 90.0353 232.903 86.442 227.41 82.9112C221.16 78.9036 214.549 74.967 207.619 71.1612L198.302 77.9594C203.904 81.0329 209.258 84.2006 214.303 87.4485L214.291 87.4434Z" fill="#F7F6FA"/>
<path d="M97.8604 45.6571C101.032 45.8478 104.345 46.1835 107.757 46.6324L95.53 32.3896C91.3144 31.8403 87.2163 31.4259 83.2824 31.1946C75.9967 30.7466 69.2417 30.8241 63.1354 31.4388L81.5911 45.8611C86.5342 45.3679 91.9818 45.3064 97.8667 45.6736L97.8604 45.6571Z" fill="#F8F5F6"/>
<path d="M243.599 136.597C243.375 134.047 242.59 131.341 241.286 128.511C240.055 125.824 238.355 123.022 236.244 120.159C233.969 117.086 231.209 113.932 228 110.741C224.617 107.389 220.734 103.992 216.422 100.635C212.377 97.4794 207.952 94.3452 203.183 91.2758C198.794 88.4588 194.149 85.6916 189.236 83.0363C184.139 80.2714 178.784 77.6235 173.212 75.1246C167.321 72.4825 161.47 70.1462 155.727 68.0905C150.12 66.0961 144.62 64.3823 139.283 62.9467C134.211 61.5894 129.296 60.4938 124.577 59.6639C119.519 58.7643 114.693 58.1737 110.176 57.8999C105.418 57.6138 101.027 57.67 97.0411 58.0726C93.3005 58.448 89.9418 59.1316 87.027 60.1375C84.3382 61.0668 82.029 62.2484 80.1563 63.708C78.2188 65.2205 76.7406 67.0212 75.8003 69.1179C74.8089 71.3285 74.4646 73.7746 74.6917 76.3812C74.9165 78.9319 75.7012 81.6379 77.0053 84.4675C78.2313 87.1661 79.9312 89.9678 82.0582 92.8242C84.3341 95.8979 87.1055 99.0569 90.3029 102.243C93.6861 105.594 97.5738 108.98 101.88 112.348C105.921 115.516 110.351 118.638 115.108 121.703C119.498 124.52 124.158 127.281 129.055 129.942C132.899 132.022 136.869 134.035 140.993 135.98C136.949 134.071 133.02 132.09 129.244 130.04C124.399 127.416 119.795 124.68 115.458 121.9C110.752 118.873 106.379 115.776 102.385 112.657C98.142 109.331 94.2896 105.988 90.9469 102.668C87.7734 99.5207 85.0488 96.41 82.7906 93.3579C80.6977 90.5169 79.0167 87.7647 77.8033 85.0991C76.5231 82.3077 75.7447 79.6181 75.5274 77.1118C75.3015 74.5332 75.6469 72.115 76.6281 69.9271C77.6093 67.7393 79.0262 66.0754 80.9421 64.5805C82.7932 63.1386 85.0694 61.9695 87.72 61.0642C90.6018 60.0709 93.9161 59.3948 97.6288 59.0205C101.558 58.6203 105.899 58.555 110.608 58.8599C115.069 59.1361 119.833 59.7126 124.84 60.6031C129.497 61.4189 134.362 62.5054 139.371 63.8486C144.635 65.2649 150.078 66.9531 155.622 68.9334C161.298 70.9584 167.074 73.2755 172.897 75.8869C178.412 78.3603 183.699 80.9775 188.728 83.7117C193.584 86.3414 198.182 89.0603 202.514 91.8518C207.22 94.8791 211.593 97.9764 215.598 101.1C219.846 104.415 223.682 107.764 227.025 111.084C230.187 114.226 232.923 117.342 235.181 120.394C237.279 123.224 238.955 125.987 240.168 128.653C241.46 131.45 242.216 134.129 242.439 136.652C242.676 139.235 242.32 141.649 241.338 143.836C240.408 145.91 238.952 147.693 237.024 149.183C235.173 150.625 232.897 151.794 230.246 152.699C227.365 153.693 224.039 154.364 220.338 154.743C216.408 155.143 212.056 155.203 207.354 154.915C202.893 154.639 198.133 154.051 193.121 153.172C188.464 152.356 183.6 151.27 178.591 149.926C173.322 148.521 167.884 146.822 162.339 144.842C156.664 142.816 150.887 140.499 145.075 137.893C150.967 140.535 156.806 142.866 162.549 144.922C168.151 146.928 173.656 148.63 178.993 150.066C184.065 151.423 188.98 152.519 193.699 153.349C198.762 154.237 203.588 154.828 208.1 155.113C212.858 155.399 217.249 155.343 221.235 154.94C224.981 154.553 228.339 153.87 231.254 152.864C233.938 151.946 236.247 150.764 238.12 149.305C240.057 147.792 241.535 145.991 242.476 143.895C243.472 141.673 243.811 139.238 243.589 136.62L243.599 136.597Z" fill="#EA7374"/>
<path d="M90.3723 52.8642C86.1585 53.2875 82.4634 54.0803 79.3062 55.169C76.3038 56.2177 73.7773 57.5483 71.7533 59.1315C69.5729 60.85 67.952 62.8467 66.9299 65.1257C65.8567 67.5187 65.4508 70.2245 65.7033 73.171C65.9426 75.9335 66.7732 78.9339 68.2207 82.1151C69.5512 85.0386 71.3807 88.1311 73.769 91.351C76.2354 94.7017 79.272 98.185 82.9004 101.783C86.7386 105.585 91.0385 109.334 95.7141 112.977C100.275 116.542 105.194 120.007 110.393 123.338C115.339 126.501 120.515 129.547 125.858 132.436C131.607 135.548 137.544 138.484 143.595 141.198C149.964 144.055 156.447 146.661 162.939 148.97C169.039 151.145 175.13 153.068 181.14 154.683C186.675 156.166 192.127 157.406 197.438 158.351C202.94 159.327 208.295 159.99 213.396 160.307C218.787 160.644 223.63 160.558 227.949 160.113C232.168 159.679 235.853 158.909 239.015 157.809C242.029 156.765 244.544 155.429 246.573 153.835C248.749 152.128 250.363 150.114 251.38 147.847C252.458 145.442 252.859 142.748 252.607 139.802C252.361 137.023 251.537 134.039 250.089 130.857C248.764 127.923 246.929 124.841 244.541 121.622C242.07 118.282 239.038 114.788 235.41 111.189C231.583 107.393 227.278 103.655 222.596 99.9954C218.036 96.4309 213.116 92.9654 207.917 89.6346C202.987 86.4657 197.8 83.414 192.457 80.5252C186.708 77.4132 180.771 74.4769 174.732 71.7684C168.362 68.9117 161.875 66.3171 155.388 63.9964C149.287 61.8215 143.192 59.9092 137.187 58.2837C131.652 56.8005 126.2 55.5599 120.884 54.6265C115.381 53.6507 110.026 52.9873 104.926 52.6709C99.5342 52.3332 94.6914 52.4197 90.3774 52.8528L90.3723 52.8642ZM138.95 62.1951C144.474 63.6731 150.076 65.433 155.678 67.4388C161.637 69.5637 167.596 71.9625 173.453 74.5892C179.014 77.0831 184.471 79.7769 189.746 82.635C194.67 85.2953 199.422 88.0971 203.961 91.0085C208.735 94.0665 213.257 97.2581 217.454 100.536C221.754 103.888 225.711 107.332 229.234 110.829C232.566 114.143 235.356 117.352 237.621 120.42C239.808 123.386 241.493 126.222 242.724 128.909C244.054 131.833 244.818 134.584 245.032 137.13C245.269 139.837 244.898 142.312 243.906 144.522C242.971 146.608 241.484 148.459 239.481 150.025C237.609 151.484 235.307 152.71 232.536 153.671C229.632 154.682 226.242 155.406 222.362 155.787C218.388 156.195 213.935 156.265 208.981 155.959C204.29 155.676 199.379 155.061 194.321 154.161C189.438 153.299 184.432 152.163 179.338 150.795C173.82 149.306 168.212 147.557 162.61 145.551C156.657 143.415 150.692 141.028 144.835 138.401C139.275 135.907 133.817 133.213 128.526 130.362C123.613 127.706 118.85 124.899 114.311 121.988C109.542 118.919 105.015 115.738 100.818 112.46C96.5184 109.109 92.561 105.664 89.0376 102.168C85.7011 98.8647 82.9222 95.6613 80.6463 92.5876C78.4588 89.6219 76.7743 86.7861 75.5483 84.0874C74.2178 81.164 73.4536 78.4124 73.2402 75.8667C73.0033 73.16 73.3743 70.6848 74.3657 68.4742C75.3571 66.2636 76.7882 64.5375 78.7957 62.9605C80.657 61.4959 82.9866 60.2686 85.7465 59.3028C88.6499 58.2918 92.0518 57.5729 95.9206 57.1864C99.8895 56.7902 104.347 56.7088 109.29 57.0095C113.975 57.3042 118.898 57.9243 123.956 58.8238C128.839 59.686 133.845 60.8224 138.939 62.19L138.95 62.1951Z" fill="url(#paint1_linear_2464_204)"/>
<path d="M173.228 75.1186L174.465 72.3611C168.061 69.4891 161.688 66.9456 155.45 64.7094L155.755 68.0897C161.498 70.1454 167.348 72.4817 173.24 75.1238L173.228 75.1186Z" fill="#E3DEDD"/>
<path d="M139.294 62.9523L137.551 59.1183C132.028 57.6402 126.678 56.4456 121.553 55.5433L124.594 59.658C129.302 60.4829 134.228 61.5835 139.3 62.9409L139.294 62.9523Z" fill="#E3DEDD"/>
<path d="M203.187 91.2637L207.06 89.9212C202.292 86.8518 197.23 83.8562 191.892 80.9561L189.257 83.0179C194.17 85.6731 198.814 88.4403 203.204 91.2574L203.187 91.2637Z" fill="#E3DEDD"/>
<path d="M226.408 83.2557C231.82 86.7229 236.95 90.269 241.756 93.8343L242.973 93.6545C238.097 90.0306 232.892 86.4373 227.4 82.9065C221.149 78.8989 214.538 74.9623 207.609 71.1565L206.898 71.6728C213.73 75.4211 220.26 79.294 226.408 83.2557V83.2557Z" fill="url(#paint2_linear_2464_204)"/>
<path d="M241.766 93.8381C243.417 95.071 245.051 96.3103 246.634 97.5405C253.205 102.664 259.136 107.842 264.294 112.975C269.189 117.839 273.421 122.652 276.895 127.358C279.492 130.877 281.655 134.324 283.39 137.689L285.22 138.154C283.462 134.751 281.268 131.249 278.63 127.671C275.103 122.9 270.822 118.01 265.852 113.071C260.602 107.87 254.595 102.617 247.925 97.4079C246.313 96.151 244.667 94.9066 242.983 93.6583L241.766 93.8381V93.8381Z" fill="url(#paint3_linear_2464_204)"/>
<path d="M96.4534 33.4736C99.6905 33.8851 102.998 34.3831 106.383 34.9841C113.575 36.2522 121.091 37.9259 128.848 40.0087C136.989 42.1815 145.39 44.813 153.959 47.8622C162.727 50.9868 171.654 54.58 180.645 58.612C189.157 62.4294 197.337 66.4677 205.111 70.6795C205.718 71.0061 206.319 71.3442 206.925 71.6708L207.636 71.1546C207.018 70.8228 206.417 70.4848 205.799 70.153C197.9 65.885 189.611 61.7843 180.973 57.9106C171.846 53.8173 162.783 50.1907 153.901 47.0149C145.218 43.9146 136.682 41.2498 128.416 39.0486C120.547 36.9426 112.934 35.2395 105.63 33.9482C102.194 33.3381 98.847 32.8362 95.5591 32.4156L96.4875 33.4889L96.4534 33.4736Z" fill="url(#paint4_linear_2464_204)"/>
<path d="M84.3795 32.2885C88.2576 32.5221 92.2885 32.9338 96.4534 33.474L95.525 32.4007C91.3094 31.8515 87.2113 31.437 83.2774 31.2057C75.9917 30.7577 69.2367 30.8352 63.1304 31.4499L64.5291 32.5426C70.5466 31.9427 77.2065 31.8637 84.3858 32.305L84.3795 32.2885Z" fill="url(#paint5_linear_2464_204)"/>
<path d="M221.28 154.933C225.081 154.544 228.422 153.838 231.276 152.846C233.998 151.904 236.278 150.696 238.101 149.255C240.07 147.702 241.537 145.896 242.457 143.845C243.428 141.68 243.784 139.239 243.566 136.582C243.348 134.076 242.592 131.369 241.291 128.5C240.084 125.851 238.435 123.058 236.273 120.158C235.769 119.481 235.243 118.793 234.688 118.106C234.523 117.895 234.346 117.679 234.169 117.463C233.763 116.966 233.333 116.459 232.904 115.951C232.704 115.725 232.516 115.504 232.31 115.261C231.747 114.625 231.172 113.984 230.569 113.344L230.37 113.118C229.632 112.321 228.85 111.532 228.045 110.733C227.193 109.886 226.302 109.035 225.394 108.19L225.173 107.981C224.417 107.286 223.645 106.598 222.861 105.904C222.576 105.653 222.298 105.419 222.014 105.168C221.381 104.625 220.749 104.081 220.101 103.544C219.822 103.309 219.544 103.075 219.261 102.852C218.352 102.102 217.426 101.359 216.472 100.616C212.357 97.4021 207.904 94.2691 203.216 91.2634C198.752 88.3991 194.075 85.6445 189.248 83.0415C184.048 80.2306 178.693 77.5828 173.235 75.1349C167.481 72.5542 161.624 70.2014 155.773 68.1111C150.262 66.1461 144.756 64.4158 139.334 62.9559C134.336 61.6178 129.403 60.5006 124.611 59.6514C119.638 58.7763 114.805 58.1691 110.198 57.8823C105.327 57.573 100.954 57.6509 97.0518 58.0499C93.2502 58.4391 89.9092 59.1443 87.0553 60.1364C84.345 61.0834 82.0648 62.2918 80.2302 63.7273C78.2609 65.2804 76.8054 67.0913 75.8856 69.1424C74.9146 71.3074 74.559 73.7484 74.777 76.4057C74.9943 78.912 75.7448 81.6027 77.0564 84.4766C78.2636 87.1258 79.9179 89.907 82.07 92.8294C82.5737 93.5069 83.1001 94.1947 83.6545 94.8813C83.8199 95.0923 83.9967 95.3085 84.1735 95.5247C84.5801 96.0218 85.0095 96.5292 85.4389 97.0366C85.6385 97.263 85.8381 97.4893 86.0377 97.7157C86.6011 98.3516 87.1759 98.9926 87.79 99.6376C88.5922 100.504 89.4338 101.374 90.3147 102.248C93.7686 105.686 97.6615 109.06 101.887 112.365C106.019 115.573 110.455 118.712 115.143 121.718C119.607 124.582 124.273 127.332 129.107 129.951C134.295 132.757 139.661 135.41 145.119 137.858C150.874 140.439 156.73 142.791 162.593 144.887C168.103 146.852 173.61 148.582 179.043 150.047C184.041 151.385 188.974 152.502 193.766 153.352C198.734 154.238 203.572 154.834 208.179 155.121C213.038 155.425 217.423 155.352 221.32 154.965L221.28 154.933ZM235.155 118.713L234.825 118.291L235.155 118.713ZM233.923 117.188C233.634 116.826 233.328 116.47 233.016 116.097C233.322 116.453 233.634 116.826 233.923 117.188ZM232.241 115.202C231.706 114.593 231.155 113.99 230.582 113.377C231.155 113.99 231.706 114.593 232.241 115.202ZM225.134 107.977C224.407 107.309 223.675 106.652 222.931 105.99C223.675 106.652 224.418 107.314 225.134 107.977ZM221.812 105.037C221.36 104.642 220.891 104.254 220.433 103.871C220.891 104.254 221.355 104.654 221.812 105.037ZM218.99 102.663C218.799 102.508 218.608 102.354 218.429 102.205C218.608 102.354 218.799 102.508 218.99 102.663ZM83.1366 94.2658L83.4737 94.7044L83.1366 94.2658ZM84.3754 95.8068C84.6759 96.1743 84.9816 96.5304 85.2822 96.8978C84.9702 96.5253 84.6645 96.1692 84.3754 95.8068ZM86.0628 97.7817C86.5972 98.3909 87.1429 99.0052 87.7279 99.6234C87.1543 99.0103 86.5972 98.3909 86.0628 97.7817Z" fill="url(#paint6_radial_2464_204)"/>
<path d="M241.795 135.952C241.572 133.457 240.806 130.801 239.544 128.031C238.332 125.393 236.68 122.668 234.599 119.86C232.365 116.846 229.67 113.762 226.525 110.641C223.212 107.348 219.411 104.042 215.208 100.748C211.244 97.6556 206.911 94.5902 202.262 91.5884C197.971 88.8287 193.419 86.1303 188.608 83.5211C187.498 82.9137 186.355 82.319 185.212 81.7243C184.857 81.538 184.498 81.363 184.143 81.1767C183.32 80.753 182.486 80.3241 181.642 79.9181C181.26 79.7329 180.882 79.5364 180.5 79.3512C179.444 78.8367 178.377 78.317 177.305 77.8087L176.929 77.6401C175.611 77.008 174.271 76.3936 172.927 75.7905C171.502 75.1517 170.084 74.5295 168.667 73.9351L168.314 73.7767C167.136 73.2896 165.959 72.8025 164.799 72.3371C164.384 72.1645 163.963 72.0033 163.559 71.8358C162.644 71.4663 161.718 71.1196 160.809 70.7665C160.411 70.6156 160.013 70.4646 159.627 70.3188C158.366 69.8352 157.094 69.3745 155.829 68.9302C150.341 66.9755 144.965 65.29 139.731 63.9004C134.772 62.5663 129.953 61.5002 125.341 60.677C120.379 59.8069 115.659 59.223 111.249 58.9559C106.586 58.6714 102.29 58.7292 98.4044 59.1219C94.736 59.4887 91.4496 60.1637 88.6009 61.1444C85.9781 62.0486 83.707 63.2063 81.8776 64.6305C79.9833 66.1077 78.5369 67.8679 77.6119 69.9304C76.641 72.0954 76.2944 74.4857 76.5305 77.0416C76.7529 79.5365 77.5187 82.193 78.7864 84.9514C79.9872 87.5841 81.6454 90.326 83.7308 93.1226C85.9651 96.1366 88.6606 99.2206 91.805 102.342C95.1187 105.634 98.9192 108.94 103.122 112.235C107.087 115.327 111.419 118.392 116.068 121.394C120.36 124.154 124.912 126.852 129.723 129.461C130.833 130.069 131.976 130.663 133.119 131.258C133.473 131.444 133.833 131.619 134.187 131.806C135.01 132.229 135.844 132.658 136.688 133.064C137.071 133.249 137.448 133.446 137.83 133.631C138.897 134.151 139.965 134.67 141.037 135.179C142.48 135.867 143.934 136.532 145.404 137.192C151.158 139.772 156.889 142.069 162.508 144.069C167.995 146.023 173.382 147.714 178.606 149.098C183.569 150.421 188.383 151.499 193.001 152.31C197.951 153.175 202.682 153.764 207.093 154.032C211.756 154.316 216.052 154.258 219.942 153.854C223.611 153.487 226.897 152.812 229.746 151.832C232.369 150.927 234.64 149.77 236.469 148.346C238.363 146.868 239.81 145.108 240.73 143.057C241.706 140.881 242.047 138.502 241.816 135.934L241.795 135.952ZM186.213 82.2691C185.979 82.1504 185.738 82.0151 185.504 81.8964C185.749 82.0203 185.979 82.1504 186.213 82.2691ZM183.67 80.9507C183.07 80.6405 182.476 80.3469 181.876 80.0368C182.481 80.3355 183.081 80.6456 183.67 80.9507ZM180.386 79.3001C179.376 78.806 178.366 78.3119 177.339 77.824C178.366 78.3119 179.381 78.7946 180.386 79.3001ZM168.286 73.7778C167.171 73.3049 166.05 72.8434 164.924 72.3933C166.039 72.8383 167.159 73.2998 168.286 73.7778ZM163.298 71.7462C162.633 71.4891 161.974 71.2206 161.32 70.9686C161.974 71.2206 162.639 71.4777 163.298 71.7462ZM159.286 70.1933C159.031 70.0923 158.77 70.0027 158.514 69.9016C158.77 70.0027 159.031 70.0923 159.286 70.1933ZM132.09 130.714C132.335 130.838 132.564 130.968 132.81 131.092C132.564 130.968 132.335 130.838 132.09 130.714ZM134.644 132.038C135.244 132.348 135.849 132.647 136.449 132.957C135.844 132.658 135.244 132.348 134.644 132.038ZM137.939 133.694C138.949 134.188 139.971 134.687 140.998 135.175C139.971 134.687 138.944 134.199 137.939 133.694Z" fill="#E4A201"/>
<path d="M289.959 157.894L264.824 148.018C264.945 146.772 264.97 145.496 264.841 144.166C264.561 140.975 263.591 137.583 261.973 134.051C261.677 133.399 261.335 132.725 260.989 132.064L285.209 138.149C283.45 134.746 281.257 131.244 278.619 127.666C275.092 122.895 270.811 118.005 265.841 113.066C260.591 107.865 254.584 102.611 247.914 97.4029C246.302 96.1459 244.656 94.9015 242.971 93.6532L226.864 96.1199C222.907 93.1953 218.709 90.2863 214.279 87.4374C209.246 84.1947 203.88 81.0218 198.278 77.9483L207.596 71.1501C206.978 70.8184 206.377 70.4803 205.759 70.1486C197.86 65.8805 189.571 61.7798 180.933 57.9062C171.806 53.8128 162.743 50.1862 153.861 47.0105C145.178 43.9102 136.642 41.2453 128.377 39.0441C120.507 36.9381 112.894 35.235 105.59 33.9437C102.154 33.3337 98.8072 32.8317 95.5194 32.4111L107.746 46.6539C104.345 46.2101 101.028 45.8858 97.8498 45.6785C91.8977 45.3086 86.3778 45.3788 81.4017 45.8845L81.5856 45.8712L63.1299 31.4489L62.9067 31.4583C57.1124 32.0487 51.8973 33.1179 47.3843 34.6662C43.2407 36.0927 39.6739 37.9422 36.7841 40.2048C33.7862 42.5558 31.5109 45.3403 30.0494 48.5992C29.1295 50.6503 28.5719 52.8092 28.3436 55.0883L53.478 64.9643C53.3509 66.1939 53.344 67.491 53.455 68.8C53.7347 71.9913 54.7047 75.3827 56.3184 78.9258C56.6142 79.5786 56.9556 80.2518 57.302 80.9136L33.0767 74.8396C34.8354 78.2425 37.0288 81.7445 39.672 85.3114C43.1988 90.0821 47.4797 94.972 52.4502 99.9112C57.7 105.112 63.7067 110.366 70.3768 115.574C71.9892 116.831 73.6348 118.076 75.3144 119.335L91.4214 116.869C95.3627 119.8 99.5653 122.697 104.006 125.551C109.499 129.082 115.329 132.532 121.478 135.85C120.986 135.575 120.493 135.299 119.996 135.035L110.679 141.833C111.291 142.176 111.897 142.503 112.515 142.835C120.398 147.109 128.704 151.204 137.341 155.077C146.468 159.171 155.526 162.809 164.413 165.973C173.108 169.078 181.633 171.738 189.893 173.951C197.762 176.057 205.386 177.765 212.679 179.051C216.115 179.661 219.462 180.163 222.75 180.584L210.523 166.341C213.924 166.785 217.241 167.109 220.42 167.316C226.31 167.672 231.757 167.611 236.684 167.124L255.139 181.546L255.368 181.525C261.162 180.935 266.377 179.866 270.879 178.312C275.039 176.879 278.589 175.036 281.479 172.774C284.477 170.423 286.752 167.638 288.214 164.379C289.134 162.328 289.696 160.158 289.925 157.879L289.959 157.894ZM260.073 130.352L259.71 129.697L260.073 130.352ZM257.356 125.973C256.82 125.185 256.261 124.386 255.674 123.589C256.261 124.386 256.82 125.185 257.356 125.973ZM258.821 128.231C258.593 127.855 258.342 127.468 258.097 127.098C258.336 127.48 258.581 127.849 258.821 128.231ZM115.896 47.8593C114.5 47.6162 113.11 47.3896 111.742 47.1733C113.115 47.3782 114.494 47.5997 115.896 47.8593ZM53.7062 63.479L53.67 63.6818L53.7062 63.479ZM54.4022 60.8895L54.3086 61.1897L54.4022 60.8895ZM54.0074 62.1359L53.9303 62.4298L54.0074 62.1359ZM58.2398 82.607L58.6027 83.2625L58.2398 82.607ZM60.9449 86.9819C61.4812 87.7698 62.0403 88.568 62.6272 89.365C62.0403 88.568 61.4812 87.7698 60.9449 86.9819ZM59.4804 84.7237C59.72 85.1049 59.9596 85.4861 60.2044 85.8559C59.9648 85.4747 59.7086 85.0998 59.4804 84.7237ZM202.405 165.095C203.813 165.343 205.192 165.565 206.564 165.77C205.192 165.565 203.818 165.332 202.405 165.095ZM226.7 159.142C222.369 159.582 217.592 159.643 212.408 159.33C207.505 159.033 202.256 158.377 196.737 157.407C191.612 156.505 186.263 155.31 180.751 153.837C174.945 152.287 168.952 150.421 162.862 148.251C156.609 146.021 150.252 143.471 143.848 140.599C137.786 137.881 131.962 134.995 126.414 131.987C121.076 129.087 116.014 126.091 111.245 123.022C106.063 119.685 101.252 116.282 96.8532 112.844C92.1713 109.184 87.9472 105.511 84.2658 101.848C80.7828 98.3833 77.765 94.9495 75.2986 91.5987C72.9873 88.4818 71.1488 85.44 69.8069 82.5114C68.3971 79.4292 67.546 76.4744 67.2954 73.7068C67.0475 70.8719 67.4216 68.2066 68.4999 65.8022C69.5782 63.3979 71.1327 61.5493 73.2494 59.9118C75.2848 58.3336 77.796 57.0372 80.7222 56.0365C83.8908 54.9528 87.554 54.2005 91.6232 53.7945C95.9537 53.3551 100.736 53.2824 105.914 53.6066C110.829 53.9084 116.072 54.5486 121.586 55.5296C126.71 56.4319 132.06 57.6266 137.584 59.1046C143.39 60.6546 149.371 62.5159 155.472 64.6907C161.714 66.9155 168.083 69.4704 174.487 72.3424C180.549 75.0611 186.372 77.9464 191.909 80.9499C197.252 83.8386 202.32 86.8507 207.078 89.915C212.26 93.2521 217.071 96.6551 221.481 100.097C226.163 103.757 230.387 107.431 234.068 111.094C237.563 114.564 240.558 117.987 243.036 121.343C245.347 124.46 247.185 127.502 248.527 130.43C249.937 133.513 250.793 136.456 251.039 139.235C251.287 142.07 250.913 144.735 249.834 147.14C248.812 149.419 247.195 151.376 245.09 153.019C243.055 154.597 240.543 155.893 237.617 156.894C234.443 157.989 230.785 158.73 226.711 159.147L226.7 159.142ZM264.643 149.278L264.617 149.458L264.643 149.278ZM264.382 150.53L264.31 150.812L264.382 150.53ZM264.021 151.764L263.927 152.064L264.021 151.764Z" fill="#E4A201"/>
<path d="M218.792 179.644L218.777 179.829L218.792 179.644Z" fill="#093679"/>
<path d="M212.008 196.051C212.499 194.957 215.256 195.126 218.162 196.429C221.067 197.733 223.027 199.679 222.537 200.773C222.046 201.867 219.289 201.698 216.383 200.395C213.477 199.092 211.517 197.145 212.008 196.051Z" fill="#F8F7F7"/>
<path d="M215.285 166.41C215.48 166.799 215.664 167.182 215.842 167.577C215.67 167.199 215.48 166.799 215.285 166.41Z" fill="#696A6C"/>
<path d="M218.775 180.266C218.759 180.697 218.732 181.123 218.683 181.538C218.721 181.117 218.759 180.697 218.775 180.266Z" fill="#666669"/>
<path d="M218.792 179.644L218.784 179.722L218.777 179.829L218.784 179.722L218.792 179.644Z" fill="#062450"/>
<path d="M185.001 147.505C185.377 147.92 185.734 148.313 186.098 148.723C185.934 148.539 185.769 148.356 185.605 148.173C185.406 147.947 185.212 147.737 185.013 147.51L185.001 147.505Z" fill="#062450"/>
<path d="M56.3189 78.9273C54.7052 75.3841 53.7186 71.999 53.4555 68.8015C53.3331 67.4874 53.3463 66.2068 53.4785 64.9658L28.3441 55.0898C28.1855 56.6337 28.1738 58.2161 28.3205 59.8422C28.6598 63.7856 29.8706 67.983 31.872 72.3707C32.2472 73.1822 32.6616 73.9977 33.0823 74.8297L57.3076 80.9037C56.9611 80.2419 56.6198 79.5687 56.324 78.9159L56.3189 78.9273Z" fill="#F8F5F6"/>
<path d="M255.168 181.546L236.712 167.124C231.769 167.617 226.322 167.678 220.448 167.316C217.27 167.109 213.953 166.785 210.552 166.341L222.779 180.584C226.994 181.133 231.092 181.547 235.026 181.779C242.312 182.227 249.067 182.149 255.168 181.546V181.546Z" fill="#F8F5F6"/>
<path d="M104.011 125.54C99.5702 122.686 95.379 119.794 91.4263 116.858L75.3193 119.324C80.2067 122.953 85.405 126.53 90.8924 130.072C97.143 134.08 103.754 138.017 110.683 141.822L120.001 135.024C114.399 131.951 109.045 128.783 104 125.535L104.011 125.54Z" fill="#F8F5F6"/>
<path d="M261.973 134.052C263.586 137.595 264.573 140.98 264.841 144.166C264.958 145.491 264.95 146.761 264.824 148.018L289.959 157.894C290.117 156.35 290.129 154.768 289.987 153.13C289.648 149.187 288.437 144.99 286.436 140.602C286.061 139.79 285.635 138.97 285.214 138.138L260.994 132.052C261.335 132.726 261.67 133.382 261.978 134.04L261.973 134.052Z" fill="#F8F5F6"/>
<path d="M241.29 128.5L248.521 130.442C247.179 127.514 245.329 124.467 243.03 121.355L236.248 120.148C238.37 123.016 240.059 125.812 241.29 128.5V128.5Z" fill="#E3DEDD"/>
<path d="M208.115 155.078L212.415 159.347C217.594 159.671 222.376 159.598 226.706 159.159L221.25 154.906C217.265 155.308 212.873 155.364 208.115 155.078V155.078Z" fill="#E3DEDD"/>
<path d="M87.0429 60.1307L80.7 56.0543C77.7853 57.0602 75.2627 58.3514 73.2273 59.9296L80.1722 63.7012C82.0449 62.2417 84.3541 61.06 87.0429 60.1307V60.1307Z" fill="#E3DEDD"/>
<path d="M75.8167 69.1122L68.4898 65.8263C67.4115 68.2306 67.0373 70.896 67.2852 73.7309L74.7196 76.3806C74.4925 73.7741 74.8367 71.328 75.8281 69.1174L75.8167 69.1122Z" fill="#E3DEDD"/>
<path d="M77.0056 84.467L69.7805 82.5407C71.1224 85.4693 72.9661 88.4997 75.2722 91.628L82.0533 92.8351C79.9314 89.9673 78.2429 87.1708 77.0005 84.4784L77.0056 84.467Z" fill="#E3DEDD"/>
<path d="M90.3031 102.244L84.2446 101.867C87.9311 105.518 92.1501 109.204 96.832 112.864L101.869 112.344C97.569 108.992 93.6812 105.606 90.2917 102.238L90.3031 102.244Z" fill="#E3DEDD"/>
<path d="M110.192 57.8929L105.881 53.6191C100.702 53.2948 95.9205 53.3675 91.5901 53.8069L97.046 58.0605C101.031 57.6579 105.428 57.5903 110.181 57.8877L110.192 57.8929Z" fill="#E3DEDD"/>
<path d="M243.6 136.598C243.828 139.205 243.483 141.651 242.487 143.873L249.814 147.159C250.897 144.743 251.266 142.089 251.018 139.254L243.595 136.61L243.6 136.598Z" fill="#E3DEDD"/>
<path d="M228.005 110.73L234.063 111.107C230.377 107.455 226.146 103.765 221.476 100.11L216.439 100.629C220.75 103.986 224.622 107.379 228.016 110.735L228.005 110.73Z" fill="#E3DEDD"/>
<path d="M231.264 152.841L237.606 156.917C240.533 155.917 243.039 154.632 245.079 153.042L238.129 149.282C236.256 150.741 233.952 151.912 231.264 152.841Z" fill="#E3DEDD"/>
<path d="M115.109 121.703L111.241 123.035C116.01 126.104 121.078 129.116 126.409 132L129.061 129.932C124.153 127.265 119.503 124.509 115.114 121.692L115.109 121.703Z" fill="#E3DEDD"/>
<path d="M145.091 137.859L143.855 140.617C150.259 143.489 156.615 146.038 162.869 148.268L162.565 144.888C156.822 142.832 150.983 140.501 145.091 137.859V137.859Z" fill="#E3DEDD"/>
<path d="M179.009 150.032L180.752 153.866C186.276 155.344 191.625 156.538 196.739 157.436L193.698 153.321C188.99 152.496 184.064 151.395 178.992 150.038L179.009 150.032Z" fill="#E3DEDD"/>
<path d="M155.744 68.0847L155.439 64.7044C149.338 62.5295 143.357 60.6683 137.551 59.1183L139.294 62.9523C144.637 64.3764 150.137 66.0903 155.738 68.0961L155.744 68.0847Z" fill="#DB7F05"/>
<path d="M216.428 100.624L221.465 100.105C217.066 96.6676 212.244 93.2595 207.062 89.9224L203.188 91.2649C207.946 94.3292 212.371 97.4634 216.428 100.624V100.624Z" fill="#DB7F05"/>
<path d="M189.253 83.0305L191.888 80.9687C186.351 77.9652 180.528 75.0799 174.465 72.3612L173.229 75.1188C178.801 77.6178 184.156 80.2656 189.253 83.0305Z" fill="#DB7F05"/>
<path d="M236.25 120.149L243.031 121.356C240.553 118 237.547 114.571 234.064 111.107L228.005 110.73C231.214 113.921 233.974 117.075 236.25 120.149V120.149Z" fill="#DB7F05"/>
<path d="M243.6 136.598L251.023 139.242C250.777 136.463 249.921 133.52 248.511 130.438L241.28 128.495C242.584 131.325 243.364 134.042 243.594 136.581L243.6 136.598Z" fill="#DB7F05"/>
<path d="M74.7035 76.3868L67.2692 73.737C67.5147 76.516 68.3709 79.4594 69.7807 82.5416L77.0057 84.4679C75.7015 81.6384 74.9169 78.9324 74.6921 76.3816L74.7035 76.3868Z" fill="#DB7F05"/>
<path d="M80.1732 63.7021L73.2282 59.9305C71.1229 61.5732 69.5059 63.5306 68.4787 65.821L75.8057 69.107C76.746 67.0103 78.2293 65.1982 80.1618 63.697L80.1732 63.7021Z" fill="#DB7F05"/>
<path d="M82.0585 92.8246L75.2774 91.6175C77.7552 94.9734 80.7616 98.402 84.2446 101.867L90.3032 102.243C87.0944 99.0523 84.3344 95.8983 82.0585 92.8246V92.8246Z" fill="#DB7F05"/>
<path d="M101.88 112.349L96.8434 112.868C101.242 116.306 106.064 119.714 111.235 123.046L115.103 121.714C110.346 118.65 105.921 115.516 101.875 112.36L101.88 112.349Z" fill="#DB7F05"/>
<path d="M97.0529 58.0782L91.597 53.8247C87.5278 54.2307 83.8645 54.983 80.6959 56.0667L87.0388 60.1431C89.9484 59.1486 93.3123 58.4536 97.0529 58.0782Z" fill="#DB7F05"/>
<path d="M124.589 59.6694L121.548 55.5546C116.046 54.5788 110.792 53.9335 105.877 53.6317L110.188 57.9054C114.699 58.1907 119.526 58.7813 124.589 59.6694V59.6694Z" fill="#DB7F05"/>
<path d="M238.13 149.282L245.08 153.043C247.185 151.4 248.802 149.442 249.824 147.163L242.497 143.878C241.557 145.974 240.079 147.775 238.141 149.287L238.13 149.282Z" fill="#DB7F05"/>
<path d="M221.25 154.906L226.706 159.16C230.776 158.754 234.439 158.002 237.613 156.906L231.27 152.83C228.355 153.836 224.996 154.52 221.25 154.906V154.906Z" fill="#DB7F05"/>
<path d="M129.056 129.943L126.404 132.011C131.946 135.003 137.764 137.899 143.838 140.623L145.075 137.866C139.502 135.367 134.148 132.719 129.051 129.954L129.056 129.943Z" fill="#DB7F05"/>
<path d="M162.565 144.888L162.869 148.269C168.97 150.444 174.946 152.316 180.757 153.855L179.014 150.021C173.672 148.597 168.172 146.883 162.57 144.877L162.565 144.888Z" fill="#DB7F05"/>
<path d="M193.703 153.31L196.744 157.425C202.263 158.394 207.512 159.051 212.415 159.348L208.116 155.079C203.604 154.794 198.777 154.203 193.714 153.315L193.703 153.31Z" fill="#DB7F05"/>
<path d="M53.4014 66.4777L53.3836 66.8529L53.4014 66.4777Z" fill="#E01E43"/>
<path d="M111.857 130.387C114.506 131.958 117.22 133.504 119.984 135.031C117.204 133.51 114.494 131.953 111.857 130.387Z" fill="#E01E43"/>
<path d="M107.938 128.014C109 128.668 110.078 129.315 111.156 129.963C110.078 129.315 109 128.668 107.938 128.014Z" fill="#E01E43"/>
<path d="M264.935 146.125L264.925 146.299L264.935 146.125Z" fill="#E01E43"/>
<path d="M92.4214 116.716C96.3108 119.61 100.45 122.465 104.817 125.272C100.45 122.465 96.2994 119.605 92.4214 116.716Z" fill="#E01E43"/>
<path d="M120.582 134.614C121.08 134.878 121.544 135.155 122.041 135.419C121.544 135.155 121.068 134.873 120.571 134.609L120.582 134.614Z" fill="#E01E43"/>
<path d="M263.376 145.726C263.366 146.297 263.334 146.857 263.29 147.413C263.35 146.851 263.371 146.286 263.376 145.726Z" fill="#E01E43"/>
<path d="M91.895 129.728C86.4834 126.261 81.3535 122.715 76.5521 119.138L75.3304 119.329C80.2178 122.958 85.4161 126.535 90.9035 130.077C97.1541 134.085 103.765 138.022 110.695 141.827L111.405 141.311C104.573 137.563 98.0481 133.679 91.895 129.728V129.728Z" fill="url(#paint7_linear_2464_204)"/>
<path d="M284.594 140.105C286.559 144.421 287.756 148.558 288.087 152.457C288.228 154.066 288.21 155.632 288.055 157.137L289.965 157.884C290.124 156.34 290.135 154.757 289.994 153.12C289.654 149.177 288.444 144.979 286.442 140.591C286.067 139.78 285.641 138.959 285.22 138.127L283.39 137.662C283.804 138.478 284.224 139.282 284.587 140.088L284.594 140.105Z" fill="url(#paint8_linear_2464_204)"/>
<path d="M30.2532 55.8352C30.4775 53.5954 31.0414 51.4531 31.9459 49.4362C33.387 46.2228 35.6305 43.4787 38.5851 41.1631C41.4368 38.9245 44.949 37.1053 49.0317 35.6925C53.4787 34.1693 58.605 33.1151 64.3269 32.5333L64.5388 32.5188L63.14 31.4261L62.9168 31.4355C57.1225 32.0259 51.9074 33.0951 47.3944 34.6434C43.2508 36.07 39.684 37.9194 36.7942 40.182C33.7963 42.533 31.521 45.3175 30.0595 48.5764C29.1396 50.6275 28.582 52.7864 28.3537 55.0655L30.2634 55.8124L30.2532 55.8352Z" fill="#DB7F05"/>
<path d="M221.85 179.51C218.618 179.087 215.31 178.589 211.92 177.999C204.728 176.731 197.212 175.058 189.466 172.98C181.319 170.791 172.913 168.171 164.355 165.126C155.599 162.007 146.666 158.425 137.676 154.393C129.164 150.576 120.988 146.526 113.214 142.314C112.608 141.988 112.007 141.65 111.412 141.328L110.702 141.844C111.314 142.187 111.92 142.514 112.538 142.846C120.421 147.12 128.727 151.215 137.364 155.088C146.491 159.182 155.549 162.82 164.436 165.984C173.131 169.089 181.656 171.749 189.916 173.962C197.785 176.068 205.409 177.776 212.702 179.062C216.138 179.672 219.485 180.174 222.773 180.595L221.845 179.521L221.85 179.51Z" fill="#DB7F05"/>
<path d="M259.515 131.69C259.85 132.347 260.197 133.009 260.486 133.645C260.19 132.992 259.85 132.347 259.515 131.69Z" fill="#E01E43"/>
<path d="M30.054 48.5889L27.1206 55.1296L28.3431 55.0893C28.5714 52.8102 29.1341 50.64 30.0489 48.6003L30.054 48.5889Z" fill="#F8F5F6"/>
<path d="M278.315 186.302L287.375 166.099C286.011 168.47 284.108 170.546 281.723 172.323C278.91 174.415 275.425 176.082 271.348 177.36C266.923 178.743 261.519 180.234 255.796 180.665L245.519 203.58C251.242 203.149 256.385 202.239 260.81 200.857C264.894 199.595 268.373 197.911 271.186 195.82C274.102 193.651 276.295 191.049 277.67 187.984C277.92 187.425 278.132 186.863 278.32 186.29L278.315 186.302Z" fill="#E08B03"/>
<path d="M255.173 181.534C249.204 181.842 242.577 181.634 235.404 180.935C231.536 180.556 227.325 180.761 223.16 180.098L213.344 201.619C217.504 202.293 221.551 202.822 225.413 203.213C232.586 203.911 239.214 204.119 245.182 203.812L245.405 203.802L255.391 181.536L255.168 181.546L255.173 181.534Z" fill="#E7E6E7"/>
<path d="M89.4273 129.128C84.0809 125.484 80.3294 122.68 75.3142 119.336L66.2638 139.516C71.279 142.86 76.5795 146.209 82.164 149.535C88.5168 153.315 95.2145 157.057 102.205 160.726L110.811 141.537C103.809 137.863 95.7738 132.891 89.4273 129.128V129.128Z" fill="#E7E6E7"/>
<path d="M32.2596 71.5037C30.1714 67.3097 28.8686 63.3174 28.4373 59.5791C28.2548 58.0328 28.2307 56.5301 28.3434 55.0887L27.1311 55.1062L19.4145 72.3126C18.5559 74.227 18.0597 76.2491 17.8876 78.4029C17.7699 79.8556 17.7991 81.3469 17.9816 82.8932C18.4179 86.6201 19.7156 90.6238 21.8039 94.8178C22.1943 95.5951 22.6241 96.3764 23.0602 97.1742L33.5159 73.8601C33.0799 73.0623 32.6387 72.2759 32.2596 71.5037V71.5037Z" fill="#E7E6E7"/>
<path d="M70.5293 114.808C63.7724 109.793 58.1702 104.188 52.9345 98.9243C48.0602 94.0147 43.6347 89.142 39.979 84.6283C37.2489 81.2551 34.9585 77.9696 33.0976 74.7946L23.0404 97.2199C24.9013 100.395 27.1866 103.692 29.9219 107.054C33.5713 111.551 37.9646 116.19 43.0373 120.901C48.3945 125.863 54.5034 130.889 61.2552 135.915C62.8881 137.126 64.5541 138.325 66.2542 139.539L75.3199 119.325C73.6198 118.11 72.1623 116.02 70.5293 114.808Z" fill="#E08B03"/>
<path d="M212.707 179.051C205.587 177.35 197.652 176.364 189.921 173.951C181.798 171.431 173.09 169.181 164.472 165.905C155.661 162.569 146.644 158.84 137.517 154.747C128.88 150.873 120.543 146.847 112.589 142.732C111.966 142.412 111.343 142.092 110.737 141.765L102.326 160.521C102.948 160.842 103.555 161.168 104.177 161.489C112.132 165.603 120.468 169.629 129.106 173.503C138.233 177.596 147.255 181.314 156.06 184.661C164.683 187.926 173.096 190.836 181.218 193.356C188.955 195.759 196.42 197.82 203.529 199.517C206.878 200.32 210.133 201.027 213.324 201.665L222.778 180.584C219.592 179.935 216.056 179.855 212.707 179.051V179.051Z" fill="#E08B03"/>
<path d="M162.956 157.381C163.447 156.287 166.204 156.456 169.098 157.754C171.993 159.052 173.964 161.004 173.473 162.098C172.983 163.192 170.226 163.023 167.32 161.72C164.414 160.417 162.465 158.475 162.956 157.381Z" fill="#F8F7F7"/>
<path d="M146.326 51.5425C146.817 50.4486 149.574 50.6177 152.48 51.9208C155.386 53.2239 157.346 55.1706 156.855 56.2645C156.365 57.3584 153.607 57.1894 150.702 55.8862C147.796 54.5831 145.836 52.6365 146.326 51.5425Z" fill="#F8F7F7"/>
<path d="M47.1015 47.324C47.5921 46.2301 50.3495 46.3991 53.2552 47.7023C56.1609 49.0054 58.1211 50.9521 57.6305 52.046C57.1399 53.1399 54.3825 52.9709 51.4768 51.6677C48.5711 50.3646 46.611 48.4179 47.1015 47.324V47.324Z" fill="#F8F7F7"/>
<path d="M59.9918 97.1074C60.4824 96.0134 63.2398 96.1825 66.1455 97.4856C69.0512 98.7887 71.0113 100.735 70.5207 101.829C70.0302 102.923 67.2728 102.754 64.3671 101.451C61.4614 100.148 59.5012 98.2013 59.9918 97.1074Z" fill="#F8F7F7"/>
<path d="M258.151 162.531C258.642 161.438 261.399 161.607 264.305 162.91C267.211 164.213 269.171 166.159 268.68 167.253C268.19 168.347 265.432 168.178 262.527 166.875C259.621 165.572 257.661 163.625 258.151 162.531Z" fill="#F8F7F7"/>
<path d="M249.169 113.131C249.66 112.037 252.417 112.206 255.323 113.509C258.228 114.812 260.188 116.759 259.698 117.853C259.207 118.946 256.45 118.777 253.544 117.474C250.638 116.171 248.678 114.224 249.169 113.131Z" fill="#F8F7F7"/>
<path d="M76.5418 119.133C74.8861 117.912 73.2571 116.661 71.6737 115.431C65.096 110.291 59.1714 105.129 54.0139 99.9967C49.1192 95.1326 44.8977 90.3241 41.4125 85.6131C38.8046 82.0894 36.6416 78.642 34.9182 75.2823L33.0824 74.8285C34.8411 78.2315 37.0344 81.7335 39.6776 85.3004C43.2045 90.0711 47.4853 94.961 52.4558 99.9001C57.7057 105.101 63.7124 110.355 70.3824 115.563C71.9949 116.82 73.6404 118.065 75.3201 119.324L76.5418 119.133V119.133Z" fill="#DB7F05"/>
<path d="M34.9133 75.2941C34.4989 74.4787 34.0844 73.6632 33.7156 72.8682C31.7342 68.5579 30.5536 64.4152 30.2167 60.5276C30.0763 58.918 30.0943 57.352 30.254 55.836L28.3444 55.0891C28.1858 56.633 28.1741 58.2154 28.3208 59.8415C28.6601 63.7849 29.8709 67.9823 31.8723 72.37C32.2474 73.1816 32.6619 73.997 33.0826 74.829L34.9184 75.2828L34.9133 75.2941Z" fill="url(#paint9_linear_2464_204)"/>
<path d="M233.924 180.697C230.046 180.463 226.015 180.051 221.85 179.511L222.779 180.584C226.994 181.134 231.092 181.548 235.026 181.779C242.312 182.227 249.067 182.15 255.168 181.546L253.769 180.454C247.752 181.054 241.097 181.121 233.918 180.68L233.924 180.697Z" fill="url(#paint10_linear_2464_204)"/>
<path d="M289.958 157.894L288.048 157.147C287.824 159.387 287.272 161.535 286.367 163.551C284.931 166.753 282.683 169.509 279.733 171.813C276.886 174.04 273.374 175.86 269.292 177.272C264.839 178.807 259.713 179.861 254.008 180.437L253.791 180.463L255.19 181.555L255.418 181.534C261.212 180.944 266.427 179.875 270.929 178.321C275.089 176.889 278.639 175.045 281.529 172.783C284.527 170.432 286.802 167.647 288.264 164.388C289.184 162.337 289.746 160.167 289.975 157.888L289.958 157.894Z" fill="#DB7F05"/>
<defs>
<linearGradient id="paint0_linear_2464_204" x1="164.632" y1="161.797" x2="173.488" y2="162.988" gradientUnits="userSpaceOnUse">
<stop stop-color="#8D8E90"/>
<stop offset="0.08" stop-color="#9A9B9D"/>
<stop offset="0.37" stop-color="#C5C6C7"/>
<stop offset="0.63" stop-color="#E5E5E5"/>
<stop offset="0.85" stop-color="#F8F8F8"/>
<stop offset="1" stop-color="white"/>
</linearGradient>
<linearGradient id="paint1_linear_2464_204" x1="186.723" y1="177.752" x2="132.282" y2="34.7739" gradientUnits="userSpaceOnUse">
<stop stop-color="#E76D74"/>
<stop offset="0.34" stop-color="#D8515F"/>
<stop offset="1" stop-color="#B61331"/>
</linearGradient>
<linearGradient id="paint2_linear_2464_204" x1="237.671" y1="67.3231" x2="226.212" y2="82.1358" gradientUnits="userSpaceOnUse">
<stop stop-color="#8D8E90"/>
<stop offset="0.08" stop-color="#9A9B9D"/>
<stop offset="0.37" stop-color="#C5C6C7"/>
<stop offset="0.63" stop-color="#E5E5E5"/>
<stop offset="0.85" stop-color="#F8F8F8"/>
<stop offset="1" stop-color="white"/>
</linearGradient>
<linearGradient id="paint3_linear_2464_204" x1="278.086" y1="105.695" x2="268.667" y2="112.316" gradientUnits="userSpaceOnUse">
<stop stop-color="#E6505B"/>
<stop offset="1" stop-color="#E6505B"/>
</linearGradient>
<linearGradient id="paint4_linear_2464_204" x1="155.126" y1="35.8873" x2="152.848" y2="45.1237" gradientUnits="userSpaceOnUse">
<stop stop-color="#E6505B"/>
<stop offset="1" stop-color="#E6505B"/>
</linearGradient>
<linearGradient id="paint5_linear_2464_204" x1="56.2719" y1="-20.8695" x2="83.8665" y2="44.0292" gradientUnits="userSpaceOnUse">
<stop stop-color="#8D8E90"/>
<stop offset="0.08" stop-color="#9A9B9D"/>
<stop offset="0.37" stop-color="#C5C6C7"/>
<stop offset="0.63" stop-color="#E5E5E5"/>
<stop offset="0.85" stop-color="#F8F8F8"/>
<stop offset="1" stop-color="white"/>
</linearGradient>
<radialGradient id="paint6_radial_2464_204" cx="0" cy="0" r="1" gradientUnits="userSpaceOnUse" gradientTransform="translate(182.057 35.7179) rotate(24.155) scale(0.624421)">
<stop stop-color="#E4A201"/>
<stop offset="1" stop-color="#DB8D03"/>
</radialGradient>
<linearGradient id="paint7_linear_2464_204" x1="87.024" y1="141.419" x2="95.6511" y2="127.409" gradientUnits="userSpaceOnUse">
<stop stop-color="#8D8E90"/>
<stop offset="0.08" stop-color="#9A9B9D"/>
<stop offset="0.37" stop-color="#C5C6C7"/>
<stop offset="0.63" stop-color="#E5E5E5"/>
<stop offset="0.85" stop-color="#F8F8F8"/>
<stop offset="1" stop-color="white"/>
</linearGradient>
<linearGradient id="paint8_linear_2464_204" x1="300.363" y1="143.734" x2="289.291" y2="146.533" gradientUnits="userSpaceOnUse">
<stop stop-color="#8D8E90"/>
<stop offset="0.08" stop-color="#9A9B9D"/>
<stop offset="0.37" stop-color="#C5C6C7"/>
<stop offset="0.63" stop-color="#E5E5E5"/>
<stop offset="0.85" stop-color="#F8F8F8"/>
<stop offset="1" stop-color="white"/>
</linearGradient>
<linearGradient id="paint9_linear_2464_204" x1="21.0242" y1="64.3858" x2="37.5926" y2="64.2427" gradientUnits="userSpaceOnUse">
<stop stop-color="#8D8E90"/>
<stop offset="0.08" stop-color="#9A9B9D"/>
<stop offset="0.37" stop-color="#C5C6C7"/>
<stop offset="0.63" stop-color="#E5E5E5"/>
<stop offset="0.85" stop-color="#F8F8F8"/>
<stop offset="1" stop-color="white"/>
</linearGradient>
<linearGradient id="paint10_linear_2464_204" x1="238.437" y1="200.432" x2="241.078" y2="181.288" gradientUnits="userSpaceOnUse">
<stop stop-color="#8D8E90"/>
<stop offset="0.08" stop-color="#9A9B9D"/>
<stop offset="0.37" stop-color="#C5C6C7"/>
<stop offset="0.63" stop-color="#E5E5E5"/>
<stop offset="0.85" stop-color="#F8F8F8"/>
<stop offset="1" stop-color="white"/>
</linearGradient>
</defs>
</svg>
