<svg version="1.1" id="Layer_1" xmlns="http://www.w3.org/2000/svg" xmlns:xlink="http://www.w3.org/1999/xlink" x="0px" y="0px" viewBox="0 0 224.8 51.4" style="enable-background:new 0 0 224.8 51.4;" xml:space="preserve">
 <style type="text/css">
  .st0{fill-rule:evenodd;clip-rule:evenodd;fill:#C8102E;}
	.st1{fill-rule:evenodd;clip-rule:evenodd;}
 </style>
 <g>
  <path class="st0" d="M214.4,37.9l-2.2,13.5H42.6l2.2-13.5H214.4L214.4,37.9z M43,37.9l-2.2,13.5h-6.7l2.2-13.5H43z M33.2,37.9
		l-2.2,13.5h-5.5l2.2-13.5C27.8,37.9,33.2,37.9,33.2,37.9z M23.5,37.9l-2.2,13.5h-4.2l2.2-13.5H23.5z M13.7,37.9l-2.2,13.5h-3
		l2.2-13.5C10.7,37.9,13.7,37.9,13.7,37.9z M4,37.9L1.8,51.4H0l2.2-13.5C2.2,37.9,4,37.9,4,37.9z">
  </path>
  <path class="st1" d="M35.1,1h15c3.5,0.2,7.2,2.2,8.2,5.8c1.1,3.8-0.4,7.4-3.2,10c-1.1,1-2.2,1.8-3.6,2.2L51.1,19l3.1,5.4h2.8
		L56,31.2h-7.5l-6-10.8l-0.6,4h1.7l-1.1,6.7H30.2l1.1-6.7h2.3l2.8-17.1h-2.2L35.1,1h15H35.1z M106.8,0.9l-1,6.4h-2.2l-2.8,17.1h2.2
		l-1.1,6.7l-13,0l1.1-6.8h2.2l2.8-17.1h-2.2l1-6.4L106.8,0.9L106.8,0.9z M6.1,5.5C10.4,0.5,17.4-1.3,23.5,1c0.7,0.2,1.3,0.6,1.8,1
		l0.5,0.6L26.1,1h6.2l-1.6,10.2h-7.1c-0.4-1.7-2.1-3.2-3.7-3.6c-3-0.7-6,0.3-7.9,2.7c-2.1,3-2.8,7.7-0.8,11c1.4,2.2,3.7,3.1,6.2,2.7
		c1.9-0.4,3.8-1.9,4.6-3.7l-7.9,0l1-6.1h16.6l-2.7,17h-6.4l0.4-2.5c-2.7,2.2-6.3,2.6-9.6,2.4C8.7,30.3,4,26.8,2.5,22.2
		C0.7,16.3,2.3,10,6.1,5.5L6.1,5.5z M157.8,1c0.5,0.2,1,0.4,1.5,0.8l0.3,0.3l0.5,0.6l0.3-1.7h6.2L165,11.2h-7.1
		c-0.4-1.7-2.1-3.2-3.7-3.6c-3-0.7-6,0.3-7.9,2.7c-2.1,3-2.8,7.7-0.8,11c1.4,2.2,3.7,3.1,6.2,2.7c1.8-0.3,3.6-1.7,4.5-3.4l0.2-0.3
		l-7.9,0l1-6.1H166l-2.7,17h-6.4l0.4-2.5c-2.7,2.2-6.3,2.6-9.6,2.4c-4.5-0.8-9.3-4.3-10.8-8.9c-1.8-5.9-0.2-12.2,3.6-16.7
		C144.8,0.5,151.7-1.3,157.8,1z M118.2,1l7.8,15l1.4-8.6h-2.2l1-6.4h12.5l-1,6.4h-2.2l-3.9,23.8h-6.7l-8.5-16.9l-1.6,10.2h2.2
		l-1.1,6.7h-12.6l1.1-6.7h2.2l2.8-17.1h-2.2l1-6.4L118.2,1L118.2,1z M192.7,1l-1.5,9.5h-7.5l0.5-3.1h-5.6l-0.7,4.4h6.6l-1.2,7.3
		h-6.5l-0.9,5.4h5.9l0.6-3.8h7.7l-1.7,10.6h-23.8l1.1-6.7h2.3l2.8-17.1h-2.2l1-6.4C169.5,1,192.7,1,192.7,1z M209.6,0.9
		c3.5,0.2,7.2,2.2,8.2,5.8c1.1,3.8-0.4,7.4-3.2,10c-1.1,1-2.2,1.8-3.6,2.2l-0.4,0.1l3.1,5.4h2.8l-1.1,6.7H208l-6-10.8l-0.6,4h1.7
		l-1.1,6.7h-12.2l1.1-6.7h2.3l2.8-17.1h-2.2l1-6.4L209.6,0.9L209.6,0.9z M82.5,1l4,23.5h2.2l-1.1,6.7h-13l1.1-6.7H78l-0.3-2.5h-7.8
		l-1.1,2.5H71l-1.1,6.7H57.3l1.1-6.7h2.2l8.7-17.1h-2.2l1-6.4C68.1,1,82.5,1,82.5,1z M221.6,24.7c1.8,0,3.2,1.4,3.2,3.2
		c0,0,0,0.1,0,0.1c0,1.8-1.4,3.2-3.2,3.2c0,0,0,0-0.1,0c-1.8,0-3.2-1.4-3.2-3.2c0,0,0,0,0,0C218.3,26.1,219.8,24.7,221.6,24.7
		L221.6,24.7z M221.6,25c-1.7,0-2.9,1.3-2.9,2.9c0,1.6,1.3,2.9,2.9,2.9c1.7,0,2.9-1.3,2.9-2.9C224.5,26.3,223.2,25,221.6,25
		C221.6,25,221.6,25,221.6,25L221.6,25z M221.5,25.9c0.5,0,0.7,0,0.9,0.1c0.4,0.1,0.6,0.5,0.6,0.9c0,0.6-0.4,0.9-0.9,1
		c0.4,0.2,0.6,0.4,0.6,0.9c0.1,0.5,0.1,0.7,0.2,1l0.1,0.1h-0.7c-0.1-0.2-0.1-0.4-0.2-0.6c0-0.1-0.1-0.5-0.1-0.6
		c-0.1-0.5-0.4-0.7-0.9-0.7l-0.2,0h-0.3v1.9h-0.6v-4L221.5,25.9L221.5,25.9z M221.6,26.3h-0.7v1.2h0.8c0.3,0,0.8,0,0.8-0.6
		c0-0.2-0.1-0.3-0.2-0.4c-0.1-0.1-0.3-0.1-0.5-0.2L221.6,26.3L221.6,26.3z M76.3,8.5l-3.1,7.1H77L76.3,8.5L76.3,8.5z M44.8,7.7
		l-0.2,0l-1.1,6.6c2-0.1,4.2,0.4,5.7-0.9c1.2-0.9,1.7-2.3,1.5-3.8C49.9,7.2,47,7.7,44.8,7.7z M204.3,7.7l-0.2,0l-1.1,6.6
		c2-0.1,4.2,0.4,5.7-0.9c1.2-0.9,1.7-2.3,1.5-3.8C209.4,7.2,206.5,7.7,204.3,7.7z M160.1,2.6L160.1,2.6L160.1,2.6
		C160.2,2.6,160.1,2.6,160.1,2.6z M25.8,2.6L25.8,2.6L25.8,2.6C25.8,2.6,25.8,2.6,25.8,2.6z">
  </path>
 </g>
</svg>