<svg width="223" height="226" viewBox="0 0 223 226" fill="none" xmlns="http://www.w3.org/2000/svg">
<path d="M194.339 93.6221C193.176 88.104 191.474 82.7703 189.303 77.692C187.232 72.8689 184.722 68.2729 181.828 63.9464C178.721 59.3077 175.175 54.9812 171.231 51.0377C167.075 46.8814 162.493 43.179 157.557 39.9447C152.918 36.9091 147.967 34.3131 142.747 32.2279C137.952 30.2987 132.945 28.7809 127.767 27.7595C126.562 27.5184 125.342 27.3056 124.122 27.1212C123.739 27.0644 123.37 27.0077 122.987 26.9509C122.107 26.8233 121.214 26.7098 120.32 26.6247C119.923 26.5821 119.512 26.5396 119.114 26.497C117.994 26.3977 116.873 26.3126 115.738 26.2417L115.341 26.2133C113.951 26.1424 112.561 26.114 111.156 26.114C109.667 26.114 108.192 26.1566 106.731 26.2275L106.376 26.2559C105.17 26.3268 103.964 26.4261 102.759 26.5396C102.333 26.5821 101.907 26.6389 101.482 26.6814C100.546 26.7949 99.6095 26.9084 98.6732 27.0502C98.276 27.107 97.8647 27.1637 97.4675 27.2347C96.1766 27.4474 94.8999 27.6744 93.6232 27.9439C88.1051 29.1071 82.7715 30.8094 77.7073 32.9797C72.8843 35.0508 68.2882 37.5616 63.9617 40.4554C59.3231 43.562 54.9965 47.1083 51.053 51.0519C46.8967 55.2082 43.1943 59.79 39.9601 64.7265C36.9244 69.3652 34.3285 74.3158 32.2432 79.5361C30.314 84.3307 28.7962 89.3381 27.7748 94.5158C26.6967 99.892 26.1293 105.453 26.1293 111.141C26.1293 117.141 26.7677 123 27.9592 128.66C29.1224 134.178 30.8247 139.512 32.9951 144.59C35.0661 149.413 37.5769 154.009 40.4565 158.322C43.5631 162.96 47.1095 167.287 51.053 171.23C55.2093 175.386 59.7912 179.089 64.7277 182.323C69.3663 185.359 74.317 187.955 79.5372 190.04C84.3318 191.969 89.3393 193.487 94.5169 194.508C95.7227 194.75 96.9426 194.962 98.1626 195.147C98.5456 195.203 98.9144 195.26 99.2974 195.303C100.177 195.43 101.071 195.544 101.964 195.629C102.361 195.672 102.773 195.714 103.17 195.757C104.291 195.856 105.425 195.941 106.56 196.012C108.078 196.097 109.596 196.14 111.142 196.14C117.143 196.14 123.001 195.501 128.661 194.31C134.179 193.147 139.513 191.444 144.591 189.274C149.414 187.203 154.01 184.692 158.323 181.798C162.961 178.692 167.288 175.145 171.231 171.202C175.388 167.045 179.09 162.464 182.324 157.527C185.36 152.889 187.956 147.938 190.041 142.718C191.97 137.923 193.488 132.916 194.524 127.738C195.588 122.362 196.169 116.801 196.169 111.113C196.169 105.112 195.531 99.2537 194.339 93.5937V93.6221ZM125.2 27.3198C124.945 27.2772 124.689 27.2205 124.434 27.1921C124.689 27.2347 124.945 27.2772 125.2 27.3198ZM122.476 26.9084C121.838 26.8233 121.2 26.7382 120.561 26.6672C121.2 26.7382 121.838 26.8233 122.476 26.9084ZM118.987 26.497C117.923 26.3977 116.845 26.3126 115.767 26.2559C116.845 26.3126 117.923 26.3977 118.987 26.497ZM106.333 26.27C105.17 26.341 104.021 26.4261 102.886 26.5396C104.035 26.4261 105.184 26.3268 106.333 26.27ZM101.212 26.724C100.532 26.8091 99.8648 26.8942 99.1981 26.9935C99.8648 26.8942 100.546 26.8091 101.212 26.724ZM97.127 27.3056C96.8717 27.3481 96.6022 27.4049 96.3468 27.4474C96.6022 27.4049 96.8717 27.3481 97.127 27.3056ZM97.0845 194.962C97.3398 195.005 97.5951 195.062 97.8647 195.104C97.6093 195.062 97.354 195.019 97.0845 194.962ZM99.8081 195.374C100.446 195.459 101.085 195.544 101.723 195.615C101.085 195.544 100.432 195.459 99.8081 195.374ZM103.298 195.785C104.376 195.884 105.44 195.969 106.532 196.026C105.454 195.969 104.376 195.884 103.298 195.785Z" fill="#0B6038"/>
<path d="M28.5854 146.477C26.2873 141.115 24.5 135.484 23.28 129.653C22.7694 127.242 22.3722 124.788 22.0601 122.32L0.867188 124.972C1.25019 128.036 1.74668 131.072 2.37083 134.051C3.88866 141.271 6.10158 148.25 8.93865 154.875C9.46351 156.109 10.0309 157.315 10.5983 158.521L29.9188 149.414C29.4649 148.435 28.9967 147.47 28.5712 146.463L28.5854 146.477Z" fill="#F8F5F6"/>
<path d="M204.1 172.082L186.24 160.365C182.864 165.514 178.977 170.295 174.637 174.636C172.296 176.976 169.814 179.175 167.232 181.232L180.566 197.9C183.772 195.332 186.836 192.623 189.73 189.729C195.092 184.367 199.915 178.437 204.1 172.068V172.082Z" fill="#F8F5F6"/>
<path d="M77.7501 194.51C73.6506 192.864 69.7071 190.935 65.9479 188.722L55.1954 207.177C59.8624 209.901 64.7422 212.298 69.8205 214.327C75.5798 216.639 81.5944 218.469 87.7934 219.802L92.2901 198.907C87.2827 197.829 82.4313 196.368 77.7785 194.495L77.7501 194.51Z" fill="#F8F5F6"/>
<path d="M193.717 75.8054C196.015 81.1675 197.802 86.7991 199.022 92.6293C199.533 95.0408 199.93 97.4949 200.242 99.9631L221.435 97.3105C221.052 94.2464 220.555 91.2107 219.931 88.2318C218.413 81.0115 216.201 74.0323 213.363 67.4077C212.839 66.1736 212.271 64.9678 211.704 63.7621L192.383 72.8691C192.837 73.8479 193.305 74.8267 193.731 75.8196L193.717 75.8054Z" fill="#F8F5F6"/>
<path d="M144.549 27.7749C148.648 29.4204 152.592 31.3496 156.365 33.5625L167.118 15.1074C162.451 12.3838 157.571 9.98647 152.507 7.95796C146.733 5.64575 140.733 3.81585 134.534 2.48242L130.037 23.3774C135.044 24.4413 139.896 25.9166 144.549 27.7891V27.7749Z" fill="#F8F5F6"/>
<path d="M221.433 97.3256L200.24 99.9782C199.928 97.51 199.531 95.0559 199.02 92.6444C197.801 86.8 196.013 81.1826 193.715 75.8206C193.29 74.8276 192.836 73.8488 192.368 72.87L211.688 63.7772C209.333 58.784 206.638 53.9893 203.588 49.45C199.517 43.3787 194.878 37.7187 189.729 32.5694C184.296 27.1364 178.296 22.2709 171.841 18.0578C170.281 17.0365 168.706 16.0577 167.089 15.1214L156.337 33.5766C152.563 31.3779 148.62 29.4345 144.52 27.789C139.868 25.9165 135.002 24.4554 130.009 23.3773L134.505 2.48229C133.966 2.36881 133.413 2.24114 132.86 2.14184C125.824 0.751676 118.561 0.0140381 111.128 0.0140381C103.269 0.0140381 95.6093 0.836791 88.2187 2.38299C80.9984 3.90083 74.0192 6.11374 67.3946 8.95081C61.0821 11.6602 55.0675 14.9228 49.4218 18.7103C46.7691 20.4835 44.2016 22.3985 41.7049 24.3845L55.0392 41.0523C52.4574 43.1233 49.975 45.3221 47.6344 47.6485C43.2511 52.0317 39.3218 56.8831 35.9173 62.0891L36.045 61.9047L18.1856 50.1876L18.0296 50.4146C14.0577 56.4859 10.6674 62.9686 7.9438 69.7776C5.43299 76.0475 3.46123 82.6012 2.1278 89.3818C0.737638 96.4177 0 103.681 0 111.114C0 115.795 0.297893 120.405 0.865307 124.944L22.0582 122.292V122.263C22.3703 124.746 22.7675 127.2 23.2782 129.626C24.4981 135.456 26.2855 141.087 28.5835 146.449C29.009 147.442 29.463 148.421 29.9311 149.4L10.6106 158.507C12.9654 163.5 15.6606 168.295 18.6963 172.834C22.7533 178.906 27.4061 184.565 32.5554 189.715C37.9884 195.148 43.9746 200.013 50.4431 204.226C52.0035 205.248 53.5781 206.227 55.1952 207.163L65.9477 188.708C69.721 190.906 73.6645 192.85 77.7641 194.495C82.8283 196.524 88.1336 198.113 93.6091 199.191C93.1694 199.105 92.7296 198.992 92.2899 198.893L87.7931 219.788C88.3322 219.901 88.8854 220.029 89.4387 220.128C96.4746 221.518 103.737 222.256 111.171 222.256C119.029 222.256 126.689 221.433 134.08 219.887C141.3 218.369 148.279 216.156 154.904 213.319C161.217 210.61 167.231 207.347 172.877 203.56C175.53 201.772 178.097 199.871 180.594 197.871L167.259 181.204C169.841 179.132 172.324 176.934 174.664 174.607C179.005 170.267 182.892 165.486 186.268 160.337L204.127 172.054L204.283 171.827C208.255 165.756 211.645 159.273 214.369 152.464C216.88 146.194 218.852 139.64 220.185 132.86C221.575 125.824 222.313 118.561 222.313 111.128C222.313 106.447 222.015 101.837 221.448 97.2972L221.433 97.3256ZM191.162 70.4159C191.006 70.1039 190.85 69.806 190.694 69.4939C190.85 69.806 191.006 70.1039 191.162 70.4159ZM187.814 64.4014C187.176 63.3516 186.523 62.3161 185.842 61.309C186.523 62.3303 187.176 63.3658 187.814 64.4014ZM189.587 67.4512C189.304 66.9405 189.006 66.4299 188.708 65.9192C189.006 66.4299 189.304 66.9405 189.587 67.4512ZM61.3091 36.4704C60.231 37.1939 59.1671 37.9599 58.1174 38.7259C59.1671 37.9457 60.231 37.1939 61.3091 36.4704ZM21.7461 119.327L21.7887 119.738L21.7461 119.327ZM21.4057 113.809C21.4057 114.036 21.4199 114.249 21.4341 114.461C21.4341 114.249 21.4199 114.022 21.4057 113.809ZM21.5334 116.518C21.5334 116.731 21.5617 116.93 21.5759 117.143C21.5759 116.93 21.5476 116.731 21.5334 116.518ZM31.151 151.882C31.3071 152.195 31.4631 152.507 31.6192 152.804C31.4631 152.492 31.3071 152.195 31.151 151.882ZM34.4988 157.897C35.1371 158.947 35.7896 159.982 36.4705 161.004C35.7896 159.982 35.1371 158.947 34.4988 157.897ZM32.7256 154.847C33.0093 155.372 33.3072 155.883 33.6193 156.393C33.3214 155.883 33.0235 155.358 32.7256 154.847ZM161.004 185.828C162.096 185.105 163.16 184.339 164.21 183.573C163.16 184.353 162.096 185.105 161.004 185.828ZM176.508 153.755C173.544 158.28 170.139 162.493 166.323 166.309C162.706 169.926 158.734 173.175 154.478 176.04C150.521 178.693 146.294 180.991 141.868 182.892C137.215 184.892 132.321 186.452 127.243 187.516C122.051 188.608 116.675 189.19 111.156 189.19C105.936 189.19 100.829 188.665 95.893 187.686C91.1409 186.736 86.5448 185.346 82.1332 183.573C77.3527 181.643 72.7992 179.274 68.5436 176.48C64.0185 173.515 59.8054 170.111 55.9896 166.295C52.3723 162.677 49.1239 158.706 46.2584 154.45C43.6058 150.492 41.3077 146.265 39.4069 141.839C37.4068 137.186 35.8464 132.292 34.7825 127.214C33.6902 122.022 33.1086 116.646 33.1086 111.128C33.1086 105.908 33.6335 100.801 34.6123 95.8645C35.5627 91.1124 36.9528 86.5163 38.726 82.1047C40.6552 77.3242 43.0242 72.7707 45.8187 68.5151C48.7834 63.99 52.1879 59.7769 56.0038 55.9611C59.621 52.3438 63.5929 49.0954 67.8485 46.2299C71.8063 43.5773 76.0335 41.2792 80.4593 39.3784C85.1263 37.3783 90.0061 35.8179 95.0844 34.754C100.276 33.6617 105.653 33.0801 111.171 33.0801C116.391 33.0801 121.498 33.605 126.434 34.5837C131.186 35.5342 135.782 36.9243 140.194 38.6975C144.974 40.6267 149.528 42.9957 153.783 45.7902C158.309 48.7549 162.522 52.1594 166.337 55.9753C169.955 59.5925 173.203 63.5644 176.069 67.82C178.721 71.7777 181.019 76.005 182.92 80.4308C184.92 85.0836 186.481 89.9776 187.545 95.0559C188.637 100.248 189.218 105.624 189.218 111.142C189.218 116.362 188.694 121.469 187.715 126.406C186.764 131.158 185.374 135.754 183.601 140.165C181.672 144.946 179.303 149.499 176.508 153.755V153.755ZM200.538 102.574L200.567 102.943L200.538 102.574ZM200.751 105.17C200.751 105.369 200.779 105.567 200.794 105.752C200.794 105.553 200.765 105.354 200.751 105.17ZM200.893 107.837C200.893 108.05 200.907 108.262 200.921 108.475C200.921 108.262 200.907 108.05 200.893 107.837Z" fill="#0B5CAB"/>
<path d="M47.6487 47.6478C49.9893 45.3072 52.4718 43.1085 55.0535 41.0516L41.7193 24.3838C38.5134 26.9513 35.4493 29.6607 32.5555 32.5546C27.1935 37.9166 22.3704 43.8461 18.2 50.2153L36.0593 61.9324C39.4354 56.7831 43.3222 52.0027 47.6629 47.662L47.6487 47.6478Z" fill="#F8F5F6"/>
<path d="M181.362 96.3601C180.383 91.6931 178.95 87.2105 177.106 82.9266C175.361 78.8554 173.248 74.9828 170.808 71.3371C168.184 67.422 165.191 63.7621 161.871 60.4428C158.367 56.939 154.495 53.804 150.324 51.0804C146.409 48.5129 142.224 46.3283 137.827 44.5694C133.784 42.938 129.557 41.6614 125.174 40.7961C120.634 39.8882 115.953 39.4059 111.144 39.4059C106.08 39.4059 101.13 39.9449 96.349 40.9521C91.6821 41.9309 87.1853 43.3636 82.9155 45.2077C78.8443 46.9525 74.9717 49.0661 71.3261 51.506C67.4109 54.1303 63.7511 57.1234 60.4317 60.4428C56.9279 63.9466 53.793 67.8192 51.0694 71.9896C48.5018 75.9048 46.3173 80.0895 44.5583 84.4869C42.927 88.5298 41.6503 92.757 40.785 97.1261C39.8771 101.665 39.3948 106.361 39.3948 111.155C39.3948 116.22 39.9339 121.17 40.941 125.937C41.9198 130.604 43.3526 135.086 45.1967 139.37C46.9415 143.441 49.0551 147.314 51.495 150.96C54.1192 154.875 57.1123 158.534 60.4317 161.854C63.9355 165.358 67.8081 168.493 71.9786 171.216C75.8938 173.784 80.0784 175.968 84.4759 177.727C88.5329 179.359 92.746 180.635 97.1292 181.501C100.548 182.181 104.052 182.621 107.626 182.791C104.108 182.621 100.661 182.181 97.2995 181.515C92.9729 180.649 88.8024 179.387 84.8022 177.784C80.4614 176.039 76.3335 173.883 72.4609 171.344C68.3472 168.649 64.5171 165.556 61.0559 162.095C57.7791 158.818 54.8143 155.201 52.2184 151.328C49.8069 147.725 47.7216 143.895 45.991 139.867C44.1753 135.639 42.7568 131.199 41.7922 126.589C40.7992 121.865 40.2743 116.986 40.2743 111.978C40.2743 107.24 40.7566 102.602 41.6361 98.1191C42.5014 93.7925 43.7639 89.622 45.3669 85.6218C47.1117 81.2811 49.2678 77.1531 51.807 73.2805C54.5022 69.1668 57.5947 65.3367 61.0559 61.8755C64.3327 58.5987 67.95 55.6339 71.8226 53.038C75.4256 50.6265 79.2557 48.5413 83.2843 46.8106C87.5116 44.9949 91.9516 43.5764 96.5618 42.6118C101.286 41.6188 106.165 41.0939 111.173 41.0939C115.911 41.0939 120.549 41.5762 125.032 42.4699C129.344 43.3352 133.529 44.5977 137.529 46.2007C141.87 47.9455 145.998 50.1016 149.87 52.6408C153.984 55.336 157.814 58.4284 161.275 61.8897C164.566 65.1807 167.517 68.7838 170.113 72.6564C172.524 76.2594 174.61 80.0895 176.34 84.1181C178.156 88.3454 179.575 92.7854 180.539 97.3956C181.532 102.119 182.057 106.999 182.057 112.007C182.057 116.744 181.589 121.383 180.681 125.866C179.83 130.192 178.553 134.363 176.95 138.363C175.205 142.704 173.049 146.832 170.51 150.704C167.815 154.818 164.722 158.648 161.261 162.109C157.984 165.4 154.367 168.351 150.495 170.947C146.891 173.358 143.061 175.443 139.033 177.174C134.806 178.99 130.366 180.408 125.755 181.373C121.032 182.366 116.152 182.891 111.144 182.891C116.209 182.891 121.159 182.352 125.926 181.345C130.592 180.366 135.075 178.933 139.359 177.089C143.43 175.344 147.303 173.231 150.948 170.791C154.864 168.166 158.509 165.173 161.843 161.854C165.347 158.35 168.482 154.477 171.205 150.307C173.773 146.392 175.957 142.207 177.716 137.81C179.348 133.767 180.624 129.54 181.49 125.171C182.397 120.631 182.88 115.936 182.88 111.141C182.88 106.077 182.341 101.126 181.334 96.3601H181.362Z" fill="#EA7374"/>
<path d="M44.6142 67.7633C41.7345 72.175 39.3372 76.8278 37.4222 81.6082C35.6065 86.1617 34.2163 90.8571 33.2801 95.6233C32.2729 100.744 31.748 105.95 31.748 111.142C31.748 116.632 32.3296 122.107 33.4503 127.498C34.5142 132.576 36.0746 137.555 38.1315 142.378C40.0323 146.818 42.3303 151.131 45.0681 155.23C47.9193 159.486 51.2104 163.543 54.9695 167.302C58.9414 171.274 63.2253 174.721 67.7505 177.671C72.1621 180.551 76.8149 182.948 81.5954 184.863C86.1489 186.679 90.8442 188.069 95.6105 189.006C100.731 190.013 105.937 190.538 111.129 190.538C116.619 190.538 122.095 189.956 127.485 188.835C132.563 187.771 137.542 186.211 142.365 184.154C146.805 182.253 151.118 179.955 155.217 177.203C159.473 174.352 163.53 171.061 167.289 167.302C171.261 163.33 174.708 159.046 177.659 154.521C180.538 150.109 182.936 145.457 184.851 140.676C186.666 136.123 188.042 131.427 188.993 126.661C190 121.54 190.525 116.334 190.525 111.142C190.525 105.652 189.943 100.177 188.808 94.7864C187.744 89.7081 186.184 84.729 184.127 79.906C182.24 75.466 179.928 71.1536 177.19 67.054C174.339 62.7984 171.048 58.7414 167.289 54.9823C163.317 51.0104 159.033 47.5634 154.508 44.6128C150.096 41.7332 145.444 39.3359 140.649 37.4208C136.095 35.6051 131.4 34.2291 126.634 33.2787C121.513 32.2716 116.307 31.7467 111.115 31.7467C105.625 31.7467 100.15 32.3283 94.7594 33.4631C89.681 34.527 84.702 36.0874 79.8789 38.1443C75.4389 40.0451 71.1266 42.3432 67.027 45.0951C62.7714 47.9464 58.7144 51.2374 54.9553 54.9965C50.9834 58.9684 47.5363 63.2524 44.5858 67.7775L44.6142 67.7633ZM82.4323 44.0454C86.8723 42.1588 91.4542 40.726 96.107 39.7472C101.058 38.7117 106.108 38.1727 111.143 38.1727C115.924 38.1727 120.704 38.6408 125.414 39.577C129.797 40.4423 134.11 41.719 138.294 43.3787C142.692 45.1377 146.961 47.3364 151.019 49.9891C155.175 52.6985 159.118 55.876 162.764 59.5216C166.225 62.9687 169.247 66.6994 171.857 70.6146C174.382 74.3879 176.495 78.3456 178.24 82.431C180.127 86.871 181.56 91.4529 182.538 96.1057C183.574 101.056 184.113 106.106 184.113 111.142C184.113 115.923 183.645 120.703 182.709 125.413C181.843 129.796 180.567 134.108 178.907 138.293C177.148 142.705 174.949 146.96 172.297 151.017C169.587 155.173 166.41 159.117 162.764 162.763C159.317 166.21 155.586 169.245 151.671 171.855C147.898 174.38 143.94 176.494 139.855 178.239C135.415 180.126 130.833 181.558 126.18 182.537C121.229 183.573 116.179 184.112 111.143 184.112C106.363 184.112 101.583 183.643 96.873 182.707C92.4897 181.842 88.1774 180.579 83.9927 178.906C79.5811 177.147 75.3254 174.948 71.2684 172.295C67.1121 169.586 63.1686 166.408 59.523 162.763C56.0759 159.316 53.0403 155.585 50.4302 151.67C47.9052 147.896 45.7915 143.939 44.0468 139.853C42.1601 135.413 40.7274 130.831 39.7486 126.179C38.713 121.228 38.174 116.178 38.174 111.142C38.174 106.362 38.6421 101.581 39.5784 96.8717C40.4437 92.4884 41.7204 88.176 43.38 83.9914C45.139 79.5797 47.3377 75.3241 49.9904 71.2671C52.6998 67.1108 55.8773 63.1673 59.523 59.5216C62.9842 56.0746 66.7008 53.0389 70.6159 50.4288C74.3892 47.9038 78.3469 45.7902 82.4323 44.0454V44.0454Z" fill="#0A267F"/>
<path d="M177.104 82.9128L182.906 80.4304C181.005 76.0045 178.707 71.7773 176.055 67.8196L170.806 71.3234C173.246 74.969 175.36 78.8416 177.104 82.9128Z" fill="#E3DEDD"/>
<path d="M161.857 161.855L166.311 166.309C170.127 162.493 173.532 158.28 176.496 153.755L171.219 150.308C168.496 154.478 165.361 158.351 161.857 161.855Z" fill="#E3DEDD"/>
<path d="M44.5574 84.4729L38.6988 82.1323C36.9257 86.544 35.5355 91.14 34.5851 95.8921L40.7699 97.1262C41.6352 92.7572 42.9119 88.5299 44.5432 84.4871L44.5574 84.4729Z" fill="#E3DEDD"/>
<path d="M39.3932 111.142H33.0807C33.0807 116.66 33.6623 122.036 34.7546 127.228L40.9252 125.923C39.918 121.142 39.379 116.206 39.379 111.142H39.3932Z" fill="#E3DEDD"/>
<path d="M45.1967 139.371L39.3948 141.854C41.2957 146.279 43.5937 150.507 46.2464 154.464L51.495 150.961C49.0551 147.315 46.9414 143.442 45.1967 139.371V139.371Z" fill="#E3DEDD"/>
<path d="M60.4309 161.854L55.9767 166.309C59.7926 170.124 64.0057 173.529 68.5308 176.494L71.9778 171.217C67.8215 168.493 63.9347 165.358 60.4309 161.854Z" fill="#E3DEDD"/>
<path d="M111.142 39.3918V33.0793C105.624 33.0793 100.248 33.6609 95.0557 34.7532L96.3608 40.9238C101.141 39.9167 106.078 39.3776 111.156 39.3776L111.142 39.3918Z" fill="#E3DEDD"/>
<path d="M82.9141 45.1939L80.4317 39.3921C76.0059 41.2929 71.7786 43.591 67.8209 46.2436L71.3247 51.4922C74.9703 49.0523 78.8429 46.9387 82.9141 45.1939Z" fill="#E3DEDD"/>
<path d="M181.362 96.3607C182.369 101.141 182.908 106.078 182.908 111.142H189.221C189.221 105.624 188.639 100.248 187.547 95.0557L181.376 96.3607H181.362Z" fill="#E3DEDD"/>
<path d="M161.856 60.4286L166.31 55.9744C162.495 52.1585 158.281 48.754 153.756 45.7893L150.309 51.0663C154.48 53.7898 158.352 56.9248 161.856 60.4286V60.4286Z" fill="#E3DEDD"/>
<path d="M177.73 137.824L183.588 140.164C185.361 135.753 186.752 131.157 187.702 126.405L181.517 125.171C180.652 129.54 179.361 133.767 177.744 137.81L177.73 137.824Z" fill="#E3DEDD"/>
<path d="M84.4744 177.728L82.1338 183.587C86.5454 185.36 91.1415 186.75 95.8936 187.701L97.1277 181.516C92.7586 180.651 88.5314 179.374 84.4744 177.743V177.728Z" fill="#E3DEDD"/>
<path d="M137.825 44.556L140.166 38.6975C135.768 36.9243 131.172 35.5342 126.406 34.5837L125.172 40.7686C129.541 41.6339 133.768 42.9105 137.825 44.5419V44.556Z" fill="#E3DEDD"/>
<path d="M111.144 182.891V189.204C116.663 189.204 122.039 188.622 127.231 187.53L125.926 181.359C121.145 182.366 116.209 182.905 111.144 182.905V182.891Z" fill="#E3DEDD"/>
<path d="M139.371 177.103L141.854 182.905C146.279 181.004 150.507 178.706 154.464 176.053L150.961 170.805C147.315 173.245 143.442 175.358 139.371 177.103Z" fill="#E3DEDD"/>
<path d="M22.486 125.284C22.5286 125.525 22.5569 125.766 22.5853 126.008C22.5428 125.766 22.5144 125.525 22.486 125.284Z" fill="#0B6038"/>
<path d="M174.638 174.636C178.978 170.295 182.865 165.514 186.241 160.365C182.865 165.514 178.978 170.295 174.638 174.636Z" fill="#0B6038"/>
<path d="M84.9293 197.034C87.3266 197.757 89.7665 198.395 92.2489 198.92C89.7665 198.395 87.3266 197.757 84.9293 197.034Z" fill="#0B6038"/>
<path d="M81.3691 195.856C82.3337 196.197 83.3125 196.509 84.3054 196.821C83.3267 196.523 82.3479 196.197 81.3691 195.856Z" fill="#0B6038"/>
<path d="M199.703 96.29L199.76 96.6447L199.703 96.29Z" fill="#0B6038"/>
<path d="M41.4917 54.4847C39.5625 56.8537 37.761 59.3219 36.0729 61.8895C37.761 59.3219 39.5625 56.8537 41.4917 54.4847Z" fill="#F8F7F7"/>
<path d="M44.4852 50.9952C43.5489 52.045 42.6269 53.1089 41.7332 54.2011C42.6269 53.1089 43.5348 52.045 44.4852 50.9952Z" fill="#F8F7F7"/>
<path d="M188.594 188.594C185.743 191.445 182.707 194.126 179.558 196.651L180.565 197.914C183.771 195.346 186.835 192.637 189.729 189.743C195.091 184.381 199.914 178.451 204.099 172.082L202.751 171.188C198.623 177.458 193.885 183.303 188.594 188.594V188.594Z" fill="url(#paint0_linear_2464_290)"/>
<path d="M70.4025 212.836C65.4092 210.836 60.6004 208.467 56.0043 205.786L55.1816 207.19C59.8486 209.914 64.7283 212.311 69.8067 214.34C75.5659 216.652 81.5805 218.482 87.7795 219.815L88.12 218.241C82.0203 216.936 76.0908 215.12 70.4166 212.85L70.4025 212.836Z" fill="url(#paint1_linear_2464_290)"/>
<path d="M211.86 68.0471C214.668 74.5866 216.839 81.4523 218.342 88.5733C218.952 91.5097 219.449 94.5028 219.832 97.5243L221.435 97.3257C221.052 94.2617 220.555 91.226 219.931 88.2471C218.413 81.0267 216.2 74.0475 213.363 67.423C212.838 66.1889 212.271 64.9831 211.704 63.7773L210.242 64.4724C210.81 65.664 211.363 66.8556 211.888 68.0613L211.86 68.0471Z" fill="url(#paint2_linear_2464_290)"/>
<path d="M151.883 9.44636C156.876 11.4465 161.685 13.8154 166.281 16.4965L167.089 15.0921C162.422 12.3685 157.543 9.97122 152.478 7.94271C146.705 5.6305 140.705 3.80059 134.506 2.46716L134.165 4.04174C140.265 5.34679 146.194 7.16251 151.868 9.43217L151.883 9.44636Z" fill="url(#paint3_linear_2464_290)"/>
<path d="M2.46825 124.774C1.91502 120.305 1.61713 115.766 1.61713 111.156C1.61713 103.822 2.34058 96.6726 3.71656 89.736C5.0358 83.0547 6.96501 76.6004 9.44745 70.4155C12.1427 63.6917 15.4762 57.3083 19.3914 51.3221L19.5332 51.0951L18.1856 50.2014L18.0296 50.4284C14.0577 56.4997 10.6674 62.9824 7.9438 69.7914C5.43299 76.0613 3.46123 82.6149 2.1278 89.3955C0.737638 96.4315 0 103.694 0 111.127C0 115.809 0.297893 120.419 0.865308 124.958L2.46825 124.76V124.774Z" fill="#0A267F"/>
<path d="M56.0044 205.786C54.4156 204.864 52.8553 203.9 51.3232 202.892C44.9682 198.736 39.0529 193.941 33.705 188.594C28.6267 183.515 24.059 177.94 20.0445 171.954C17.0514 167.472 14.3846 162.748 12.0724 157.84L10.6113 158.535C12.966 163.528 15.6613 168.323 18.6969 172.862C22.7539 178.933 27.4067 184.593 32.556 189.743C37.989 195.176 43.9752 200.041 50.4437 204.254C52.0041 205.276 53.5787 206.254 55.1958 207.191L56.0186 205.786H56.0044Z" fill="#0A267F"/>
<path d="M179.56 196.651C177.106 198.609 174.581 200.496 171.956 202.255C166.396 205.971 160.466 209.205 154.239 211.872C147.699 214.681 140.834 216.851 133.713 218.355C126.421 219.887 118.875 220.696 111.144 220.696C103.81 220.696 96.6605 219.972 89.7239 218.596C89.1848 218.497 88.6458 218.369 88.1067 218.256L87.7663 219.83C88.3053 219.944 88.8586 220.071 89.4118 220.171C96.4477 221.561 103.711 222.298 111.144 222.298C119.002 222.298 126.663 221.476 134.053 219.93C141.273 218.412 148.253 216.199 154.877 213.362C161.19 210.652 167.204 207.39 172.85 203.602C175.503 201.815 178.07 199.914 180.567 197.914L179.56 196.651V196.651Z" fill="#0A267F"/>
<path d="M221.435 97.3248L219.832 97.5234C220.386 101.992 220.684 106.531 220.684 111.141C220.684 118.475 219.96 125.625 218.584 132.561C217.265 139.243 215.336 145.697 212.853 151.882C210.158 158.606 206.824 164.989 202.909 170.975L202.767 171.202L204.115 172.096L204.271 171.869C208.243 165.798 211.633 159.315 214.357 152.506C216.868 146.236 218.839 139.682 220.173 132.902C221.563 125.866 222.301 118.603 222.301 111.17C222.301 106.489 222.003 101.878 221.435 97.339V97.3248Z" fill="#0A267F"/>
<path d="M166.296 16.4971C167.885 17.4192 169.445 18.3838 170.977 19.3909C177.332 23.5472 183.247 28.3419 188.595 33.6898C193.674 38.7681 198.241 44.343 202.256 50.3292C205.249 54.8118 207.902 59.5355 210.228 64.4436L211.689 63.7485C209.334 58.7553 206.639 53.9606 203.589 49.4213C199.518 43.35 194.879 37.69 189.73 32.5408C184.297 27.1078 178.297 22.2422 171.842 18.0291C170.282 17.0078 168.707 16.029 167.09 15.0928L166.282 16.4971H166.296Z" fill="#0A267F"/>
<path d="M42.7262 25.6471C45.1803 23.6895 47.7052 21.8029 50.3295 20.0439C55.8902 16.3273 61.8197 13.0931 68.047 10.4262C74.5865 7.61753 81.4522 5.44717 88.5733 3.94353C95.8645 2.41151 103.411 1.60294 111.156 1.60294C118.49 1.60294 125.64 2.32639 132.576 3.70237C133.115 3.81586 133.654 3.92934 134.193 4.04282L134.534 2.46825C133.995 2.35477 133.442 2.2271 132.888 2.1278C125.852 0.737638 118.589 0 111.156 0C103.298 0 95.6376 0.822748 88.247 2.36895C81.0266 3.88678 74.0474 6.0997 67.4229 8.93677C61.1104 11.6462 55.0958 14.9088 49.4501 18.6963C46.7974 20.4695 44.2298 22.3845 41.7332 24.3704L42.7404 25.6329L42.7262 25.6471Z" fill="#0A267F"/>
<path d="M33.7042 33.7036C36.5555 30.8523 39.5911 28.1713 42.7403 25.6463L41.7331 24.3838C38.5272 26.9513 35.4632 29.6607 32.5694 32.5546C27.2073 37.9166 22.3843 43.8461 18.2138 50.2153L19.5614 51.109C23.6894 44.8391 28.4273 38.9947 33.7184 33.7177L33.7042 33.7036Z" fill="url(#paint4_linear_2464_290)"/>
<path d="M130.237 204.821C130.237 202.325 132.265 200.296 134.762 200.296C137.258 200.296 139.287 202.325 139.287 204.821C139.287 207.318 137.258 209.346 134.762 209.346C132.265 209.346 130.237 207.318 130.237 204.821Z" fill="#F8F7F7"/>
<path d="M84.2892 17.4762C84.2892 14.9796 86.3178 12.951 88.8144 12.951C91.311 12.951 93.3395 14.9796 93.3395 17.4762C93.3395 19.9728 91.311 22.0013 88.8144 22.0013C86.3178 22.0013 84.2892 19.9728 84.2892 17.4762Z" fill="#F8F7F7"/>
<path d="M11.8165 94.1616C11.8165 91.665 13.845 89.6365 16.3417 89.6365C18.8383 89.6365 20.8668 91.665 20.8668 94.1616C20.8668 96.6582 18.8383 98.6867 16.3417 98.6867C13.845 98.6867 11.8165 96.6582 11.8165 94.1616Z" fill="#F8F7F7"/>
<path d="M37.0536 177.955C37.0536 175.458 39.0821 173.43 41.5788 173.43C44.0754 173.43 46.1039 175.458 46.1039 177.955C46.1039 180.452 44.0754 182.48 41.5788 182.48C39.0821 182.48 37.0536 180.452 37.0536 177.955Z" fill="#F8F7F7"/>
<path d="M200.127 133.314C200.127 130.817 202.156 128.789 204.652 128.789C207.149 128.789 209.177 130.817 209.177 133.314C209.177 135.811 207.149 137.839 204.652 137.839C202.156 137.839 200.127 135.811 200.127 133.314Z" fill="#F8F7F7"/>
<path d="M177.799 46.9108C177.799 44.4141 179.828 42.3856 182.324 42.3856C184.821 42.3856 186.849 44.4141 186.849 46.9108C186.849 49.4074 184.821 51.4359 182.324 51.4359C179.828 51.4359 177.799 49.4074 177.799 46.9108Z" fill="#F8F7F7"/>
<path d="M171.247 150.335C173.857 146.349 176.013 142.15 177.744 137.824C179.389 133.71 180.637 129.469 181.489 125.171C182.396 120.546 182.864 115.851 182.864 111.141C182.864 106.191 182.34 101.226 181.318 96.3601C180.368 91.7782 178.949 87.2815 177.091 82.9124C175.375 78.8979 173.289 75.0111 170.821 71.2946C170.24 70.4293 169.644 69.5781 169.02 68.7412C168.835 68.4859 168.637 68.2305 168.438 67.961C167.984 67.3652 167.516 66.7694 167.048 66.1737C166.835 65.9041 166.622 65.6346 166.395 65.3793C165.785 64.6416 165.175 63.9182 164.523 63.2089L164.31 62.9536C163.516 62.0883 162.707 61.223 161.87 60.386C160.991 59.5065 160.083 58.6412 159.161 57.8185L158.934 57.6199C158.168 56.939 157.388 56.2723 156.607 55.6339C156.324 55.407 156.04 55.18 155.756 54.953C155.132 54.4565 154.508 53.9742 153.87 53.5061C153.6 53.3075 153.316 53.0948 153.047 52.8962C152.153 52.2578 151.245 51.6195 150.337 51.0237C146.351 48.4278 142.153 46.2574 137.826 44.5268C133.712 42.8813 129.471 41.633 125.173 40.7819C120.548 39.8598 115.853 39.4059 111.158 39.4059C106.207 39.4059 101.242 39.9307 96.3764 40.9521C91.7945 41.9167 87.2978 43.321 82.9287 45.1793C78.9142 46.8958 75.0274 48.981 71.3109 51.4492C67.4666 54.0168 63.8068 56.9957 60.4165 60.386C56.8276 63.9749 53.721 67.8475 51.0542 71.9329C48.4583 75.919 46.2879 80.1179 44.5573 84.4444C42.9118 88.5581 41.6635 92.7996 40.8124 97.0977C39.9045 101.722 39.4364 106.417 39.4364 111.127C39.4364 116.078 39.9613 121.043 40.9826 125.908C41.9472 130.49 43.3516 134.987 45.2098 139.356C46.9263 143.37 49.0115 147.257 51.4798 150.974C52.0614 151.839 52.6571 152.69 53.2813 153.527C53.4657 153.782 53.6643 154.038 53.8629 154.307C54.3168 154.903 54.7849 155.499 55.2531 156.095C55.4658 156.364 55.6786 156.634 55.8914 156.889C56.5014 157.627 57.1255 158.35 57.7639 159.059C58.615 160.01 59.4945 160.946 60.4165 161.868C64.0054 165.457 67.878 168.564 71.9634 171.23C75.9495 173.826 80.1484 175.997 84.4749 177.727C88.5886 179.373 92.8301 180.621 97.1282 181.472C101.753 182.394 106.448 182.848 111.158 182.848C116.108 182.848 121.073 182.323 125.939 181.302C130.521 180.337 135.031 178.933 139.386 177.075C143.401 175.358 147.288 173.273 151.004 170.805C154.848 168.237 158.508 165.258 161.899 161.868C165.487 158.279 168.594 154.407 171.261 150.321L171.247 150.335Z" fill="#0A4293"/>
<path d="M169.557 69.5071C169.43 69.3227 169.302 69.1524 169.174 68.968C169.302 69.1382 169.43 69.3227 169.557 69.5071Z" fill="url(#paint5_linear_2464_290)"/>
<path d="M168.184 67.6351C167.858 67.2096 167.517 66.7698 167.177 66.3442C167.517 66.7698 167.843 67.1954 168.184 67.6351Z" fill="url(#paint6_linear_2464_290)"/>
<path d="M166.337 65.3095C165.756 64.6144 165.174 63.9193 164.564 63.2384C165.174 63.9193 165.77 64.6002 166.337 65.3095Z" fill="url(#paint7_linear_2464_290)"/>
<path d="M158.92 57.6199C158.196 56.9674 157.445 56.3433 156.693 55.7191C157.445 56.3291 158.182 56.9674 158.92 57.6199Z" fill="url(#paint8_linear_2464_290)"/>
<path d="M155.6 54.8405C155.146 54.4859 154.692 54.1312 154.238 53.7908C154.692 54.1312 155.146 54.4859 155.6 54.8405Z" fill="url(#paint9_linear_2464_290)"/>
<path d="M152.805 52.7552C152.62 52.6275 152.436 52.4999 152.252 52.3722C152.436 52.4999 152.62 52.6275 152.805 52.7552Z" fill="url(#paint10_linear_2464_290)"/>
<path d="M52.7269 152.775C52.8545 152.96 52.9822 153.144 53.1099 153.314C52.9822 153.13 52.8545 152.945 52.7269 152.775Z" fill="url(#paint11_linear_2464_290)"/>
<path d="M54.1177 154.648C54.4439 155.088 54.7844 155.513 55.1248 155.939C54.7844 155.513 54.4439 155.088 54.1177 154.648Z" fill="url(#paint12_linear_2464_290)"/>
<path d="M170.792 71.324L176.04 67.8202C173.189 63.5504 169.927 59.5927 166.309 55.9755L161.855 60.4297C165.174 63.749 168.168 67.4089 170.792 71.324Z" fill="#0A4293"/>
<path d="M181.36 96.3612L187.53 95.0561C186.467 89.992 184.906 85.098 182.906 80.431L177.104 82.9135C178.948 87.1974 180.381 91.6942 181.36 96.347V96.3612Z" fill="#0A4293"/>
<path d="M40.9391 125.938L34.7684 127.243C35.8323 132.307 37.3927 137.201 39.3929 141.868L45.1947 139.385C43.3506 135.101 41.9178 130.605 40.9391 125.952V125.938Z" fill="#0A4293"/>
<path d="M40.783 97.113L34.5982 95.8789C33.6194 100.815 33.0945 105.922 33.0945 111.142H39.407C39.407 106.348 39.8893 101.652 40.7972 97.113H40.783Z" fill="#0A4293"/>
<path d="M51.493 150.961L46.2444 154.464C49.0956 158.72 52.3583 162.692 55.9755 166.309L60.4297 161.855C57.1104 158.536 54.1173 154.876 51.493 150.961Z" fill="#0A4293"/>
<path d="M71.9766 171.217L68.5295 176.494C72.7851 179.289 77.3386 181.658 82.1191 183.587L84.4597 177.728C80.0622 175.955 75.8776 173.771 71.9624 171.217H71.9766Z" fill="#0A4293"/>
<path d="M51.0816 71.9766L45.8047 68.5295C43.0101 72.7851 40.6412 77.3386 38.712 82.1191L44.5705 84.4597C46.3437 80.0622 48.5282 75.8776 51.0816 71.9624V71.9766Z" fill="#0A4293"/>
<path d="M96.3612 40.9389L95.0562 34.7683C89.9778 35.8322 85.0981 37.3926 80.4311 39.3927L82.9135 45.1945C87.1975 43.3505 91.6943 41.9177 96.3471 40.9389H96.3612Z" fill="#0A4293"/>
<path d="M71.3241 51.4928L67.8203 46.2443C63.5647 49.0955 59.5928 52.3582 55.9755 55.9754L60.4297 60.4296C63.7491 57.1102 67.4089 54.1171 71.3241 51.4928V51.4928Z" fill="#0A4293"/>
<path d="M181.502 125.172L187.686 126.406C188.665 121.469 189.19 116.363 189.19 111.142H182.878C182.878 115.937 182.395 120.632 181.487 125.172H181.502Z" fill="#0A4293"/>
<path d="M150.308 51.0815L153.755 45.8046C149.5 43.0101 144.946 40.6411 140.166 38.7119L137.825 44.5705C142.222 46.3436 146.407 48.5282 150.322 51.0815H150.308Z" fill="#0A4293"/>
<path d="M171.217 150.308L176.494 153.755C179.289 149.499 181.658 144.946 183.587 140.166L177.728 137.825C175.955 142.222 173.771 146.407 171.217 150.322V150.308Z" fill="#0A4293"/>
<path d="M125.172 40.7829L126.406 34.5981C121.469 33.6193 116.363 33.0945 111.142 33.0945V39.407C115.937 39.407 120.632 39.8893 125.172 40.7971V40.7829Z" fill="#0A4293"/>
<path d="M97.113 181.502L95.8789 187.686C100.815 188.665 105.922 189.19 111.142 189.19V182.878C106.348 182.878 101.652 182.395 97.113 181.487V181.502Z" fill="#0A4293"/>
<path d="M125.938 181.36L127.243 187.53C132.307 186.467 137.201 184.906 141.868 182.906L139.385 177.104C135.101 178.948 130.605 180.381 125.952 181.36H125.938Z" fill="#0A4293"/>
<path d="M150.961 170.792L154.464 176.04C158.734 173.189 162.706 169.926 166.309 166.309L161.855 161.855C158.536 165.174 154.876 168.167 150.961 170.792Z" fill="#0A4293"/>
<path d="M55.9613 156.975C56.5429 157.67 57.1387 158.365 57.7487 159.046C57.1387 158.365 56.5429 157.67 55.9613 156.975Z" fill="#0A4293"/>
<path d="M179.858 96.6729C178.894 92.1052 177.504 87.7078 175.702 83.5231C173.986 79.537 171.915 75.7495 169.531 72.1748C166.964 68.3448 164.042 64.77 160.779 61.5216C157.346 58.0887 153.559 55.0247 149.488 52.3579C145.657 49.8471 141.558 47.7051 137.26 45.9744C133.302 44.3857 129.16 43.1232 124.876 42.2721C123.883 42.0735 122.876 41.9033 121.869 41.7472C121.557 41.7047 121.244 41.6621 120.932 41.6054C120.195 41.5061 119.471 41.4068 118.734 41.3358C118.407 41.2933 118.067 41.2649 117.727 41.2365C116.804 41.1514 115.868 41.0805 114.932 41.0238L114.606 40.9954C113.457 40.9387 112.308 40.9103 111.145 40.9103C109.925 40.9103 108.705 40.9386 107.485 41.0096L107.187 41.038C106.18 41.0947 105.187 41.1798 104.194 41.2791C103.839 41.3075 103.499 41.35 103.144 41.3926C102.364 41.4777 101.598 41.577 100.832 41.6905C100.505 41.733 100.165 41.7898 99.8388 41.8465C98.7749 42.0167 97.711 42.2153 96.6754 42.4281C92.1078 43.3927 87.7103 44.7971 83.5256 46.5844C79.5395 48.3008 75.752 50.3719 72.1773 52.755C68.3473 55.3226 64.7726 58.259 61.5241 61.5074C58.0913 64.9403 55.0272 68.7278 52.3604 72.799C49.8496 76.629 47.7076 80.7286 45.977 85.0267C44.3882 88.9844 43.1399 93.1266 42.2888 97.3964C41.4093 101.836 40.927 106.432 40.927 111.128C40.927 116.093 41.4519 120.93 42.4306 125.597C43.3953 130.165 44.7996 134.562 46.587 138.747C48.3034 142.733 50.3745 146.52 52.7576 150.095C55.3251 153.925 58.2615 157.5 61.51 160.748C64.9428 164.181 68.7303 167.245 72.8015 169.912C76.6315 172.423 80.7311 174.565 85.0293 176.295C88.987 177.884 93.1291 179.132 97.4131 179.998C98.4061 180.196 99.4132 180.366 100.42 180.523C100.732 180.565 101.045 180.608 101.357 180.65C102.08 180.749 102.818 180.849 103.555 180.92C103.882 180.962 104.222 180.991 104.548 181.019C105.47 181.104 106.407 181.175 107.343 181.232C108.591 181.303 109.854 181.345 111.116 181.345C116.081 181.345 120.918 180.82 125.585 179.842C130.153 178.877 134.55 177.473 138.735 175.685C142.721 173.969 146.509 171.898 150.083 169.515C153.913 166.947 157.488 164.011 160.736 160.762C164.169 157.329 167.233 153.542 169.9 149.471C172.411 145.641 174.553 141.541 176.284 137.243C177.872 133.285 179.135 129.143 179.986 124.873C180.866 120.433 181.348 115.837 181.348 111.142C181.348 106.177 180.823 101.34 179.844 96.6729H179.858Z" fill="#0B5CAB"/>
<path d="M170.522 225.902C170.309 225.873 170.096 225.831 169.883 225.788C170.096 225.817 170.309 225.859 170.522 225.902Z" fill="#0E854D"/>
<path d="M168.281 225.56C167.756 225.489 167.231 225.418 166.692 225.361C167.217 225.418 167.742 225.489 168.281 225.56Z" fill="#0E854D"/>
<path d="M165.388 225.221C164.509 225.136 163.615 225.065 162.735 225.022C163.629 225.079 164.509 225.136 165.388 225.221Z" fill="#0E854D"/>
<path d="M150.72 225.404C150.167 225.475 149.599 225.546 149.046 225.617C149.599 225.532 150.152 225.461 150.72 225.404Z" fill="#0E854D"/>
<path d="M147.343 225.886C147.13 225.929 146.918 225.972 146.705 226C146.918 225.957 147.13 225.915 147.343 225.886Z" fill="#0E854D"/>
<path d="M60.4314 60.4295L55.9772 55.9753C52.1613 59.7912 48.7569 64.0042 45.7921 68.5294L51.0691 71.9764C53.7927 67.8201 56.9276 63.9333 60.4314 60.4295V60.4295Z" fill="#E3DEDD"/>
<defs>
<linearGradient id="paint0_linear_2464_290" x1="202.885" y1="190.852" x2="193.408" y2="181.374" gradientUnits="userSpaceOnUse">
<stop stop-color="#8D8E90"/>
<stop offset="0.08" stop-color="#9A9B9D"/>
<stop offset="0.37" stop-color="#C5C6C7"/>
<stop offset="0.63" stop-color="#E5E5E5"/>
<stop offset="0.85" stop-color="#F8F8F8"/>
<stop offset="1" stop-color="white"/>
</linearGradient>
<linearGradient id="paint1_linear_2464_290" x1="72.2408" y1="221.634" x2="74.7559" y2="215.119" gradientUnits="userSpaceOnUse">
<stop stop-color="#8D8E90"/>
<stop offset="0.08" stop-color="#9A9B9D"/>
<stop offset="0.37" stop-color="#C5C6C7"/>
<stop offset="0.63" stop-color="#E5E5E5"/>
<stop offset="0.85" stop-color="#F8F8F8"/>
<stop offset="1" stop-color="white"/>
</linearGradient>
<linearGradient id="paint2_linear_2464_290" x1="225.974" y1="76.5458" x2="214.193" y2="79.2657" gradientUnits="userSpaceOnUse">
<stop stop-color="#8D8E90"/>
<stop offset="0.08" stop-color="#9A9B9D"/>
<stop offset="0.37" stop-color="#C5C6C7"/>
<stop offset="0.63" stop-color="#E5E5E5"/>
<stop offset="0.85" stop-color="#F8F8F8"/>
<stop offset="1" stop-color="white"/>
</linearGradient>
<linearGradient id="paint3_linear_2464_290" x1="153.513" y1="-2.97853" x2="148.917" y2="8.14897" gradientUnits="userSpaceOnUse">
<stop stop-color="#8D8E90"/>
<stop offset="0.08" stop-color="#9A9B9D"/>
<stop offset="0.37" stop-color="#C5C6C7"/>
<stop offset="0.63" stop-color="#E5E5E5"/>
<stop offset="0.85" stop-color="#F8F8F8"/>
<stop offset="1" stop-color="white"/>
</linearGradient>
<linearGradient id="paint4_linear_2464_290" x1="19.4418" y1="29.7296" x2="30.2706" y2="39.7607" gradientUnits="userSpaceOnUse">
<stop stop-color="#8D8E90"/>
<stop offset="0.08" stop-color="#9A9B9D"/>
<stop offset="0.37" stop-color="#C5C6C7"/>
<stop offset="0.63" stop-color="#E5E5E5"/>
<stop offset="0.85" stop-color="#F8F8F8"/>
<stop offset="1" stop-color="white"/>
</linearGradient>
<linearGradient id="paint5_linear_2464_290" x1="167.887" y1="69.1884" x2="168.709" y2="70.0111" gradientUnits="userSpaceOnUse">
<stop stop-color="#52A858"/>
<stop offset="1" stop-color="#185D39"/>
</linearGradient>
<linearGradient id="paint6_linear_2464_290" x1="166.244" y1="65.8981" x2="167.889" y2="67.5434" gradientUnits="userSpaceOnUse">
<stop stop-color="#52A858"/>
<stop offset="1" stop-color="#185D39"/>
</linearGradient>
<linearGradient id="paint7_linear_2464_290" x1="163.773" y1="63.4307" x2="165.419" y2="65.0761" gradientUnits="userSpaceOnUse">
<stop stop-color="#52A858"/>
<stop offset="1" stop-color="#185D39"/>
</linearGradient>
<linearGradient id="paint8_linear_2464_290" x1="156.371" y1="56.0253" x2="158.016" y2="57.6707" gradientUnits="userSpaceOnUse">
<stop stop-color="#52A858"/>
<stop offset="1" stop-color="#185D39"/>
</linearGradient>
<linearGradient id="paint9_linear_2464_290" x1="153.902" y1="53.558" x2="154.724" y2="54.3807" gradientUnits="userSpaceOnUse">
<stop stop-color="#52A858"/>
<stop offset="1" stop-color="#185D39"/>
</linearGradient>
<linearGradient id="paint10_linear_2464_290" x1="151.433" y1="52.7353" x2="151.433" y2="52.7353" gradientUnits="userSpaceOnUse">
<stop stop-color="#52A858"/>
<stop offset="1" stop-color="#185D39"/>
</linearGradient>
<linearGradient id="paint11_linear_2464_290" x1="51.8854" y1="152.282" x2="52.708" y2="153.105" gradientUnits="userSpaceOnUse">
<stop stop-color="#52A858"/>
<stop offset="1" stop-color="#185D39"/>
</linearGradient>
<linearGradient id="paint12_linear_2464_290" x1="52.7087" y1="154.75" x2="54.3541" y2="156.396" gradientUnits="userSpaceOnUse">
<stop stop-color="#52A858"/>
<stop offset="1" stop-color="#185D39"/>
</linearGradient>
</defs>
</svg>
