<svg width="281" height="209" viewBox="0 0 281 209" fill="none" xmlns="http://www.w3.org/2000/svg">
<path d="M280.211 84.3068C280.386 84.336 280.561 84.3652 280.75 84.3944C280.575 84.3652 280.4 84.336 280.211 84.3068Z" fill="#0E854D"/>
<path d="M184.527 160.382C158.789 208.457 99.2455 223.412 51.5494 193.779C3.85321 164.161 -13.9471 101.174 11.7904 53.0981C37.5279 5.02262 97.0715 -9.93258 144.768 19.7006C192.478 49.3192 210.279 112.306 184.527 160.382Z" fill="#61022A"/>
<path d="M141.369 26.0483C146.914 29.4916 152.035 33.431 156.675 37.7644L160.133 31.3008C155.42 27.0404 150.299 23.1448 144.754 19.716C139.225 16.2727 133.52 13.4421 127.742 11.1952L124.284 17.6588C130.091 19.8181 135.811 22.6195 141.369 26.0628V26.0483Z" fill="white"/>
<path d="M187.781 128.575L195.062 128.794C196.025 122.622 196.448 116.231 196.258 109.68C196.083 103.129 195.295 96.7093 193.997 90.4646L186.687 90.2457C189.517 102.823 189.955 115.867 187.766 128.575H187.781Z" fill="white"/>
<path d="M6.96011 80.2219L1.25525 84.7012C0.292279 90.8729 -0.130843 97.2636 0.0588325 103.815C0.248508 110.366 1.02181 116.786 2.32036 123.03L8.02522 118.551C10.1846 104.719 9.33835 93.2366 6.9747 80.2219H6.96011Z" fill="#E5E5E5"/>
<path d="M138.786 199.761L133.081 204.241C138.757 202.329 144.301 199.834 149.656 196.727C155.01 193.619 159.927 190.015 164.407 186.032L167.748 182.049C159.913 183.712 144.651 192.67 138.786 199.776V199.761Z" fill="#ABABAB"/>
<path d="M55.5051 186.265C49.9607 182.822 47.7138 178.444 42.4466 176.533L36.7272 181.012C41.4399 185.273 46.5611 189.168 52.1055 192.612C57.6353 196.055 63.3401 198.886 69.1179 201.133L74.8228 196.653C70.9126 193.166 61.0494 189.708 55.4905 186.265H55.5051Z" fill="#D0D0D0"/>
<path d="M192.289 155.902C166.552 203.977 107.008 218.933 59.3119 189.299C11.6158 159.681 -6.18455 96.6939 19.553 48.6184C45.2905 0.542884 104.834 -14.4123 152.53 15.2209C200.241 44.8395 218.041 107.826 192.289 155.902Z" fill="#B60554"/>
<path d="M153.595 131.872C139.384 158.412 106.512 166.67 80.1761 150.314C53.8404 133.959 44.0064 99.1896 58.2321 72.6496C72.4432 46.1096 105.315 37.8514 131.651 54.2073C157.987 70.5631 167.821 105.332 153.595 131.872Z" fill="#0E854D"/>
<path d="M159.49 42.5056L167.894 26.8209C163.181 22.5605 158.06 18.6648 152.516 15.2361C146.986 11.7927 141.281 8.9622 135.503 6.71527L127.099 22.4146" fill="#F8F5F6"/>
<path d="M80.2787 20.9835L70.9992 4.75897C65.3235 6.67032 59.7791 9.16528 54.4244 12.273C49.0697 15.3808 44.1528 18.9847 39.6735 22.9678L48.953 39.1924" fill="#F8F5F6"/>
<path d="M107.592 14.8857C107.651 17.2347 105.885 19.0877 103.624 19.0294C101.362 18.9564 99.4799 17.0013 99.4216 14.6522C99.3632 12.3032 101.129 10.4502 103.39 10.5231C105.652 10.5961 107.534 12.5512 107.592 14.9003V14.8857Z" fill="#F8F5F6"/>
<path d="M33.9101 52.7181C35.8944 53.9583 36.6385 56.5846 35.5588 58.5835C34.4937 60.5824 32.0133 61.2098 30.0145 59.9696C28.0302 58.7294 27.286 56.1177 28.3657 54.1042C29.4454 52.1053 31.9258 51.478 33.9101 52.7181Z" fill="#F8F5F6"/>
<path d="M32.2325 140.085C34.1584 138.962 36.6826 139.735 37.8644 141.807C39.0462 143.879 38.448 146.461 36.5366 147.585C34.6107 148.708 32.0866 147.935 30.9047 145.863C29.7229 143.791 30.3211 141.209 32.2325 140.085Z" fill="#F8F5F6"/>
<path d="M104.238 189.635C104.179 187.286 105.945 185.433 108.206 185.506C110.468 185.579 112.35 187.534 112.408 189.883C112.467 192.232 110.701 194.085 108.44 194.027C106.178 193.954 104.296 191.999 104.238 189.65V189.635Z" fill="#F8F5F6"/>
<path d="M177.918 151.817C175.934 150.577 175.19 147.95 176.255 145.951C177.335 143.952 179.815 143.325 181.8 144.565C183.784 145.805 184.528 148.417 183.448 150.431C182.369 152.43 179.888 153.057 177.904 151.831L177.918 151.817Z" fill="#F8F5F6"/>
<path d="M179.596 64.435C177.671 65.5439 175.146 64.7706 173.965 62.7133C172.783 60.6415 173.381 58.059 175.307 56.9355C177.233 55.812 179.742 56.5853 180.939 58.6572C182.121 60.729 181.522 63.3115 179.596 64.435Z" fill="#F8F5F6"/>
<path d="M204.065 110.292C203.599 125.569 199.805 140.772 192.335 154.72C166.583 202.796 107.054 217.751 59.3575 188.132C25.8578 167.326 7.09454 130.062 7.82406 93.0611C6.67142 130.442 25.4639 168.289 59.3137 189.314C107.01 218.933 166.553 203.978 192.291 155.917C199.951 141.603 203.759 125.977 204.065 110.307V110.292Z" fill="#3B143F"/>
<path d="M74.2824 161.154C44.2407 142.493 31.4449 104.237 44.5033 72.1669C58.5101 37.7919 97.452 23.3327 131.302 39.9221C133.417 40.958 135.518 42.1252 137.532 43.3654C167.574 62.0266 180.37 100.283 167.311 132.353C153.304 166.728 114.362 181.187 80.5125 164.597C78.3969 163.561 76.2959 162.394 74.2824 161.154V161.154ZM135.591 46.9984C133.709 45.8312 131.74 44.7369 129.741 43.7594C97.9627 28.1914 61.4282 41.7605 48.2822 74.0199C36.0117 104.12 48.0196 140.012 76.2229 157.521C78.1051 158.688 80.0748 159.783 82.0591 160.76C113.837 176.328 150.372 162.759 163.518 130.5C175.774 100.399 163.766 64.507 135.577 46.9984H135.591Z" fill="#0B6038"/>
<path d="M171.952 98.7664C171.456 94.3017 170.536 89.8954 169.238 85.5912C167.589 80.1344 165.313 74.8672 162.453 69.8919C160.221 66.0108 157.653 62.3195 154.72 58.8761C150.839 54.3093 146.375 50.1802 141.37 46.6055C140.115 45.7155 138.846 44.8401 137.533 44.023C135.519 42.7683 133.433 41.6156 131.303 40.5797C130.777 40.3171 130.238 40.0836 129.712 39.8502C123.759 37.1218 117.675 35.3125 111.606 34.4079C107.097 33.7368 102.589 33.5617 98.1531 33.8535C91.4707 34.2766 84.9634 35.7794 78.85 38.2452C74.6917 39.9231 70.7085 42.0533 67.0026 44.6067C62.2898 47.8603 58.0002 51.7851 54.2651 56.352C51.4637 59.7807 48.9979 63.545 46.8969 67.6595C46.0361 69.3374 45.2336 71.0445 44.5041 72.8246C43.1618 76.122 42.0967 79.4924 41.2942 82.892C40.2437 87.3129 39.6455 91.7921 39.4704 96.2714C39.2807 101.042 39.5725 105.799 40.3166 110.497C41.0316 114.933 42.155 119.295 43.6578 123.541C45.3795 128.414 47.6119 133.127 50.3257 137.577C52.6456 141.385 55.3302 145.003 58.3358 148.374C61.8959 152.357 65.9083 155.99 70.3583 159.171C71.6277 160.075 72.9263 160.965 74.2686 161.797C76.2821 163.052 78.3685 164.204 80.4987 165.24C80.9948 165.488 81.5054 165.707 82.0161 165.941C87.327 168.392 92.7401 170.084 98.1531 171.062C102.662 171.879 107.155 172.215 111.606 172.069C117.777 171.879 123.832 170.77 129.566 168.844C133.827 167.414 137.912 165.518 141.764 163.183C146.462 160.338 150.825 156.851 154.677 152.751C157.697 149.541 160.425 145.952 162.789 142.027C164.496 139.196 165.999 136.191 167.297 133.01C168.1 131.055 168.8 129.071 169.398 127.072C170.711 122.738 171.587 118.318 172.025 113.882C172.535 108.834 172.506 103.771 171.952 98.7518V98.7664Z" fill="url(#paint0_radial_2464_147)"/>
<path d="M167.193 99.0578C166.726 94.9141 165.88 90.8288 164.669 86.8456C163.137 81.7827 161.021 76.8949 158.366 72.2697C156.294 68.6805 153.901 65.2517 151.202 62.0564C147.613 57.8106 143.455 53.9879 138.815 50.6759C137.662 49.8442 136.48 49.0417 135.255 48.283C133.387 47.1304 131.447 46.0507 129.477 45.0877C128.981 44.8397 128.485 44.6354 128.003 44.402C122.488 41.8632 116.842 40.1999 111.195 39.3537C107.008 38.7263 102.835 38.5658 98.7203 38.8284C92.5193 39.2224 86.4789 40.6085 80.8032 42.8992C76.9367 44.4604 73.26 46.4301 69.802 48.8083C65.4249 51.8285 61.4417 55.4761 57.9838 59.7074C55.3867 62.8881 53.096 66.3898 51.1408 70.1979C50.353 71.7445 49.5943 73.3348 48.9231 74.9981C47.6683 78.0621 46.6908 81.1845 45.9467 84.3506C44.9691 88.4505 44.4146 92.6088 44.2542 96.7671C44.0791 101.188 44.3417 105.609 45.042 109.971C45.6986 114.086 46.7491 118.142 48.1352 122.081C49.7402 126.605 51.812 130.982 54.3216 135.096C56.4809 138.627 58.9613 141.997 61.7481 145.12C65.0455 148.811 68.7807 152.182 72.9098 155.129C74.0916 155.975 75.288 156.792 76.5428 157.565C78.4104 158.718 80.3509 159.798 82.3206 160.761C82.7875 160.994 83.2544 161.184 83.7213 161.403C88.6383 163.679 93.672 165.24 98.7057 166.159C102.893 166.918 107.066 167.224 111.181 167.093C116.915 166.918 122.517 165.897 127.843 164.102C131.797 162.774 135.59 161.009 139.165 158.849C143.528 156.209 147.569 152.969 151.144 149.176C153.945 146.199 156.484 142.873 158.672 139.225C160.248 136.599 161.649 133.812 162.86 130.85C163.604 129.041 164.246 127.203 164.815 125.35C166.041 121.323 166.843 117.223 167.252 113.108C167.718 108.425 167.689 103.727 167.179 99.0724L167.193 99.0578Z" fill="#B60554"/>
<path d="M61.5757 144.493L58.3366 146.944C61.8967 150.927 65.909 154.56 70.3591 157.741L72.1975 154.035C68.2873 151.204 64.7418 148.009 61.5757 144.507V144.493Z" fill="#61022A"/>
<path d="M98.1548 36.6836V32.394C91.4724 32.8172 84.965 34.32 78.8516 36.7858L80.7922 40.6522C86.2928 38.4637 92.1435 37.1213 98.1402 36.6836H98.1548Z" fill="#61022A"/>
<path d="M68.957 47.0284L67.0019 43.1473C62.2892 46.401 57.9996 50.3258 54.2644 54.8926L57.6202 57.5335C60.9615 53.4774 64.7841 49.9611 68.957 47.0138V47.0284Z" fill="#61022A"/>
<path d="M47.6702 121.337L43.6579 122.111C45.3795 126.984 47.6119 131.697 50.3257 136.147L53.5648 133.71C51.1865 129.771 49.2168 125.627 47.6702 121.337V121.337Z" fill="#61022A"/>
<path d="M43.5417 95.8038L39.4709 94.8408C39.2813 99.6119 39.5731 104.368 40.3172 109.067L44.3004 108.293C43.6584 104.164 43.4104 99.9912 43.5417 95.8038Z" fill="#61022A"/>
<path d="M165.256 84.9053L169.24 84.132C167.591 78.6752 165.315 73.408 162.455 68.4327L159.216 70.8839C161.74 75.3339 163.768 80.0467 165.256 84.9053V84.9053Z" fill="#61022A"/>
<path d="M167.997 111.475L172.038 112.438C172.549 107.389 172.52 102.326 171.965 97.3073L167.953 98.0806C168.42 102.516 168.434 107.01 168.011 111.475H167.997Z" fill="#61022A"/>
<path d="M151.483 59.8678L154.722 57.4312C150.841 52.8644 146.376 48.7353 141.371 45.1606L139.533 48.8666C143.998 52.0911 147.995 55.7825 151.497 59.8678H151.483Z" fill="#61022A"/>
<path d="M127.874 42.1107L129.713 38.4048C123.76 35.6764 117.676 33.8671 111.606 32.9625V37.2229C117.063 38.0692 122.52 39.6887 127.874 42.1107V42.1107Z" fill="#61022A"/>
<path d="M48.2846 73.2322C48.8974 71.7439 49.5686 70.2995 50.2689 68.8842L46.884 66.2142C46.0231 67.8921 45.2206 69.5992 44.4911 71.3792C43.1488 74.6766 42.0837 78.047 41.2812 81.4466L45.3228 82.4096C46.0669 79.3018 47.0444 76.2378 48.27 73.2322H48.2846Z" fill="#61022A"/>
<path d="M139.824 157.872L141.764 161.738C146.462 158.893 150.825 155.406 154.677 151.306L151.292 148.636C147.834 152.24 143.982 155.333 139.824 157.872Z" fill="#61022A"/>
<path d="M163.518 129.713C162.336 132.602 160.964 135.345 159.432 137.927L162.788 140.582C164.495 137.752 165.998 134.746 167.297 131.566C168.099 129.61 168.799 127.626 169.398 125.627L165.327 124.664C164.802 126.357 164.204 128.049 163.518 129.713Z" fill="#61022A"/>
<path d="M111.606 166.364V170.624C117.778 170.434 123.833 169.325 129.567 167.399L127.612 163.518C122.476 165.196 117.107 166.159 111.606 166.364V166.364Z" fill="#61022A"/>
<path d="M83.856 160.79L82.0176 164.496C87.3286 166.947 92.7416 168.639 98.1547 169.617V165.342C93.3544 164.437 88.5542 162.92 83.856 160.79V160.79Z" fill="#61022A"/>
<path d="M111.605 37.2238V32.9634C107.096 32.2923 102.588 32.1172 98.1523 32.409V36.6986C102.573 36.3776 107.082 36.5381 111.605 37.2384V37.2238Z" fill="#E3DEDD"/>
<path d="M98.1523 165.342V169.617C102.661 170.434 107.155 170.77 111.605 170.624V166.364C107.169 166.524 102.661 166.203 98.1523 165.342V165.342Z" fill="#E3DEDD"/>
<path d="M80.8045 40.6521L78.864 36.7856C74.7057 38.4635 70.7225 40.5937 67.0166 43.147L68.9717 47.0281C72.6631 44.431 76.6463 42.3008 80.8191 40.6521H80.8045Z" fill="#E3DEDD"/>
<path d="M127.612 163.519L129.568 167.4C133.828 165.97 137.913 164.073 141.765 161.738L139.825 157.872C135.987 160.221 131.887 162.118 127.612 163.519V163.519Z" fill="#E3DEDD"/>
<path d="M57.6217 57.5476L54.2659 54.9067C51.4645 58.3355 48.9987 62.0998 46.8977 66.2143L50.2827 68.8844C52.3545 64.7407 54.8203 60.9618 57.6217 57.5476Z" fill="#E3DEDD"/>
<path d="M151.291 148.636L154.676 151.306C157.696 148.096 160.424 144.507 162.788 140.582L159.432 137.927C157.083 141.881 154.355 145.441 151.291 148.636V148.636Z" fill="#E3DEDD"/>
<path d="M45.3368 82.4104L41.2952 81.4474C40.2447 85.8683 39.6465 90.3476 39.4714 94.8268L43.5421 95.7898C43.6735 91.2959 44.2717 86.8167 45.3368 82.3958V82.4104Z" fill="#E3DEDD"/>
<path d="M167.998 111.475C167.575 115.91 166.685 120.331 165.328 124.664L169.399 125.627C170.712 121.294 171.587 116.873 172.025 112.438L167.984 111.475H167.998Z" fill="#E3DEDD"/>
<path d="M44.301 108.294L40.3178 109.068C41.0327 113.503 42.1562 117.866 43.659 122.112L47.6714 121.338C46.1394 117.107 45.0013 112.73 44.3156 108.294H44.301Z" fill="#E3DEDD"/>
<path d="M167.939 98.0803L171.951 97.307C171.455 92.8423 170.536 88.436 169.237 84.1318L165.254 84.9051C166.567 89.1947 167.486 93.6156 167.939 98.0803Z" fill="#E3DEDD"/>
<path d="M53.565 133.71L50.3259 136.146C52.6458 139.955 55.3304 143.573 58.336 146.943L61.5751 144.492C58.5403 141.136 55.8557 137.518 53.5504 133.695L53.565 133.71Z" fill="#E3DEDD"/>
<path d="M159.2 70.8843L162.439 68.4331C160.207 64.5521 157.639 60.8607 154.706 57.4174L151.467 59.854C154.415 63.2827 156.982 66.9887 159.186 70.8697L159.2 70.8843Z" fill="#E3DEDD"/>
<path d="M82.0604 159.973C80.0761 158.996 78.1064 157.916 76.2242 156.734C74.8382 155.874 73.5104 154.969 72.2119 154.021L70.3735 157.727C71.6428 158.631 72.9414 159.521 74.2837 160.353C76.2972 161.608 78.3836 162.76 80.5138 163.796C81.0099 164.044 81.5206 164.263 82.0312 164.496L83.8696 160.791C83.2714 160.513 82.6732 160.251 82.075 159.959L82.0604 159.973Z" fill="#E3DEDD"/>
<path d="M129.742 42.9724C131.741 43.9499 133.696 45.0442 135.593 46.2115C136.95 47.0577 138.248 47.9477 139.532 48.8669L141.371 45.1609C140.116 44.2709 138.847 43.3955 137.533 42.5784C135.52 41.3237 133.434 40.171 131.303 39.1351C130.778 38.8725 130.238 38.639 129.713 38.4056L127.875 42.1116C128.502 42.3888 129.129 42.666 129.757 42.9724H129.742Z" fill="#E3DEDD"/>
<path d="M51.2436 159.812L42.8395 175.497C47.5522 179.757 52.6734 183.653 58.2178 187.096C63.7476 190.54 69.4524 193.37 75.2303 195.617L83.6343 179.918" fill="#F8F5F6"/>
<path d="M131.551 183.537L140.83 199.761C146.491 197.85 152.05 195.355 157.405 192.247C162.759 189.14 167.676 185.536 172.156 181.553L162.876 165.328" fill="#F8F5F6"/>
<path d="M185.127 123.774L202.811 124.3C203.774 118.128 204.197 111.737 204.007 105.186C203.832 98.6351 203.044 92.2153 201.746 85.9706L184.048 85.4453" fill="#F8F5F6"/>
<path d="M26.704 80.747L9.02038 80.2217C8.05742 86.3935 7.63429 92.7841 7.82397 99.3352C7.99905 105.886 8.78694 112.306 10.0855 118.551L27.7691 119.076" fill="#F8F5F6"/>
<defs>
<radialGradient id="paint0_radial_2464_147" cx="0" cy="0" r="1" gradientUnits="userSpaceOnUse" gradientTransform="translate(105.915 102.925) scale(67.8601 67.8601)">
<stop stop-color="#930549"/>
<stop offset="1" stop-color="#61022A"/>
</radialGradient>
</defs>
</svg>
