<svg width="242" height="194" viewBox="0 0 242 194" fill="none" xmlns="http://www.w3.org/2000/svg">
<path d="M169.536 122.898C168.442 122.111 167.348 121.325 166.287 120.497C160.531 116.032 155.169 110.968 150.292 105.334C148.277 103.008 146.348 100.577 144.516 98.0591L143.175 99.0375C145.039 101.593 146.995 104.053 149.034 106.423C153.98 112.141 159.428 117.279 165.26 121.803C166.339 122.642 167.452 123.441 168.564 124.24L169.536 122.898Z" fill="url(#paint0_linear_2464_59)"/>
<path d="M185.857 44.1047C183.848 42.8556 181.409 41.9348 178.59 41.3358C175.916 40.7567 172.901 40.4672 169.601 40.4474C166.057 40.4293 162.186 40.7265 158.053 41.3359C153.695 41.9812 149.03 42.9757 144.16 44.3063C139.57 45.5594 134.801 47.0908 129.896 48.9204C125.377 50.6024 120.755 52.5202 116.061 54.6899C114.97 55.1949 113.875 55.7132 112.772 56.2362C112.43 56.4037 112.097 56.5663 111.755 56.7338C110.964 57.1168 110.169 57.5131 109.379 57.918C109.02 58.0949 108.661 58.2717 108.307 58.4571C107.316 58.9622 106.322 59.4806 105.319 60.0037L104.978 60.1929C103.757 60.8257 102.533 61.4935 101.314 62.1699C100.027 62.8841 98.749 63.6154 97.493 64.3457L97.1776 64.5207C96.148 65.1366 95.1184 65.7524 94.0888 66.3683C93.7317 66.5888 93.3745 66.8092 93.0042 67.0258C92.2047 67.514 91.4186 68.0059 90.6324 68.4979C90.2923 68.7089 89.957 68.9284 89.6169 69.1394C88.538 69.8272 87.4638 70.5235 86.4115 71.2189C81.8249 74.2654 77.5034 77.3878 73.4934 80.5493C69.6729 83.5498 66.1374 86.5817 62.9163 89.6176C59.447 92.8693 56.3308 96.1145 53.6266 99.2984C50.7727 102.655 48.3876 105.951 46.4721 109.11C44.6799 112.089 43.3243 114.971 42.4497 117.675C41.6407 120.175 41.236 122.54 41.2821 124.733C41.3273 127.005 41.8365 129.108 42.8676 130.966C43.9555 132.927 45.5738 134.538 47.6317 135.815C49.6404 137.064 52.08 137.985 54.9034 138.593C57.5771 139.172 60.5919 139.461 63.8833 139.486C67.4275 139.504 71.2987 139.207 75.4313 138.597C79.794 137.961 84.4552 136.958 89.3296 135.635C93.9105 134.387 98.6885 132.851 103.593 131.021C108.112 129.339 112.734 127.422 117.433 125.26C118.524 124.755 119.619 124.237 120.717 123.706C121.056 123.551 121.393 123.375 121.735 123.208C122.526 122.825 123.32 122.429 124.115 122.032C124.469 121.847 124.828 121.67 125.187 121.493C126.178 120.988 127.172 120.47 128.175 119.947C129.502 119.244 130.842 118.523 132.18 117.78C137.397 114.886 142.368 111.849 147.074 108.736C151.661 105.69 155.982 102.567 159.992 99.4058C163.813 96.4053 167.348 93.3733 170.574 90.3459C174.047 87.081 177.155 83.8405 179.868 80.6519C182.721 77.2957 185.111 74.0075 187.017 70.8317C188.818 67.848 190.17 64.9796 191.04 62.2672C191.849 59.7669 192.253 57.4018 192.207 55.2087C192.162 52.9371 191.644 50.8384 190.613 48.9801C189.521 47.0108 187.907 45.4088 185.844 44.1227L185.857 44.1047ZM113.755 55.7577C113.524 55.8636 113.293 55.9695 113.067 56.084C113.293 55.9695 113.524 55.8636 113.755 55.7577ZM111.31 56.9362C110.741 57.218 110.173 57.4999 109.605 57.7818C110.173 57.4999 110.741 57.218 111.31 56.9362ZM108.199 58.4836C107.251 58.965 106.308 59.455 105.36 59.9583C106.308 59.455 107.251 58.965 108.199 58.4836ZM97.1596 64.5084C96.1632 65.0836 95.1847 65.671 94.211 66.2671C95.1894 65.6796 96.1679 65.0921 97.1596 64.5084ZM92.7987 67.1176C92.2247 67.4695 91.6554 67.83 91.0899 68.1772C91.6506 67.8214 92.2247 67.4695 92.7987 67.1176ZM89.3479 69.2775C89.1225 69.4137 88.915 69.5622 88.6896 69.6985C88.9018 69.5584 89.1225 69.4137 89.3479 69.2775ZM119.732 124.141C119.964 124.035 120.203 123.924 120.43 123.81C120.198 123.915 119.959 124.026 119.732 124.141ZM122.178 122.962C122.746 122.68 123.315 122.398 123.891 122.112C123.315 122.398 122.746 122.68 122.178 122.962ZM125.292 121.401C126.24 120.92 127.192 120.425 128.139 119.922C127.192 120.425 126.24 120.92 125.292 121.401Z" fill="#E01E43"/>
<path d="M130.646 46.5759C134.499 45.1406 138.276 43.87 141.96 42.7736L147.954 31.5542C143.408 32.9058 138.728 34.4769 133.952 36.2574C128.523 38.2883 122.97 40.5778 117.35 43.1275L117.239 52.1306C121.78 50.0679 126.265 48.204 130.654 46.5711L130.646 46.5759Z" fill="#F7F6FA"/>
<path d="M50.0602 99.7841C51.6634 97.8912 53.4228 95.9784 55.2997 94.0563L40.679 95.0331C38.3634 97.4104 36.1871 99.7775 34.2021 102.128C30.5134 106.471 27.4014 110.728 24.9287 114.832L42.5759 110.046C44.5804 106.727 47.0907 103.294 50.0734 99.7879L50.0602 99.7841Z" fill="#F8F5F6"/>
<path d="M175.075 51.2581C173.375 50.2052 171.317 49.4295 168.939 48.9206C166.684 48.4327 164.138 48.1842 161.361 48.1637C158.376 48.1479 155.114 48.397 151.618 48.9093C147.941 49.4555 144.002 50.2923 139.887 51.4159C136.022 52.4677 131.993 53.7666 127.844 55.3106C124.03 56.7355 120.128 58.3431 116.169 60.1713C112.057 62.0629 107.897 64.1703 103.728 66.4832C99.3212 68.9285 95.124 71.4914 91.1522 74.1188C87.2827 76.6894 83.6385 79.3245 80.2443 81.9882C77.0235 84.5223 74.0393 87.0811 71.3127 89.6419C68.3844 92.3816 65.7571 95.1214 63.4726 97.816C61.0679 100.655 59.0485 103.426 57.4354 106.105C55.9199 108.618 54.7757 111.037 54.0406 113.329C53.3633 115.444 53.0214 117.44 53.0573 119.293C53.096 121.211 53.5297 122.977 54.4 124.546C55.3176 126.2 56.6851 127.559 58.4202 128.637C60.1193 129.69 62.1774 130.465 64.5558 130.974C66.8158 131.471 69.3619 131.719 72.142 131.727C75.1275 131.742 78.3983 131.488 81.8851 130.981C85.5622 130.435 89.497 129.589 93.6167 128.474C97.4863 127.431 101.51 126.124 105.651 124.584C109.465 123.159 113.371 121.539 117.325 119.724C120.423 118.295 123.539 116.756 126.683 115.089C123.598 116.723 120.522 118.251 117.475 119.652C113.568 121.452 109.705 123.049 105.938 124.459C101.845 125.983 97.8632 127.266 94.0457 128.303C89.9819 129.398 86.0907 130.242 82.4524 130.778C79.0006 131.288 75.782 131.535 72.8182 131.519C70.0636 131.497 67.5573 131.26 65.3238 130.771C62.9805 130.265 60.9356 129.493 59.2677 128.456C57.5506 127.391 56.2011 126.044 55.293 124.407C54.3848 122.77 54.0079 121.107 53.9701 119.21C53.9352 117.379 54.2696 115.409 54.9439 113.329C55.6715 111.064 56.7996 108.676 58.3027 106.181C59.8912 103.538 61.8812 100.795 64.2746 97.9954C66.5344 95.3368 69.1238 92.6291 72.0228 89.9169C74.7115 87.3882 77.6662 84.8569 80.8492 82.355C84.197 79.7282 87.7986 77.1167 91.6302 74.5783C95.5508 71.9793 99.7015 69.4533 104.058 67.0364C108.184 64.7471 112.292 62.6681 116.354 60.8049C120.269 59.0003 124.119 57.3993 127.891 55.9981C131.984 54.4739 135.965 53.1902 139.792 52.1488C143.851 51.045 147.738 50.2148 151.376 49.679C154.82 49.1733 158.047 48.9213 161.011 48.9381C163.76 48.9509 166.271 49.1966 168.505 49.6855C170.857 50.1867 172.885 50.9681 174.566 52.0087C176.291 53.0692 177.632 54.4212 178.54 56.058C179.401 57.6094 179.834 59.3539 179.863 61.2553C179.898 63.0866 179.564 65.056 178.89 67.136C178.162 69.4015 177.025 71.7937 175.531 74.2842C173.942 76.9271 171.944 79.6748 169.564 82.4783C167.304 85.1369 164.71 87.836 161.815 90.5568C159.127 93.0855 156.172 95.6168 152.989 98.1187C149.646 100.754 146.04 103.357 142.208 105.895C138.287 108.494 134.137 111.02 129.789 113.433C134.196 110.987 138.385 108.429 142.357 105.802C146.231 103.24 149.87 100.596 153.265 97.9323C156.485 95.3983 159.47 92.8395 162.196 90.2786C165.12 87.5304 167.747 84.7906 170.036 82.1045C172.441 79.2651 174.46 76.4946 176.074 73.8158C177.584 71.2941 178.729 68.8753 179.464 66.5833C180.146 64.4768 180.488 62.4809 180.452 60.6278C180.413 58.7094 179.979 56.9431 179.109 55.3746C178.187 53.7123 176.824 52.3612 175.084 51.2751L175.075 51.2581Z" fill="#EA7374"/>
<path d="M51.0607 107.835C49.3538 110.667 48.1204 113.347 47.3236 115.829C46.5743 118.196 46.2237 120.397 46.2661 122.403C46.3199 124.569 46.8093 126.516 47.7553 128.221C48.7485 130.011 50.2495 131.531 52.2089 132.752C54.0472 133.895 56.3107 134.779 58.976 135.363C61.4253 135.9 64.2138 136.203 67.3433 136.217C70.5911 136.244 74.1886 135.976 78.1346 135.392C82.3061 134.772 86.6605 133.839 91.1248 132.622C95.486 131.439 99.9533 129.986 104.467 128.296C108.758 126.685 113.083 124.876 117.388 122.888C122.022 120.752 126.635 118.416 131.161 115.904C135.927 113.26 140.588 110.429 145.069 107.452C149.282 104.657 153.333 101.751 157.154 98.7509C160.67 95.986 163.996 93.1594 167.072 90.2825C170.256 87.3005 173.176 84.2645 175.76 81.2254C178.493 78.014 180.705 74.9473 182.448 72.0403C184.15 69.2005 185.393 66.5375 186.185 64.0467C186.943 61.6751 187.285 59.4785 187.238 57.4644C187.189 55.3064 186.686 53.3555 185.745 51.659C184.747 49.8603 183.251 48.3492 181.291 47.1285C179.44 45.9818 177.189 45.1008 174.524 44.517C172.07 43.9722 169.286 43.6771 166.157 43.6631C162.914 43.6452 159.312 43.9046 155.365 44.4886C151.203 45.1037 146.853 46.0454 142.375 47.2588C138.014 48.4409 133.547 49.8939 129.033 51.5845C124.746 53.1824 120.412 54.9962 116.108 56.9833C111.473 59.1198 106.861 61.4562 102.342 63.963C97.5771 66.607 92.9206 69.447 88.4354 72.415C84.222 75.2099 80.1753 78.1241 76.35 81.1161C72.8336 83.8811 69.5075 86.7076 66.437 89.5931C63.2528 92.575 60.3328 95.6111 57.7489 98.6502C55.0154 101.862 52.8036 104.928 51.056 107.827L51.0607 107.835ZM79.6193 81.8442C83.1272 79.084 86.8481 76.4063 90.7223 73.8442C94.8381 71.1146 99.1252 68.513 103.507 66.0818C107.667 63.7737 111.904 61.6237 116.157 59.665C120.124 57.832 124.098 56.1733 128.041 54.6993C132.185 53.1467 136.296 51.8138 140.307 50.7252C144.414 49.6063 148.418 48.7449 152.251 48.1789C155.881 47.6477 159.191 47.4052 162.168 47.4258C165.045 47.4463 167.605 47.7204 169.861 48.2084C172.31 48.7447 174.387 49.5545 176.078 50.6122C177.88 51.7305 179.253 53.1204 180.171 54.7742C181.036 56.3342 181.497 58.1298 181.539 60.1135C181.575 61.9666 181.264 63.9787 180.568 66.1599C179.841 68.4473 178.707 70.9048 177.13 73.5079C175.526 76.182 173.486 78.997 170.977 81.95C168.606 84.7487 165.924 87.5302 162.995 90.2699C160.172 92.9177 157.12 95.5144 153.882 98.0579C150.369 100.81 146.653 103.496 142.779 106.058C138.658 108.779 134.376 111.389 129.994 113.82C125.834 116.128 121.597 118.278 117.34 120.25C113.382 122.079 109.399 123.742 105.456 125.216C101.307 126.76 97.2017 128.102 93.19 129.19C89.0836 130.309 85.0796 131.17 81.2463 131.736C77.6212 132.276 74.3192 132.514 71.3337 132.498C68.457 132.478 65.8967 132.203 63.6367 131.707C61.1874 131.171 59.1103 130.361 57.4197 129.303C55.6174 128.185 54.2442 126.795 53.3266 125.141C52.409 123.487 52 121.786 51.9537 119.793C51.9093 117.945 52.2323 115.915 52.92 113.738C53.6466 111.451 54.789 108.989 56.3575 106.39C57.9668 103.725 60.0013 100.901 62.5018 97.953C64.8782 95.1629 67.5689 92.3766 70.4973 89.637C73.3205 86.9891 76.3729 84.3924 79.6108 81.8489L79.6193 81.8442Z" fill="url(#paint1_linear_2464_59)"/>
<path d="M103.732 66.4702L102.588 64.4072C97.7969 67.0654 93.2257 69.8581 88.91 72.7098L91.1648 74.101C95.1366 71.4737 99.3337 68.9108 103.741 66.4655L103.732 66.4702Z" fill="#E3DEDD"/>
<path d="M80.2534 81.9834L77.0419 81.2791C73.534 84.0393 70.2846 86.8233 67.3231 89.6037L71.3171 89.6286C74.0351 87.0725 77.0278 84.509 80.2487 81.9749L80.2534 81.9834Z" fill="#E3DEDD"/>
<path d="M127.838 55.3021L128.811 52.2536C124.662 53.7976 120.422 55.5594 116.112 57.538L116.168 60.1496C120.126 58.3214 124.028 56.7138 127.842 55.2889L127.838 55.3021Z" fill="#E3DEDD"/>
<path d="M133.698 37.0448C138.396 35.2852 143.013 33.7385 147.489 32.403L147.946 31.5586C143.4 32.9102 138.72 34.4814 133.944 36.2618C128.515 38.2928 122.962 40.5822 117.342 43.132L117.332 43.8175C122.871 41.3018 128.346 39.0332 133.698 37.0448V37.0448Z" fill="url(#paint2_linear_2464_59)"/>
<path d="M147.496 32.3986C149.039 31.944 150.578 31.5027 152.087 31.0887C158.364 29.3792 164.374 28.0957 169.995 27.274C175.324 26.491 180.313 26.0979 184.879 26.1288C188.292 26.1524 191.458 26.4136 194.373 26.9038L195.52 25.9774C192.571 25.4844 189.356 25.2165 185.886 25.191C181.254 25.1629 176.196 25.5502 170.784 26.3455C165.077 27.1927 158.984 28.4885 152.609 30.2198C151.069 30.6394 149.521 31.0854 147.953 31.5542L147.496 32.3986V32.3986Z" fill="url(#paint3_linear_2464_59)"/>
<path d="M41.7883 94.9633C43.56 93.133 45.4188 91.2989 47.378 89.4648C51.5351 85.564 56.0976 81.6501 61.0283 77.7771C66.195 73.7063 71.7697 69.6879 77.6843 65.7596C83.7391 61.7423 90.1612 57.8446 96.8872 54.1127C103.255 50.5795 109.606 47.3569 115.875 44.4694C116.363 44.2434 116.855 44.0259 117.343 43.7998L117.353 43.1143C116.857 43.345 116.364 43.5626 115.868 43.7933C109.505 46.7328 103.064 49.9942 96.6025 53.5795C89.7742 57.3681 83.2678 61.3349 77.1277 65.3994C71.1279 69.3751 65.4688 73.4626 60.2264 77.5977C55.2284 81.5303 50.6025 85.4906 46.3781 89.451C44.3895 91.3125 42.5098 93.1693 40.7088 95.0271L41.8138 94.9491L41.7883 94.9633Z" fill="url(#paint4_linear_2464_59)"/>
<path d="M35.3989 101.954C37.3594 99.6396 39.5025 97.3133 41.7887 94.9634L40.6836 95.0414C38.3681 97.4187 36.1917 99.7858 34.2067 102.136C30.518 106.479 27.4061 110.737 24.9334 114.84L26.2706 114.477C28.7111 110.436 31.7775 106.237 35.4122 101.958L35.3989 101.954Z" fill="url(#paint5_linear_2464_59)"/>
<path d="M176.09 73.7845C177.625 71.2268 178.748 68.809 179.463 66.5614C180.148 64.4199 180.459 62.4297 180.412 60.6163C180.363 58.6591 179.921 56.8976 179.069 55.3631C178.171 53.7434 176.812 52.3791 175.049 51.2722C173.381 50.2354 171.336 49.4417 168.935 48.912C166.714 48.4269 164.198 48.151 161.374 48.1456C160.715 48.1434 160.039 48.1506 159.35 48.1758C159.141 48.1804 158.923 48.1897 158.705 48.1991C158.205 48.2206 157.687 48.2516 157.169 48.2825C156.934 48.3013 156.707 48.3154 156.459 48.3304C155.798 48.385 155.129 48.4443 154.447 48.5215L154.212 48.5404C153.369 48.6289 152.511 48.7487 151.635 48.8779C150.707 49.0138 149.758 49.1724 148.805 49.3442L148.571 49.3848C147.783 49.532 146.991 49.6926 146.191 49.8579C145.901 49.9183 145.625 49.9825 145.335 50.043C144.7 50.1837 144.064 50.3245 143.425 50.4785C143.148 50.5427 142.872 50.6069 142.6 50.6797C141.706 50.897 140.808 51.1275 139.898 51.3761C135.964 52.4439 131.923 53.7608 127.852 55.284C123.973 56.7335 120.063 58.3676 116.178 60.1665C111.989 62.1006 107.829 64.208 103.746 66.4736C99.4408 68.8622 95.2304 71.4213 91.1866 74.0998C87.3806 76.624 83.7231 79.2554 80.274 81.9607C77.0995 84.4578 74.0936 87.0176 71.3206 89.6153C68.4472 92.3133 65.8067 95.0494 63.472 97.7941C60.9999 100.693 59.0023 103.463 57.4262 106.088C55.8908 108.645 54.7684 111.063 54.0532 113.311C53.3769 115.447 53.0652 117.438 53.104 119.256C53.1531 121.213 53.6038 122.97 54.4552 124.504C55.3538 126.124 56.7129 127.488 58.4754 128.595C60.1433 129.632 62.1758 130.422 64.5854 130.947C66.8056 131.432 69.3176 131.699 72.1507 131.722C72.8098 131.724 73.4859 131.717 74.1743 131.692C74.3836 131.687 74.6014 131.678 74.8192 131.668C75.3201 131.647 75.838 131.616 76.356 131.585C76.5909 131.566 76.8257 131.547 77.0605 131.528C77.7215 131.474 78.391 131.415 79.0813 131.333C79.998 131.236 80.9355 131.118 81.8938 130.976C85.6581 130.426 89.5882 129.572 93.6302 128.478C97.568 127.397 101.605 126.093 105.677 124.57C109.555 123.121 113.456 121.491 117.355 119.696C121.536 117.767 125.704 115.655 129.787 113.389C134.092 111 138.303 108.441 142.355 105.758C146.161 103.234 149.819 100.603 153.276 97.8925C156.451 95.3953 159.457 92.8356 162.23 90.2378C165.108 87.5483 167.744 84.8037 170.078 82.059C172.542 79.1647 174.548 76.3904 176.129 73.7741L176.09 73.7845ZM159.948 48.1676L159.529 48.1768L159.948 48.1676ZM158.419 48.2245C158.057 48.2357 157.691 48.2601 157.313 48.2807C157.678 48.2563 158.057 48.2357 158.419 48.2245ZM156.39 48.3465C155.76 48.3954 155.125 48.4575 154.474 48.5291C155.125 48.4575 155.76 48.3954 156.39 48.3465ZM148.55 49.4075C147.793 49.5491 147.04 49.6992 146.278 49.8541C147.04 49.6992 147.801 49.5444 148.55 49.4075ZM145.159 50.1073C144.701 50.2055 144.238 50.317 143.785 50.4237C144.238 50.317 144.705 50.214 145.159 50.1073ZM142.355 50.7601C142.169 50.8073 141.984 50.8545 141.807 50.897C141.984 50.8545 142.169 50.8073 142.355 50.7601ZM73.5474 131.727L73.9792 131.722L73.5474 131.727ZM75.09 131.674C75.4602 131.658 75.8257 131.634 76.196 131.618C75.8172 131.638 75.4517 131.663 75.09 131.674ZM77.1136 131.544C77.7442 131.495 78.3834 131.441 79.0435 131.365C78.3919 131.436 77.7442 131.495 77.1136 131.544Z" fill="url(#paint6_radial_2464_59)"/>
<path d="M173.827 52.0842C172.164 51.0559 170.145 50.2916 167.824 49.7847C165.608 49.3081 163.132 49.0653 160.404 49.0515C157.476 49.0376 154.287 49.2792 150.866 49.784C147.258 50.3142 143.414 51.1425 139.389 52.2273C135.602 53.2583 131.659 54.5317 127.608 56.0322C123.876 57.423 120.06 59.0051 116.178 60.7908C115.28 61.2003 114.373 61.6363 113.467 62.0723C113.185 62.2066 112.907 62.3495 112.625 62.4838C111.975 62.7997 111.317 63.1203 110.668 63.458C110.373 63.6103 110.074 63.7541 109.779 63.9064C108.964 64.3254 108.14 64.7492 107.321 65.1814L107.039 65.3375C106.028 65.8653 105.017 66.4149 104.011 66.9731C102.946 67.5643 101.893 68.1593 100.859 68.7667L100.595 68.9133C99.7393 69.4213 98.884 69.9293 98.0504 70.4364C97.7483 70.6152 97.4508 70.8025 97.1572 70.9766C96.4979 71.3759 95.8481 71.7921 95.2021 72.1952C94.9217 72.373 94.6414 72.5509 94.3695 72.724C93.4772 73.286 92.5944 73.865 91.7248 74.4478C87.9358 76.9626 84.3674 79.5334 81.0499 82.1545C77.8963 84.629 74.9757 87.1414 72.3031 89.6388C69.4382 92.3321 66.8649 95.0086 64.6345 97.6397C62.2752 100.42 60.3013 103.132 58.7289 105.744C57.2419 108.208 56.1261 110.577 55.4062 112.816C54.7441 114.878 54.405 116.839 54.439 118.649C54.4759 120.524 54.8992 122.251 55.7553 123.794C56.6539 125.414 57.9855 126.749 59.6932 127.797C61.3563 128.825 63.3747 129.589 65.6915 130.088C67.8984 130.569 70.3877 130.816 73.111 130.821C76.0398 130.835 79.2281 130.593 82.6496 130.089C86.2576 129.558 90.1015 128.73 94.1264 127.645C97.9137 126.614 101.856 125.341 105.907 123.84C109.64 122.45 113.455 120.867 117.337 119.082C118.236 118.672 119.142 118.236 120.049 117.8C120.331 117.666 120.608 117.523 120.891 117.389C121.54 117.073 122.199 116.752 122.847 116.415C123.142 116.262 123.441 116.119 123.736 115.966C124.56 115.542 125.384 115.119 126.203 114.686C127.309 114.107 128.404 113.51 129.504 112.9C133.809 110.511 137.926 108.004 141.804 105.429C145.593 102.914 149.17 100.338 152.479 97.7218C155.628 95.2389 158.553 92.735 161.221 90.229C164.077 87.5404 166.659 84.8593 168.889 82.2281C171.249 79.4474 173.223 76.7356 174.79 74.1154C176.277 71.6514 177.393 69.282 178.113 67.0429C178.775 64.9809 179.114 63.0201 179.08 61.2105C179.043 59.3356 178.62 57.6082 177.769 56.0738C176.865 54.4456 175.538 53.1192 173.826 52.0625L173.827 52.0842ZM114.276 61.7016C114.092 61.7924 113.895 61.8794 113.711 61.9702C113.903 61.8747 114.092 61.7924 114.276 61.7016ZM112.262 62.6739C111.787 62.9037 111.326 63.1374 110.852 63.3672C111.321 63.1288 111.796 62.899 112.262 62.6739ZM109.694 63.9537C108.913 64.3538 108.131 64.7539 107.346 65.1672C108.131 64.7539 108.908 64.3452 109.694 63.9537ZM100.582 68.9313C99.7649 69.4071 98.9522 69.8915 98.1442 70.3844C98.9436 69.8962 99.7564 69.4119 100.582 68.9313ZM96.9791 71.0977C96.5074 71.3929 96.0309 71.6795 95.5677 71.97C96.0309 71.6795 96.5027 71.3844 96.9791 71.0977ZM94.1317 72.8782C93.9489 72.9908 93.7708 73.1119 93.588 73.2245C93.7708 73.1119 93.9489 72.9908 94.1317 72.8782ZM119.227 118.189C119.42 118.093 119.608 118.011 119.8 117.916C119.608 118.011 119.42 118.093 119.227 118.189ZM121.25 117.212C121.724 116.982 122.194 116.744 122.668 116.514C122.199 116.752 121.724 116.982 121.25 117.212ZM123.826 115.927C124.607 115.527 125.397 115.122 126.182 114.709C125.397 115.122 124.612 115.536 123.826 115.927Z" fill="#0D9DDA"/>
<path d="M210.073 32.2518L192.142 43.3378C191.419 42.6794 190.634 42.0672 189.742 41.5251C187.617 40.2068 185.044 39.2263 182.08 38.5855C181.533 38.465 180.953 38.3633 180.377 38.2702L195.512 25.982C192.562 25.4889 189.348 25.2211 185.877 25.1955C181.246 25.1674 176.187 25.5548 170.776 26.3501C165.069 27.1973 158.976 28.4931 152.6 30.2243C151.061 30.6439 149.513 31.09 147.945 31.5588L141.95 42.7783C138.271 43.8832 134.489 45.1452 130.637 46.5805C126.255 48.2087 121.762 50.0773 117.221 52.14L117.332 43.1369C116.835 43.3677 116.343 43.5852 115.847 43.816C109.484 46.7555 103.043 50.0169 96.5811 53.6021C89.7528 57.3907 83.2464 61.3576 77.1063 65.4221C71.1065 69.3977 65.4475 73.4852 60.205 77.6203C55.207 81.5529 50.5811 85.5132 46.3567 89.4737C44.3682 91.3352 42.4885 93.192 40.6874 95.0497L55.3081 94.073C53.4398 95.9904 51.6851 97.9116 50.0686 99.8008C47.0527 103.347 44.514 106.829 42.5019 110.176L42.5796 110.054L24.9324 114.84L24.8339 114.984C22.4919 118.881 20.7201 122.64 19.5762 126.185C18.5291 129.441 18.016 132.536 18.0779 135.4C18.1445 138.373 18.82 141.098 20.1728 143.536C21.0241 145.071 22.1123 146.429 23.4298 147.638L41.3607 136.552C42.0696 137.207 42.8769 137.818 43.7469 138.361C45.8719 139.679 48.4451 140.66 51.4142 141.309C51.9605 141.43 52.5409 141.531 53.1166 141.624L37.9869 153.921C40.9362 154.414 44.1508 154.682 47.6164 154.699C52.2477 154.727 57.3063 154.34 62.7183 153.544C68.4248 152.697 74.5179 151.401 80.8934 149.67C82.4333 149.251 83.9808 148.805 85.5538 148.344L91.5482 137.125C95.2237 136.033 99.0006 134.763 102.862 133.323C107.638 131.542 112.522 129.513 117.472 127.223C117.07 127.402 116.667 127.58 116.269 127.768L116.158 136.771C116.659 136.549 117.147 136.323 117.643 136.092C124.003 133.166 130.447 129.891 136.909 126.306C143.737 122.517 150.248 118.559 156.384 114.486C162.392 110.505 168.043 106.423 173.29 102.296C178.288 98.3634 182.922 94.3984 187.138 90.4426C189.127 88.5811 191.006 86.7244 192.807 84.8666L178.187 85.8433C180.055 83.9259 181.81 82.0047 183.426 80.1156C186.404 76.6013 188.914 73.1683 190.915 69.8618L208.562 65.0764L208.656 64.924C210.998 61.0268 212.77 57.2677 213.905 53.7278C214.956 50.4578 215.465 47.3768 215.404 44.5124C215.337 41.5391 214.661 38.8145 213.309 36.3764C212.457 34.842 211.364 33.475 210.047 32.266L210.073 32.2518ZM178.879 38.0421L178.3 37.9623L178.879 38.0421ZM174.871 37.6905C174.128 37.657 173.368 37.6329 172.595 37.6268C173.368 37.6329 174.128 37.657 174.871 37.6905ZM176.968 37.8318C176.626 37.7985 176.267 37.7746 175.921 37.7546C176.272 37.7832 176.617 37.8032 176.968 37.8318ZM59.8747 89.5436C59.0694 90.3025 58.2774 91.0653 57.5024 91.8186C58.2726 91.0568 59.0561 90.2988 59.8747 89.5436ZM40.5392 135.714L40.649 135.832L40.5392 135.714ZM39.2467 134.068L39.3905 134.267L39.2467 134.068ZM39.8409 134.898L39.9885 135.084L39.8409 134.898ZM54.6135 141.831L55.193 141.91L54.6135 141.831ZM58.613 142.187C59.3563 142.22 60.1167 142.245 60.8894 142.251C60.1167 142.245 59.3563 142.22 58.613 142.187ZM56.5167 142.046C56.867 142.074 57.2174 142.103 57.563 142.123C57.2126 142.094 56.8585 142.079 56.5167 142.046ZM173.61 90.3339C174.423 89.5702 175.207 88.8122 175.977 88.0503C175.207 88.8122 174.419 89.5617 173.61 90.3339ZM181.256 72.3668C179.505 75.2785 177.308 78.2923 174.687 81.3853C172.208 84.3108 169.342 87.2835 166.154 90.2787C163.192 93.0591 159.943 95.8431 156.443 98.5986C152.758 101.502 148.788 104.373 144.584 107.163C140.264 110.028 135.697 112.808 130.906 115.466C126.371 117.982 121.843 120.271 117.367 122.331C113.057 124.31 108.817 126.072 104.668 127.616C100.158 129.293 95.7805 130.707 91.5747 131.848C87.0971 133.061 82.8251 133.982 78.8137 134.569C75.0192 135.124 71.4615 135.404 68.2136 135.377C65.1845 135.363 62.4235 135.089 59.9656 134.558C57.3799 133.996 55.1353 133.146 53.2885 132.008C51.401 130.836 49.9104 129.355 48.9124 127.557C47.9144 125.758 47.4865 123.922 47.4535 121.833C47.4196 119.823 47.7844 117.647 48.528 115.35C49.3333 112.863 50.5771 110.222 52.2271 107.489C53.9786 104.577 56.1705 101.555 58.796 98.4704C61.2842 95.5401 64.1369 92.5637 67.3296 89.577C70.2912 86.7966 73.5406 84.0126 77.0485 81.2524C80.7335 78.3493 84.695 75.4824 88.9084 72.6875C93.2193 69.8274 97.7953 67.0431 102.586 64.385C107.121 61.8687 111.649 59.5796 116.116 57.5245C120.421 55.5374 124.675 53.7794 128.815 52.2401C133.326 50.5628 137.703 49.1486 141.917 48.0033C146.395 46.7899 150.667 45.869 154.678 45.2822C158.481 44.7218 162.022 44.452 165.278 44.4736C168.307 44.4876 171.068 44.7618 173.526 45.2934C176.112 45.8545 178.352 46.6965 180.203 47.8433C182.091 49.0147 183.581 50.4955 184.579 52.2943C185.525 53.9992 185.992 55.9255 186.034 58.0096C186.068 60.0199 185.703 62.1957 184.959 64.4925C184.159 66.9881 182.91 69.6207 181.265 72.3621L181.256 72.3668ZM192.844 44.0408L192.944 44.1413L192.844 44.0408ZM193.504 44.7892L193.647 44.9664L193.504 44.7892ZM194.106 45.5926L194.25 45.7915L194.106 45.5926Z" fill="#0D9DDA"/>
<path d="M190.368 86.9003L190.477 86.996L190.368 86.9003Z" fill="#093679"/>
<path d="M197.447 98.8159C196.993 97.9976 198.389 96.3535 200.563 95.1474C202.736 93.9413 204.87 93.6272 205.324 94.4455C205.778 95.2639 204.382 96.9079 202.209 98.114C200.035 99.3201 197.901 99.6343 197.447 98.8159Z" fill="#F8F7F7"/>
<path d="M180.458 82.9006C180.792 82.9604 181.117 83.025 181.448 83.0981C181.131 83.0288 180.792 82.9604 180.458 82.9006Z" fill="#696A6C"/>
<path d="M190.749 87.2018C191.011 87.4131 191.264 87.6292 191.501 87.8547C191.256 87.6339 191.011 87.4131 190.749 87.2018Z" fill="#666669"/>
<path d="M190.368 86.9003L190.413 86.942L190.477 86.996L190.413 86.942L190.368 86.9003Z" fill="#062450"/>
<path d="M154.475 92.9798C154.91 92.9394 155.323 92.8998 155.749 92.8641C155.558 92.881 155.367 92.8979 155.175 92.9149C154.94 92.9337 154.719 92.9563 154.484 92.9751L154.475 92.9798Z" fill="#062450"/>
<path d="M51.4154 141.309C48.4463 140.66 45.8693 139.693 43.748 138.361C42.8696 137.823 42.0755 137.216 41.3619 136.552L23.4309 147.638C24.3215 148.46 25.3049 149.207 26.3897 149.877C29.0127 151.51 32.2022 152.717 35.8804 153.519C36.5631 153.664 37.2666 153.787 37.9833 153.913L53.113 141.616C52.5374 141.523 51.957 141.421 51.4107 141.301L51.4154 141.309Z" fill="#F8F5F6"/>
<path d="M208.576 65.0584L190.928 69.8439C188.924 73.1636 186.414 76.5966 183.439 80.0976C181.823 81.9867 180.068 83.908 178.2 85.8254L192.821 84.8486C195.136 82.4712 197.312 80.1042 199.298 77.7541C202.986 73.4108 206.098 69.1533 208.576 65.0584V65.0584Z" fill="#F8F5F6"/>
<path d="M102.857 133.314C98.996 134.754 95.2276 136.02 91.5435 137.117L85.5492 148.336C90.1036 146.98 94.7708 145.405 99.5517 143.633C104.98 141.602 110.533 139.312 116.154 136.763L116.265 127.76C111.723 129.822 107.239 131.686 102.849 133.319L102.857 133.314Z" fill="#F8F5F6"/>
<path d="M182.08 38.5857C185.049 39.235 187.626 40.2022 189.742 41.5253C190.626 42.0721 191.415 42.671 192.142 43.338L210.073 32.252C209.182 31.4305 208.199 30.6829 207.109 30.0053C204.486 28.3723 201.297 27.1652 197.618 26.363C196.936 26.2178 196.224 26.1 195.507 25.9736L180.373 38.2619C180.953 38.3635 181.52 38.4613 182.075 38.5772L182.08 38.5857Z" fill="#F8F5F6"/>
<path d="M168.934 48.9128L173.531 45.3029C171.073 44.7712 168.304 44.5018 165.283 44.4831L161.356 48.1559C164.141 48.1716 166.679 48.4248 168.934 48.9128V48.9128Z" fill="#E3DEDD"/>
<path d="M170.022 82.0789L174.701 81.3892C177.326 78.3047 179.518 75.2824 181.27 72.3707L176.059 73.7901C174.446 76.469 172.427 79.2395 170.022 82.0789V82.0789Z" fill="#E3DEDD"/>
<path d="M54.0438 113.316L48.5289 115.372C47.7938 117.664 47.4205 119.845 47.4544 121.855L53.0605 119.28C53.0246 117.427 53.3666 115.431 54.0438 113.316V113.316Z" fill="#E3DEDD"/>
<path d="M54.4041 124.533L48.9227 127.574C49.9207 129.373 51.4113 130.854 53.2988 132.025L58.4329 128.619C56.6978 127.542 55.3302 126.182 54.4126 124.528L54.4041 124.533Z" fill="#E3DEDD"/>
<path d="M64.5556 130.974L59.9715 134.588C62.4294 135.119 65.1857 135.385 68.2196 135.408L72.1465 131.735C69.3616 131.719 66.8241 131.466 64.5603 130.983L64.5556 130.974Z" fill="#E3DEDD"/>
<path d="M81.8856 130.981L78.8156 134.591C82.8223 133.996 87.099 133.083 91.5767 131.87L93.6087 128.479C89.5023 129.598 85.5674 130.443 81.8771 130.986L81.8856 130.981Z" fill="#E3DEDD"/>
<path d="M63.4759 97.8027L58.7884 98.497C56.1628 101.582 53.971 104.604 52.2195 107.516L57.4301 106.096C59.0432 103.417 61.0579 100.638 63.4674 97.8074L63.4759 97.8027Z" fill="#E3DEDD"/>
<path d="M175.076 51.2578C176.811 52.3354 178.178 53.695 179.1 55.3573L184.582 52.316C183.579 50.5088 182.093 49.0365 180.206 47.8651L175.08 51.2664L175.076 51.2578Z" fill="#E3DEDD"/>
<path d="M151.614 48.9011L154.684 45.2912C150.677 45.8865 146.392 46.8037 141.923 48.0123L139.891 51.403C144.006 50.2794 147.937 49.4473 151.622 48.8963L151.614 48.9011Z" fill="#E3DEDD"/>
<path d="M179.454 66.5666L184.969 64.5101C185.712 62.2133 186.082 60.0461 186.043 58.0272L180.442 60.6111C180.478 62.4642 180.131 64.4516 179.454 66.5666Z" fill="#E3DEDD"/>
<path d="M105.652 124.585L104.674 127.624C108.823 126.08 113.077 124.322 117.373 122.34L117.321 119.715C113.358 121.535 109.461 123.151 105.647 124.576L105.652 124.585Z" fill="#E3DEDD"/>
<path d="M129.775 113.407L130.92 115.47C135.711 112.812 140.278 110.032 144.598 107.167L142.343 105.776C138.371 108.403 134.182 110.961 129.775 113.407V113.407Z" fill="#E3DEDD"/>
<path d="M153.25 97.9065L156.462 98.6109C159.97 95.8507 163.219 93.0667 166.172 90.291L162.178 90.2661C159.46 92.8222 156.468 95.3857 153.247 97.9198L153.25 97.9065Z" fill="#E3DEDD"/>
<path d="M91.1564 74.1056L88.9017 72.7143C84.6883 75.5092 80.7268 78.3761 77.0417 81.2792L80.2533 81.9836C83.6427 79.3114 87.2869 76.6763 91.1612 74.1142L91.1564 74.1056Z" fill="#1080C4"/>
<path d="M139.882 51.4075L141.914 48.0168C137.709 49.1575 133.323 50.5764 128.813 52.2537L127.839 55.3022C131.98 53.7629 136.009 52.4641 139.882 51.4075V51.4075Z" fill="#1080C4"/>
<path d="M116.174 60.1582L116.118 57.5466C111.651 59.6018 107.123 61.8908 102.588 64.4071L103.733 66.4701C107.901 64.1572 112.061 62.0498 116.174 60.1582Z" fill="#1080C4"/>
<path d="M161.357 48.1553L165.284 44.4825C162.028 44.4608 158.478 44.7354 154.684 45.291L151.614 48.9008C155.109 48.3886 158.372 48.1394 161.357 48.1553V48.1553Z" fill="#1080C4"/>
<path d="M175.075 51.2582L180.201 47.8569C178.349 46.7101 176.109 45.8681 173.523 45.307L168.926 48.917C171.304 49.4258 173.367 50.21 175.062 51.2544L175.075 51.2582Z" fill="#1080C4"/>
<path d="M58.4292 128.632L53.2951 132.038C55.1466 133.185 57.3865 134.027 59.9722 134.588L64.5562 130.974C62.1779 130.466 60.1198 129.69 58.4206 128.637L58.4292 128.632Z" fill="#1080C4"/>
<path d="M53.0615 119.28L47.4554 121.855C47.4969 123.939 47.9636 125.865 48.9143 127.579L54.3957 124.537C53.5254 122.969 53.087 121.194 53.053 119.284L53.0615 119.28Z" fill="#1080C4"/>
<path d="M72.1424 131.727L68.2155 135.399C71.4719 135.421 75.021 135.146 78.8155 134.591L81.8855 130.981C78.3902 131.493 75.128 131.742 72.1424 131.727V131.727Z" fill="#1080C4"/>
<path d="M93.6172 128.474L91.5852 131.865C95.791 130.724 100.177 129.306 104.678 127.633L105.656 124.593C101.516 126.132 97.4868 127.431 93.6219 128.483L93.6172 128.474Z" fill="#1080C4"/>
<path d="M57.4444 106.1L52.2338 107.52C50.5838 110.252 49.34 112.894 48.5347 115.381L54.0496 113.324C54.7895 111.041 55.929 108.613 57.4444 106.1Z" fill="#1080C4"/>
<path d="M71.3218 89.6372L67.3278 89.6123C64.1436 92.5943 61.2823 95.5754 58.7941 98.5057L63.4817 97.8113C65.7709 95.1253 68.3981 92.3854 71.3218 89.6372V89.6372Z" fill="#1080C4"/>
<path d="M180.443 60.6109L186.044 58.027C186.003 55.9429 185.536 54.0166 184.59 52.3117L179.109 55.3529C179.979 56.9215 180.413 58.6877 180.451 60.6062L180.443 60.6109Z" fill="#1080C4"/>
<path d="M176.06 73.7902L181.27 72.3708C182.92 69.638 184.164 66.9968 184.965 64.5012L179.45 66.5577C178.715 68.8498 177.571 71.2685 176.06 73.7902V73.7902Z" fill="#1080C4"/>
<path d="M117.326 119.724L117.377 122.349C121.84 120.285 126.372 118.004 130.916 115.483L129.771 113.42C125.603 115.733 121.443 117.841 117.33 119.732L117.326 119.724Z" fill="#1080C4"/>
<path d="M142.343 105.776L144.598 107.168C148.811 104.373 152.777 101.514 156.458 98.6027L153.246 97.8983C149.857 100.571 146.212 103.206 142.338 105.768L142.343 105.776Z" fill="#1080C4"/>
<path d="M162.174 90.2578L166.168 90.2827C169.356 87.2875 172.222 84.3149 174.701 81.3894L170.022 82.079C167.733 84.765 165.106 87.5049 162.182 90.2531L162.174 90.2578Z" fill="#1080C4"/>
<path d="M42.2705 137.308L42.4967 137.495L42.2705 137.308Z" fill="#E01E43"/>
<path d="M183.438 80.0982C186.416 76.584 188.927 73.1509 190.927 69.8445C188.923 73.1642 186.413 76.5972 183.438 80.0982Z" fill="#E01E43"/>
<path d="M109.557 130.679C111.778 129.759 114.014 128.786 116.261 127.773C114.01 128.799 111.769 129.764 109.557 130.679Z" fill="#E01E43"/>
<path d="M106.24 132.017C107.146 131.66 108.055 131.289 108.964 130.919C108.055 131.289 107.146 131.66 106.24 132.017Z" fill="#E01E43"/>
<path d="M191.01 42.3832L191.114 42.4704L191.01 42.3832Z" fill="#E01E43"/>
<path d="M91.9207 136.428C95.5488 135.352 99.2699 134.101 103.067 132.686C99.2699 134.101 95.5403 135.357 91.9207 136.428Z" fill="#E01E43"/>
<path d="M116.28 127.205C116.678 127.017 117.069 126.857 117.466 126.669C117.069 126.857 116.67 127.022 116.272 127.209L116.28 127.205Z" fill="#E01E43"/>
<path d="M190.032 43.171C190.384 43.4439 190.719 43.7263 191.046 44.0134C190.723 43.713 190.379 43.4354 190.032 43.171Z" fill="#E01E43"/>
<path d="M99.8058 142.845C95.1072 144.605 90.4911 146.152 86.0097 147.479L85.5575 148.332C90.1119 146.975 94.7791 145.4 99.5601 143.628C104.989 141.597 110.542 139.308 116.162 136.758L116.172 136.073C110.633 138.588 105.153 140.848 99.8058 142.845V142.845Z" fill="url(#paint7_linear_2464_59)"/>
<path d="M196.446 27.2816C200.063 28.0733 203.208 29.2605 205.799 30.8773C206.871 31.5426 207.841 32.2865 208.709 33.0871L210.069 32.2432C209.178 31.4218 208.195 30.6741 207.106 29.9965C204.483 28.3635 201.293 27.1564 197.615 26.3542C196.932 26.209 196.22 26.0912 195.503 25.9649L194.356 26.8913C195.06 27.0138 195.758 27.1278 196.433 27.2778L196.446 27.2816Z" fill="url(#paint8_linear_2464_59)"/>
<path d="M24.79 146.794C23.4953 145.606 22.4203 144.251 21.5831 142.743C20.2493 140.339 19.5842 137.653 19.5195 134.723C19.4547 131.894 19.9611 128.848 20.9884 125.635C22.1171 122.144 23.8567 118.447 26.1702 114.599L26.2602 114.46L24.923 114.823L24.8244 114.967C22.4825 118.864 20.7107 122.623 19.5668 126.168C18.5196 129.425 18.0066 132.519 18.0685 135.383C18.135 138.356 18.8106 141.081 20.1633 143.519C21.0147 145.054 22.1029 146.412 23.4203 147.621L24.7805 146.777L24.79 146.794Z" fill="#1080C4"/>
<path d="M191.715 84.9268C189.939 86.7486 188.08 88.5827 186.125 90.4252C181.968 94.3261 177.406 98.24 172.484 102.108C167.304 106.175 161.734 110.202 155.828 114.126C149.781 118.138 143.364 122.045 136.638 125.776C130.27 129.31 123.915 132.524 117.645 135.411C117.158 135.637 116.665 135.855 116.186 136.076L116.176 136.762C116.677 136.539 117.165 136.313 117.661 136.083C124.02 133.156 130.465 129.882 136.926 126.296C143.755 122.508 150.266 118.549 156.401 114.476C162.41 110.496 168.06 106.413 173.307 102.287C178.305 98.3541 182.94 94.3891 187.156 90.4334C189.144 88.5719 191.024 86.7151 192.825 84.8573L191.72 84.9353L191.715 84.9268Z" fill="#1080C4"/>
<path d="M179.454 39.0166C180.021 39.1144 180.597 39.2075 181.13 39.3243C180.584 39.2038 180.021 39.1144 179.454 39.0166Z" fill="#E01E43"/>
<path d="M182.473 80.244C180.89 82.1142 179.16 83.9995 177.313 85.8942C179.155 83.991 180.89 82.1142 182.473 80.244Z" fill="#E01E43"/>
<path d="M20.1685 143.528L22.8834 148.422L23.4302 147.639C22.1128 146.43 21.0198 145.063 20.1732 143.537L20.1685 143.528Z" fill="#F8F5F6"/>
<path d="M222.377 52.819L213.991 37.7047C214.835 39.6671 215.241 41.8272 215.236 44.1491C215.227 46.8856 214.639 49.8434 213.53 52.9894C212.324 56.4013 210.727 60.4759 208.319 64.2537L217.83 81.3969C220.239 77.6191 222.077 73.9793 223.283 70.5673C224.405 67.4252 224.98 64.4636 224.989 61.727C224.999 58.8901 224.399 56.3019 223.126 54.0087C222.895 53.591 222.642 53.196 222.372 52.8105L222.377 52.819Z" fill="#1081C6"/>
<path d="M208.571 65.0503C205.97 68.9236 202.74 72.9679 198.947 77.1237C196.901 79.363 195.059 82.0909 192.696 84.3831L201.552 100.586C203.919 98.302 206.143 96.0203 208.194 93.7895C211.987 89.6338 215.217 85.5894 217.818 81.7161L217.916 81.5722L208.674 64.9149L208.575 65.0588L208.571 65.0503Z" fill="#E7E6E7"/>
<path d="M98.2759 144.107C93.4979 145.743 89.99 146.775 85.5538 148.345L93.9304 163.442C98.3666 161.872 102.939 160.127 107.63 158.193C112.964 155.992 118.437 153.557 124 150.905L116.035 136.55C110.463 139.206 103.597 141.901 98.2759 144.107V144.107Z" fill="#E7E6E7"/>
<path d="M35.52 152.871C31.9222 152.214 28.8178 151.16 26.28 149.681C25.2283 149.071 24.278 148.383 23.43 147.638L22.8737 148.404L30.0158 161.276C30.8104 162.709 31.8419 163.965 33.1073 165.08C33.96 165.833 34.9056 166.513 35.9573 167.122C38.4904 168.593 41.5994 169.655 45.1973 170.313C45.8658 170.432 46.5551 170.529 47.2576 170.63L37.5803 153.188C36.8778 153.088 36.18 152.995 35.52 152.871V152.871Z" fill="#E7E6E7"/>
<path d="M80.4861 149.216C74.191 151.093 68.0669 151.971 62.3282 152.78C56.9797 153.529 51.8642 154.015 47.3332 154.188C43.948 154.315 40.8232 154.21 37.9685 153.887L47.2769 170.664C50.1316 170.986 53.2611 171.101 56.6416 170.964C61.1594 170.788 66.1139 170.213 71.4313 169.247C77.0384 168.221 83.0369 166.754 89.3367 164.887C90.8577 164.433 92.3863 163.953 93.9404 163.459L85.5497 148.336C83.9955 148.83 82.0071 148.763 80.4861 149.216Z" fill="#1081C6"/>
<path d="M187.151 90.4253C182.757 94.0789 178.429 98.5762 173.303 102.279C167.928 106.175 162.448 110.565 156.368 114.417C150.162 118.362 143.613 122.252 136.785 126.041C130.323 129.626 123.907 132.952 117.614 135.998C117.123 136.237 116.631 136.476 116.143 136.702L123.929 150.734C124.42 150.495 124.908 150.269 125.399 150.029C131.692 146.984 138.108 143.658 144.57 140.073C151.399 136.284 157.943 132.386 164.154 128.449C170.228 124.588 175.983 120.693 181.358 116.796C186.479 113.085 191.26 109.385 195.646 105.736C197.715 104.019 199.68 102.316 201.571 100.62L192.82 84.8492C190.925 86.5365 189.22 88.7087 187.151 90.4253V90.4253Z" fill="#1081C6"/>
<path d="M150.333 111.377C149.879 110.558 151.274 108.914 153.44 107.713C155.605 106.511 157.747 106.193 158.201 107.011C158.655 107.829 157.259 109.473 155.086 110.679C152.912 111.886 150.787 112.195 150.333 111.377Z" fill="#F8F7F7"/>
<path d="M76.4133 72.2511C75.9593 71.4327 77.355 69.7887 79.5288 68.5826C81.7026 67.3765 83.8361 67.0623 84.2902 67.8807C84.7442 68.6991 83.3485 70.3431 81.1747 71.5492C79.0009 72.7553 76.8674 73.0695 76.4133 72.2511Z" fill="#F8F7F7"/>
<path d="M27.3539 132.284C26.8998 131.465 28.2955 129.821 30.4693 128.615C32.6431 127.409 34.7767 127.095 35.2307 127.913C35.6848 128.732 34.2891 130.376 32.1153 131.582C29.9415 132.788 27.8079 133.102 27.3539 132.284V132.284Z" fill="#F8F7F7"/>
<path d="M64.4946 147.52C64.0406 146.702 65.4362 145.058 67.6101 143.851C69.7839 142.645 71.9174 142.331 72.3715 143.15C72.8255 143.968 71.4299 145.612 69.256 146.818C67.0822 148.024 64.9487 148.338 64.4946 147.52Z" fill="#F8F7F7"/>
<path d="M198.089 54.298C197.635 53.4796 199.031 51.8356 201.205 50.6295C203.378 49.4234 205.512 49.1092 205.966 49.9276C206.42 50.746 205.024 52.39 202.851 53.5961C200.677 54.8022 198.543 55.1164 198.089 54.298Z" fill="#F8F7F7"/>
<path d="M163.016 36.7987C162.562 35.9803 163.957 34.3363 166.131 33.1302C168.305 31.924 170.439 31.6099 170.893 32.4283C171.347 33.2466 169.951 34.8906 167.777 36.0968C165.603 37.3029 163.47 37.617 163.016 36.7987Z" fill="#F8F7F7"/>
<path d="M86.0017 147.483C84.4636 147.946 82.92 148.379 81.4104 148.793C75.121 150.498 69.1236 151.786 63.5033 152.607C58.1737 153.39 53.1937 153.779 48.6192 153.753C45.1971 153.734 42.0308 153.472 39.125 152.977L37.9826 153.912C40.9319 154.405 44.1465 154.673 47.6121 154.69C52.2434 154.718 57.302 154.331 62.714 153.536C68.4205 152.689 74.5136 151.393 80.8891 149.662C82.429 149.242 83.9765 148.796 85.5495 148.336L86.0017 147.483V147.483Z" fill="#1080C4"/>
<path d="M39.1302 152.986C38.4268 152.864 37.7233 152.741 37.0539 152.6C33.4334 151.821 30.2922 150.621 27.7052 149.012C26.6336 148.347 25.6635 147.603 24.7909 146.794L23.4307 147.638C24.3212 148.459 25.3047 149.207 26.3895 149.876C29.0124 151.509 32.2019 152.716 35.8802 153.518C36.5628 153.664 37.2663 153.786 37.983 153.913L39.1255 152.978L39.1302 152.986Z" fill="url(#paint9_linear_2464_59)"/>
<path d="M198.106 77.9365C196.145 80.2506 194.002 82.5769 191.716 84.9268L192.821 84.8489C195.137 82.4715 197.313 80.1045 199.298 77.7544C202.987 73.4111 206.099 69.1536 208.576 65.0587L207.239 65.4215C204.798 69.4625 201.727 73.6528 198.093 77.9327L198.106 77.9365Z" fill="url(#paint10_linear_2464_59)"/>
<path d="M210.072 32.2523L208.712 33.0962C210.007 34.2844 211.09 35.6343 211.928 37.1432C213.257 39.5386 213.926 42.2329 213.986 45.1542C214.046 47.975 213.54 51.0209 212.513 54.2332C211.389 57.7333 209.649 61.43 207.34 65.2646L207.254 65.4123L208.591 65.0494L208.685 64.897C211.027 60.9999 212.799 57.2407 213.934 53.7009C214.985 50.4308 215.495 47.3499 215.433 44.4855C215.366 41.5122 214.691 38.7876 213.338 36.3495C212.487 34.815 211.394 33.4481 210.076 32.2391L210.072 32.2523Z" fill="#1080C4"/>
<defs>
<linearGradient id="paint0_linear_2464_59" x1="153.139" y1="111.492" x2="158.053" y2="106.488" gradientUnits="userSpaceOnUse">
<stop stop-color="#8D8E90"/>
<stop offset="0.08" stop-color="#9A9B9D"/>
<stop offset="0.37" stop-color="#C5C6C7"/>
<stop offset="0.63" stop-color="#E5E5E5"/>
<stop offset="0.85" stop-color="#F8F8F8"/>
<stop offset="1" stop-color="white"/>
</linearGradient>
<linearGradient id="paint1_linear_2464_59" x1="174.089" y1="105.733" x2="59.8939" y2="73.0384" gradientUnits="userSpaceOnUse">
<stop stop-color="#E76D74"/>
<stop offset="0.34" stop-color="#D8515F"/>
<stop offset="1" stop-color="#B61331"/>
</linearGradient>
<linearGradient id="paint2_linear_2464_59" x1="128.727" y1="22.4695" x2="132.623" y2="36.5605" gradientUnits="userSpaceOnUse">
<stop stop-color="#8D8E90"/>
<stop offset="0.08" stop-color="#9A9B9D"/>
<stop offset="0.37" stop-color="#C5C6C7"/>
<stop offset="0.63" stop-color="#E5E5E5"/>
<stop offset="0.85" stop-color="#F8F8F8"/>
<stop offset="1" stop-color="white"/>
</linearGradient>
<linearGradient id="paint3_linear_2464_59" x1="171.477" y1="15.2613" x2="171.208" y2="24.2443" gradientUnits="userSpaceOnUse">
<stop stop-color="#E6505B"/>
<stop offset="1" stop-color="#E6505B"/>
</linearGradient>
<linearGradient id="paint4_linear_2464_59" x1="70.6181" y1="59.7845" x2="75.3241" y2="65.5294" gradientUnits="userSpaceOnUse">
<stop stop-color="#E6505B"/>
<stop offset="1" stop-color="#E6505B"/>
</linearGradient>
<linearGradient id="paint5_linear_2464_59" x1="-11.0427" y1="95.27" x2="42.4232" y2="108.389" gradientUnits="userSpaceOnUse">
<stop stop-color="#8D8E90"/>
<stop offset="0.08" stop-color="#9A9B9D"/>
<stop offset="0.37" stop-color="#C5C6C7"/>
<stop offset="0.63" stop-color="#E5E5E5"/>
<stop offset="0.85" stop-color="#F8F8F8"/>
<stop offset="1" stop-color="white"/>
</linearGradient>
<radialGradient id="paint6_radial_2464_59" cx="0" cy="0" r="1" gradientUnits="userSpaceOnUse" gradientTransform="translate(116.754 89.9384) rotate(-29.0233) scale(53.8435 53.8436)">
<stop stop-color="#023248"/>
<stop offset="1" stop-color="#0D9DDA"/>
</radialGradient>
<linearGradient id="paint7_linear_2464_59" x1="104.886" y1="151.278" x2="100.168" y2="139.332" gradientUnits="userSpaceOnUse">
<stop stop-color="#8D8E90"/>
<stop offset="0.08" stop-color="#9A9B9D"/>
<stop offset="0.37" stop-color="#C5C6C7"/>
<stop offset="0.63" stop-color="#E5E5E5"/>
<stop offset="0.85" stop-color="#F8F8F8"/>
<stop offset="1" stop-color="white"/>
</linearGradient>
<linearGradient id="paint8_linear_2464_59" x1="205.414" y1="18.9581" x2="201.983" y2="27.1865" gradientUnits="userSpaceOnUse">
<stop stop-color="#8D8E90"/>
<stop offset="0.08" stop-color="#9A9B9D"/>
<stop offset="0.37" stop-color="#C5C6C7"/>
<stop offset="0.63" stop-color="#E5E5E5"/>
<stop offset="0.85" stop-color="#F8F8F8"/>
<stop offset="1" stop-color="white"/>
</linearGradient>
<linearGradient id="paint9_linear_2464_59" x1="25.1491" y1="155.907" x2="32.8532" y2="145.43" gradientUnits="userSpaceOnUse">
<stop stop-color="#8D8E90"/>
<stop offset="0.08" stop-color="#9A9B9D"/>
<stop offset="0.37" stop-color="#C5C6C7"/>
<stop offset="0.63" stop-color="#E5E5E5"/>
<stop offset="0.85" stop-color="#F8F8F8"/>
<stop offset="1" stop-color="white"/>
</linearGradient>
<linearGradient id="paint10_linear_2464_59" x1="213.198" y1="83.6482" x2="202.529" y2="73.0989" gradientUnits="userSpaceOnUse">
<stop stop-color="#8D8E90"/>
<stop offset="0.08" stop-color="#9A9B9D"/>
<stop offset="0.37" stop-color="#C5C6C7"/>
<stop offset="0.63" stop-color="#E5E5E5"/>
<stop offset="0.85" stop-color="#F8F8F8"/>
<stop offset="1" stop-color="white"/>
</linearGradient>
</defs>
</svg>
